<?xml version="1.0" encoding="UTF-8" standalone="no"?>
<!-- Created with Inkscape (http://www.inkscape.org/) -->

<svg
   xmlns:dc="http://purl.org/dc/elements/1.1/"
   xmlns:cc="http://creativecommons.org/ns#"
   xmlns:rdf="http://www.w3.org/1999/02/22-rdf-syntax-ns#"
   xmlns:svg="http://www.w3.org/2000/svg"
   xmlns="http://www.w3.org/2000/svg"
   xmlns:sodipodi="http://sodipodi.sourceforge.net/DTD/sodipodi-0.dtd"
   xmlns:inkscape="http://www.inkscape.org/namespaces/inkscape"
   width="16"
   height="16"
   id="svg3049"
   version="1.1"
   inkscape:version="0.91 r13725"
   sodipodi:docname="freeradius.svg"
   inkscape:export-filename="freeradius.png"
   inkscape:export-xdpi="90"
   inkscape:export-ydpi="90">
  <defs
     id="defs3051">
    <style
       type="text/css"
       id="current-color-scheme">
      .ColorScheme-Text {
        color:#4d4d4d;
      }
      .ColorScheme-Background {
        color:#eff0f1;
      }
      .ColorScheme-Highlight {
        color:#3daee9;
      }
      .ColorScheme-ViewText {
        color:#31363b;
      }
      .ColorScheme-ViewBackground {
        color:#fcfcfc;
      }
      .ColorScheme-ViewHover {
        color:#93cee9;
      }
      .ColorScheme-ViewFocus{
        color:#3daee9;
      }
      .ColorScheme-ButtonText {
        color:#31363b;
      }
      .ColorScheme-ButtonBackground {
        color:#eff0f1;
      }
      .ColorScheme-ButtonHover {
        color:#93cee9;
      }
      .ColorScheme-ButtonFocus{
        color:#3daee9;
      }
      </style>
  </defs>
  <sodipodi:namedview
     id="base"
     pagecolor="#ffffff"
     bordercolor="#666666"
     borderopacity="1.0"
     inkscape:pageopacity="0.0"
     inkscape:pageshadow="2"
     inkscape:zoom="17.2614"
     inkscape:cx="-2.9204114"
     inkscape:cy="7.3990155"
     inkscape:document-units="px"
     inkscape:current-layer="Logo"
     showgrid="true"
     fit-margin-top="0"
     fit-margin-left="0"
     fit-margin-right="0"
     fit-margin-bottom="0"
     inkscape:window-width="1880"
     inkscape:window-height="1051"
     inkscape:window-x="0"
     inkscape:window-y="0"
     inkscape:window-maximized="1"
     inkscape:showpageshadow="false"
     borderlayer="true"
     inkscape:snap-bbox="true"
     inkscape:snap-global="true">
    <inkscape:grid
       type="xygrid"
       id="grid4085" />
    <sodipodi:guide
       position="2.0000044,14.00003"
       orientation="12,0"
       id="guide4075" />
    <sodipodi:guide
       position="2.0000044,2.0000296"
       orientation="0,12"
       id="guide4077" />
    <sodipodi:guide
       position="14.000004,2.0000296"
       orientation="-12,0"
       id="guide4079" />
    <sodipodi:guide
       position="14.000004,14.00003"
       orientation="0,-12"
       id="guide4081" />
  </sodipodi:namedview>
  <metadata
     id="metadata3054">
    <rdf:RDF>
      <cc:Work
         rdf:about="">
        <dc:format>image/svg+xml</dc:format>
        <dc:type
           rdf:resource="http://purl.org/dc/dcmitype/StillImage" />
        <dc:title />
      </cc:Work>
    </rdf:RDF>
  </metadata>
  <g
     inkscape:label="Capa 1"
     inkscape:groupmode="layer"
     id="layer1"
     transform="translate(-421.71429,-531.79074)">
    <g
       id="Logo"
       transform="translate(214.82398,378.91542)">
      <g
         id="Logo_Symbol"
         transform="matrix(0.1221309,0,0,0.1221309,205.29057,152.32613)">
        <path
           id="path4233"
           d="m 114.946,15.547 -7.753,12.855 c 8.389,5.748 15.13,14.063 18.865,24.329 9.521,26.168 -4.022,55.202 -30.19,64.724 -26.167,9.521 -55.202,-4.022 -64.722,-30.192 -7.922,-21.772 0.133,-45.52 18.135,-58.369 l -5.28,-14.511 c -25.74,16.005 -37.718,48.419 -26.952,78.01 12.349,33.939 50.008,51.506 83.948,39.158 33.94,-12.35 51.506,-50.01 39.157,-83.949 -4.953,-13.614 -13.985,-24.583 -25.208,-32.055 z"
           inkscape:connector-curvature="0"
           style="fill:#004d95" />
        <path
           id="path4235"
           d="M 59.488,56.95 53.711,41.072 c -11.663,10.06 -16.546,26.664 -10.976,41.976 7.195,19.777 29.139,30.012 48.917,22.817 19.777,-7.196 30.013,-29.141 22.816,-48.918 -2.732,-7.511 -7.596,-13.641 -13.655,-17.967 l -7.782,12.903 c 3.237,2.569 5.828,6.031 7.342,10.192 C 104.741,74.08 98.528,87.4 86.523,91.767 74.52,96.135 61.2,89.921 56.832,77.916 54.185,70.648 55.434,62.903 59.488,56.95 Z"
           inkscape:connector-curvature="0"
           style="fill:#555555" />
        <path
           id="path4237"
           d="m 81.166,77.046 c 3.893,-1.416 5.9,-5.72 4.484,-9.612 L 78.157,46.841 c 3.38,-0.062 6.69,0.637 9.724,1.963 L 95.67,35.892 c -9.056,-4.528 -19.875,-5.487 -30.118,-1.76 -2.412,0.877 -4.68,1.978 -6.793,3.263 l 12.795,35.168 c 1.416,3.892 5.72,5.899 9.612,4.483 z"
           inkscape:connector-curvature="0"
           style="fill:#004d95" />
        <path
           id="path4239"
           d="m 71.987,29.88 -3.412,-9.377 c 11.633,-2.364 23.417,-0.46 33.474,4.81 l 7.755,-12.856 C 93.889,3.839 74.51,1.786 56.206,8.445 53.821,9.313 51.527,10.317 49.31,11.424 l 8.581,23.584 c 2.13,-1.26 4.398,-2.35 6.807,-3.227 2.409,-0.877 4.846,-1.498 7.289,-1.901 z"
           inkscape:connector-curvature="0"
           style="fill:#555555" />
      </g>
    </g>
  </g>
</svg>
