<?xml version="1.0" encoding="UTF-8" standalone="no"?>
<!-- Created with Inkscape (http://www.inkscape.org/) -->

<svg
   xmlns:dc="http://purl.org/dc/elements/1.1/"
   xmlns:cc="http://creativecommons.org/ns#"
   xmlns:rdf="http://www.w3.org/1999/02/22-rdf-syntax-ns#"
   xmlns:svg="http://www.w3.org/2000/svg"
   xmlns="http://www.w3.org/2000/svg"
   xmlns:xlink="http://www.w3.org/1999/xlink"
   xmlns:sodipodi="http://sodipodi.sourceforge.net/DTD/sodipodi-0.dtd"
   xmlns:inkscape="http://www.inkscape.org/namespaces/inkscape"
   width="48"
   height="48"
   id="svg5453"
   version="1.1"
   inkscape:version="0.91 r13725"
   sodipodi:docname="newsletter.svg"
   inkscape:export-filename="newsletter.png"
   inkscape:export-xdpi="90"
   inkscape:export-ydpi="90">
  <defs
     id="defs5455">
    <linearGradient
       inkscape:collect="always"
       id="linearGradient4359">
      <stop
         style="stop-color:#4d4d4d;stop-opacity:1;"
         offset="0"
         id="stop4361" />
      <stop
         style="stop-color:#939393;stop-opacity:1"
         offset="1"
         id="stop4363" />
    </linearGradient>
    <linearGradient
       inkscape:collect="always"
       id="linearGradient4227">
      <stop
         style="stop-color:#292c2f;stop-opacity:1"
         offset="0"
         id="stop4229" />
      <stop
         style="stop-color:#000000;stop-opacity:0;"
         offset="1"
         id="stop4231" />
    </linearGradient>
    <linearGradient
       inkscape:collect="always"
       id="linearGradient4303">
      <stop
         style="stop-color:#c6cdd1;stop-opacity:1"
         offset="0"
         id="stop4305" />
      <stop
         style="stop-color:#e0e5e7;stop-opacity:1"
         offset="1"
         id="stop4307" />
    </linearGradient>
    <style
       id="current-color-scheme"
       type="text/css">
      .ColorScheme-Text {
        color:#4d4d4d;
      }
      .ColorScheme-Background {
        color:#eff0f1;
      }
      .ColorScheme-Highlight {
        color:#3daee9;
      }
      .ColorScheme-ViewText {
        color:#31363b;
      }
      .ColorScheme-ViewBackground {
        color:#fcfcfc;
      }
      .ColorScheme-ViewHover {
        color:#93cee9;
      }
      .ColorScheme-ViewFocus{
        color:#3daee9;
      }
      .ColorScheme-ButtonText {
        color:#31363b;
      }
      .ColorScheme-ButtonBackground {
        color:#eff0f1;
      }
      .ColorScheme-ButtonHover {
        color:#93cee9;
      }
      .ColorScheme-ButtonFocus{
        color:#3daee9;
      }
      </style>
    <linearGradient
       inkscape:collect="always"
       xlink:href="#linearGradient4303"
       id="linearGradient4205"
       x1="40"
       y1="40"
       x2="40"
       y2="29"
       gradientUnits="userSpaceOnUse" />
    <linearGradient
       inkscape:collect="always"
       xlink:href="#linearGradient4227"
       id="linearGradient4267"
       x1="386.57144"
       y1="512.94171"
       x2="409.67142"
       y2="536.04169"
       gradientUnits="userSpaceOnUse"
       gradientTransform="matrix(1.4285708,0,0,1.4285708,-548.24467,-735.71105)" />
    <linearGradient
       inkscape:collect="always"
       xlink:href="#linearGradient4359"
       id="linearGradient4365"
       x1="20.000013"
       y1="36"
       x2="20"
       y2="11"
       gradientUnits="userSpaceOnUse" />
  </defs>
  <sodipodi:namedview
     id="base"
     pagecolor="#ffffff"
     bordercolor="#666666"
     borderopacity="1.0"
     inkscape:pageopacity="0"
     inkscape:pageshadow="2"
     inkscape:zoom="15.999999"
     inkscape:cx="24.384389"
     inkscape:cy="25.225796"
     inkscape:document-units="px"
     inkscape:current-layer="layer1"
     showgrid="true"
     fit-margin-top="0"
     fit-margin-left="0"
     fit-margin-right="0"
     fit-margin-bottom="0"
     inkscape:window-width="1880"
     inkscape:window-height="1051"
     inkscape:window-x="0"
     inkscape:window-y="0"
     inkscape:window-maximized="1"
     inkscape:showpageshadow="false"
     borderlayer="true"
     showguides="true"
     inkscape:object-nodes="true"
     inkscape:snap-global="true">
    <inkscape:grid
       type="xygrid"
       id="grid4063" />
    <sodipodi:guide
       position="1.1650391e-05,47.999996"
       orientation="4,0"
       id="guide4146" />
    <sodipodi:guide
       position="1.1650391e-05,43.999996"
       orientation="0,48"
       id="guide4148" />
    <sodipodi:guide
       position="48.000012,43.999996"
       orientation="-4,0"
       id="guide4150" />
    <sodipodi:guide
       position="48.000012,47.999996"
       orientation="0,-48"
       id="guide4152" />
    <sodipodi:guide
       position="1.1650391e-05,4.0000264"
       orientation="4,0"
       id="guide4154" />
    <sodipodi:guide
       position="1.1650391e-05,2.6367188e-05"
       orientation="0,48"
       id="guide4156" />
    <sodipodi:guide
       position="48.000012,2.6367188e-05"
       orientation="-4,0"
       id="guide4158" />
    <sodipodi:guide
       position="48.000012,4.0000264"
       orientation="0,-48"
       id="guide4160" />
    <sodipodi:guide
       position="48.000012,48.000026"
       orientation="0,-4"
       id="guide4162" />
    <sodipodi:guide
       position="44.000012,48.000026"
       orientation="48,0"
       id="guide4164" />
    <sodipodi:guide
       position="44.000012,2.6367188e-05"
       orientation="0,4"
       id="guide4166" />
    <sodipodi:guide
       position="48.000012,2.6367188e-05"
       orientation="-48,0"
       id="guide4168" />
    <sodipodi:guide
       position="4.0000422,48.000026"
       orientation="0,-4"
       id="guide4170" />
    <sodipodi:guide
       position="4.2167969e-05,48.000026"
       orientation="48,0"
       id="guide4172" />
    <sodipodi:guide
       position="4.2167969e-05,2.6367188e-05"
       orientation="0,4"
       id="guide4174" />
    <sodipodi:guide
       position="4.0000422,2.6367188e-05"
       orientation="-48,0"
       id="guide4176" />
    <sodipodi:guide
       position="20.000012,43.999996"
       orientation="39.999969,0"
       id="guide4153" />
    <sodipodi:guide
       position="20.000012,4.0000264"
       orientation="0,8"
       id="guide4155" />
    <sodipodi:guide
       position="28.000012,4.0000264"
       orientation="-39.999969,0"
       id="guide4157" />
    <sodipodi:guide
       position="28.000012,43.999996"
       orientation="0,-8"
       id="guide4159" />
  </sodipodi:namedview>
  <metadata
     id="metadata5458">
    <rdf:RDF>
      <cc:Work
         rdf:about="">
        <dc:format>image/svg+xml</dc:format>
        <dc:type
           rdf:resource="http://purl.org/dc/dcmitype/StillImage" />
        <dc:title />
      </cc:Work>
    </rdf:RDF>
  </metadata>
  <g
     inkscape:label="Capa 1"
     inkscape:groupmode="layer"
     id="layer1"
     transform="translate(-384.57143,-499.798)"
     style="display:inline">
    <g
       transform="matrix(1.4285708,0,0,1.4285708,-163.67324,-235.91308)"
       id="layer1-7"
       inkscape:label="Capa 1">
      <g
         transform="translate(-2.5589574e-6,2.2518306e-5)"
         id="layer1-9"
         inkscape:label="Capa 1">
        <path
           style="color:#000000;clip-rule:nonzero;display:inline;overflow:visible;visibility:visible;opacity:1;isolation:auto;mix-blend-mode:normal;color-interpolation:sRGB;color-interpolation-filters:linearRGB;solid-color:#000000;solid-opacity:1;fill:url(#linearGradient4205);fill-opacity:1;fill-rule:evenodd;stroke:none;stroke-width:0.5;stroke-linecap:square;stroke-linejoin:bevel;stroke-miterlimit:4;stroke-dasharray:none;stroke-dashoffset:0;stroke-opacity:1;marker:none;color-rendering:auto;image-rendering:auto;shape-rendering:auto;text-rendering:auto;enable-background:accumulate"
           d="M 2.0000006,8.0000001 2.0000006,40 46,40 46,8.0000001 Z"
           transform="matrix(0.70000031,0,0,0.70000031,383.77144,514.99796)"
           id="rect4182"
           inkscape:connector-curvature="0"
           sodipodi:nodetypes="ccccc" />
        <path
           style="color:#000000;clip-rule:nonzero;display:inline;overflow:visible;visibility:visible;opacity:1;isolation:auto;mix-blend-mode:normal;color-interpolation:sRGB;color-interpolation-filters:linearRGB;solid-color:#000000;solid-opacity:1;fill:url(#linearGradient4365);fill-opacity:1;fill-rule:evenodd;stroke:none;stroke-width:0.5;stroke-linecap:square;stroke-linejoin:bevel;stroke-miterlimit:4;stroke-dasharray:none;stroke-dashoffset:0;stroke-opacity:1;marker:none;color-rendering:auto;image-rendering:auto;shape-rendering:auto;text-rendering:auto;enable-background:accumulate"
           d="M 36 11 L 36 12 L 44 12 L 44 11 L 36 11 z M 36 13 L 36 14 L 44 14 L 44 13 L 36 13 z M 36 15 L 36 16 L 44 16 L 44 15 L 36 15 z M 36 17 L 36 18 L 44 18 L 44 17 L 36 17 z M 5 23 L 5 36 L 23 36 L 23 23 L 5 23 z M 25 23 L 25 24 L 44 24 L 44 23 L 25 23 z M 25 25 L 25 26 L 44 26 L 44 25 L 25 25 z M 25 27 L 25 28 L 44 28 L 44 27 L 25 27 z M 25 29 L 25 30 L 44 30 L 44 29 L 25 29 z M 25 31 L 25 32 L 44 32 L 44 31 L 25 31 z M 25 33 L 25 34 L 44 34 L 44 33 L 25 33 z M 25 35 L 25 36 L 44 36 L 44 35 L 25 35 z "
           transform="matrix(0.70000031,0,0,0.70000031,383.77144,514.99796)"
           id="rect4187" />
        <g
           style="font-style:normal;font-variant:normal;font-weight:500;font-stretch:normal;font-size:7.00000286px;line-height:125%;font-family:'Century Schoolbook L';-inkscape-font-specification:'Century Schoolbook L Medium';letter-spacing:0px;word-spacing:0px;fill:#000000;fill-opacity:1;stroke:none;stroke-width:1px;stroke-linecap:butt;stroke-linejoin:miter;stroke-opacity:1"
           id="text4195" />
        <rect
           style="color:#000000;clip-rule:nonzero;display:inline;overflow:visible;visibility:visible;opacity:1;isolation:auto;mix-blend-mode:normal;color-interpolation:sRGB;color-interpolation-filters:linearRGB;solid-color:#000000;solid-opacity:1;fill:#fcfcfc;fill-opacity:0.54883716;fill-rule:evenodd;stroke:none;stroke-width:0.5;stroke-linecap:square;stroke-linejoin:bevel;stroke-miterlimit:4;stroke-dasharray:none;stroke-dashoffset:0;stroke-opacity:1;marker:none;color-rendering:auto;image-rendering:auto;shape-rendering:auto;text-rendering:auto;enable-background:accumulate"
           id="rect4247"
           width="21.699966"
           height="5.6000419"
           x="386.57147"
           y="522.69794" />
        <path
           style="opacity:0.2;fill:url(#linearGradient4267);fill-opacity:1;fill-rule:evenodd;stroke:none;stroke-width:0.70000029px;stroke-linecap:butt;stroke-linejoin:miter;stroke-opacity:1"
           d="M 34.5 11.5 L 34.1875 12.5625 L 32.1875 11.6875 L 31.0625 12 L 30.25 13.1875 L 29 11.9375 L 26.90625 11.90625 L 27.75 12.75 L 27.074219 14.646484 L 25.4375 11.8125 L 24.5625 11.8125 L 24.21875 13.53125 L 22.25 11.5625 L 21.9375 11.96875 L 19.46875 11.96875 L 20.8125 13.3125 L 21.21875 14.71875 L 18.3125 11.8125 L 12.53125 11.84375 L 14 13.3125 L 14 14 L 11.75 11.75 L 10.625 12 L 10.5625 18 L 5.625 12.25 L 5.625 18.6875 L 4.25 18.75 L 25.5 40 L 46 40 L 46 23 L 34.5 11.5 z "
           transform="matrix(0.70000031,0,0,0.70000031,383.77144,514.99796)"
           id="path4259" />
        <g
           style="font-style:normal;font-variant:normal;font-weight:500;font-stretch:normal;font-size:7.00000286px;line-height:125%;font-family:'Century Schoolbook L';-inkscape-font-specification:'Century Schoolbook L Medium';letter-spacing:0px;word-spacing:0px;display:inline;fill:#2a2a2a;fill-opacity:1;stroke:none;stroke-width:1px;stroke-linecap:butt;stroke-linejoin:miter;stroke-opacity:1"
           id="text4195-1">
          <path
             inkscape:connector-curvature="0"
             d="m 388.14647,523.13899 -1.442,0 0,0.329 0.175,0 c 0.357,0 0.518,0.056 0.644,0.231 l 0,2.975 c 0,0.959 -0.14,1.162 -0.812,1.19 l 0,0.329 1.995,0 0,-0.329 c -0.665,-0.028 -0.805,-0.231 -0.805,-1.19 l 0,-2.597 3.122,4.214 0.294,0 0,-3.633 c 0,-0.959 0.14,-1.162 0.812,-1.19 l 0,-0.329 -1.995,0 0,0.329 c 0.665,0.028 0.805,0.231 0.805,1.19 l 0,2.198 -2.793,-3.717 z"
             id="path4208-0"
             style="fill:#2a2a2a;fill-opacity:1" />
          <path
             inkscape:connector-curvature="0"
             d="m 396.68265,523.13899 -4.207,0 0,0.329 0.126,0 c 0.567,0 0.63,0.035 0.63,0.329 l 0,0.203 0,3.332 0,0.203 c 0,0.294 -0.063,0.329 -0.63,0.329 l -0.126,0 0,0.329 4.298,0 0.14,-1.869 -0.308,0 c -0.091,0.49 -0.252,0.924 -0.42,1.127 -0.217,0.28 -0.616,0.413 -1.204,0.413 l -0.462,0 c -0.21,0 -0.385,-0.042 -0.448,-0.105 -0.049,-0.042 -0.056,-0.084 -0.056,-0.231 l 0,-1.785 0.14,0 c 0.427,0 0.602,0.042 0.742,0.189 0.182,0.182 0.252,0.406 0.266,0.819 l 0.329,0 0,-2.296 -0.329,0 c -0.035,0.686 -0.315,0.959 -0.98,0.959 l -0.168,0 0,-1.596 c 0,-0.301 0.063,-0.35 0.441,-0.35 l 0.364,0 c 0.616,0 0.917,0.063 1.155,0.259 0.231,0.182 0.399,0.574 0.504,1.204 l 0.301,0 -0.098,-1.792 z"
             id="path4210-3"
             style="fill:#2a2a2a;fill-opacity:1" />
          <path
             inkscape:connector-curvature="0"
             d="m 399.77424,526.91899 -1.008,-3.136 c -0.021,-0.063 -0.035,-0.14 -0.035,-0.175 0,-0.105 0.077,-0.14 0.301,-0.14 l 0.315,0 0,-0.329 -1.974,0 0,0.329 0.133,0 c 0.294,0 0.336,0.028 0.42,0.273 l 1.512,4.557 0.301,0 1.036,-3.479 1.134,3.479 0.287,0 1.232,-4.109 c 0.077,-0.273 0.112,-0.357 0.189,-0.469 0.112,-0.168 0.287,-0.252 0.518,-0.252 l 0.028,0 0,-0.329 -1.715,0 0,0.329 0.056,0 c 0.406,0 0.602,0.119 0.602,0.364 0,0.07 -0.014,0.168 -0.042,0.245 l -0.84,2.842 -0.966,-3.066 c -0.042,-0.133 -0.049,-0.147 -0.049,-0.196 0,-0.063 0.042,-0.126 0.105,-0.154 0.077,-0.028 0.126,-0.035 0.399,-0.035 l 0.112,0 0,-0.329 -2.023,0 0,0.329 0.161,0 c 0.287,0 0.385,0.049 0.441,0.217 l 0.182,0.546 -0.812,2.688 z"
             id="path4212-7"
             style="fill:#2a2a2a;fill-opacity:1" />
          <path
             inkscape:connector-curvature="0"
             d="m 408.01653,523.09699 -0.259,0 -0.28,0.42 c -0.329,-0.315 -0.777,-0.483 -1.274,-0.483 -0.917,0 -1.533,0.588 -1.533,1.463 0,0.763 0.378,1.141 1.407,1.407 l 0.665,0.168 c 0.518,0.133 0.567,0.147 0.714,0.259 0.21,0.161 0.322,0.392 0.322,0.665 0,0.28 -0.105,0.511 -0.315,0.7 -0.231,0.203 -0.462,0.28 -0.847,0.28 -0.518,0 -0.889,-0.161 -1.218,-0.525 -0.294,-0.329 -0.441,-0.658 -0.546,-1.197 l -0.301,0 0.028,1.995 0.273,0 0.315,-0.476 c 0.469,0.385 0.861,0.525 1.47,0.525 1.029,0 1.687,-0.602 1.687,-1.54 0,-0.434 -0.147,-0.805 -0.42,-1.071 -0.189,-0.182 -0.462,-0.301 -1.022,-0.441 l -0.749,-0.189 c -0.623,-0.161 -0.917,-0.434 -0.917,-0.861 0,-0.49 0.399,-0.826 0.994,-0.826 0.49,0 0.889,0.21 1.169,0.609 0.203,0.287 0.329,0.581 0.42,0.938 l 0.301,0 -0.084,-1.82 z"
             id="path4214-8"
             style="fill:#2a2a2a;fill-opacity:1" />
        </g>
        <rect
           style="color:#000000;clip-rule:nonzero;display:inline;overflow:visible;visibility:visible;opacity:1;isolation:auto;mix-blend-mode:normal;color-interpolation:sRGB;color-interpolation-filters:linearRGB;solid-color:#000000;solid-opacity:1;fill:#b9b9b9;fill-opacity:1;fill-rule:evenodd;stroke:none;stroke-width:0.5;stroke-linecap:square;stroke-linejoin:bevel;stroke-miterlimit:4;stroke-dasharray:none;stroke-dashoffset:0;stroke-opacity:1;marker:none;color-rendering:auto;image-rendering:auto;shape-rendering:auto;text-rendering:auto;enable-background:accumulate"
           id="rect4367"
           width="30.800014"
           height="1.4000006"
           x="385.17145"
           y="542.29797" />
      </g>
    </g>
  </g>
</svg>
