<?xml version="1.0" encoding="UTF-8" standalone="no"?>
<!-- Created with Inkscape (http://www.inkscape.org/) -->

<svg
   xmlns:dc="http://purl.org/dc/elements/1.1/"
   xmlns:cc="http://creativecommons.org/ns#"
   xmlns:rdf="http://www.w3.org/1999/02/22-rdf-syntax-ns#"
   xmlns:svg="http://www.w3.org/2000/svg"
   xmlns="http://www.w3.org/2000/svg"
   xmlns:xlink="http://www.w3.org/1999/xlink"
   xmlns:sodipodi="http://sodipodi.sourceforge.net/DTD/sodipodi-0.dtd"
   xmlns:inkscape="http://www.inkscape.org/namespaces/inkscape"
   width="71"
   height="100"
   viewBox="0 0 71.000001 100"
   id="svg2"
   version="1.1"
   inkscape:version="0.91 r13725"
   sodipodi:docname="mission_complete.svg"
   inkscape:export-filename="mission_complete.png"
   inkscape:export-xdpi="90"
   inkscape:export-ydpi="90">
  <defs
     id="defs4">
    <linearGradient
       inkscape:collect="always"
       id="linearGradient4249">
      <stop
         style="stop-color:#0c89e4;stop-opacity:1"
         offset="0"
         id="stop4251" />
      <stop
         style="stop-color:#39a5f4;stop-opacity:1"
         offset="1"
         id="stop4253" />
    </linearGradient>
    <linearGradient
       inkscape:collect="always"
       id="linearGradient4241">
      <stop
         style="stop-color:#fdc86c;stop-opacity:1"
         offset="0"
         id="stop4243" />
      <stop
         style="stop-color:#eda937;stop-opacity:1"
         offset="1"
         id="stop4245" />
    </linearGradient>
    <linearGradient
       inkscape:collect="always"
       id="linearGradient4233">
      <stop
         style="stop-color:#1d99f3;stop-opacity:1;"
         offset="0"
         id="stop4235" />
      <stop
         style="stop-color:#abd8f9;stop-opacity:1"
         offset="1"
         id="stop4237" />
    </linearGradient>
    <linearGradient
       inkscape:collect="always"
       id="linearGradient4205">
      <stop
         style="stop-color:#000000;stop-opacity:0.3860465"
         offset="0"
         id="stop4207" />
      <stop
         style="stop-color:#000000;stop-opacity:0"
         offset="1"
         id="stop4209" />
    </linearGradient>
    <linearGradient
       inkscape:collect="always"
       xlink:href="#linearGradient4205"
       id="linearGradient4211"
       x1="35"
       y1="987.36218"
       x2="35"
       y2="1022.3622"
       gradientUnits="userSpaceOnUse"
       gradientTransform="translate(0,-952.36216)" />
    <linearGradient
       inkscape:collect="always"
       xlink:href="#linearGradient4233"
       id="linearGradient4239"
       x1="40"
       y1="1002.3622"
       x2="40"
       y2="972.36218"
       gradientUnits="userSpaceOnUse" />
    <linearGradient
       inkscape:collect="always"
       xlink:href="#linearGradient4241"
       id="linearGradient4247"
       x1="30"
       y1="1007.3622"
       x2="30"
       y2="967.36218"
       gradientUnits="userSpaceOnUse" />
    <linearGradient
       inkscape:collect="always"
       xlink:href="#linearGradient4249"
       id="linearGradient4255"
       x1="15"
       y1="962.36218"
       x2="15"
       y2="1012.3622"
       gradientUnits="userSpaceOnUse" />
    <linearGradient
       inkscape:collect="always"
       xlink:href="#linearGradient4249"
       id="linearGradient4265"
       x1="30"
       y1="1037.3622"
       x2="30"
       y2="1002.3622"
       gradientUnits="userSpaceOnUse" />
    <linearGradient
       inkscape:collect="always"
       xlink:href="#linearGradient4241"
       id="linearGradient4273"
       x1="45"
       y1="1002.3622"
       x2="45"
       y2="1037.3622"
       gradientUnits="userSpaceOnUse" />
  </defs>
  <sodipodi:namedview
     id="base"
     pagecolor="#ffffff"
     bordercolor="#666666"
     borderopacity="1.0"
     inkscape:pageopacity="0.0"
     inkscape:pageshadow="2"
     inkscape:zoom="7.9195959"
     inkscape:cx="20.796279"
     inkscape:cy="53.309524"
     inkscape:document-units="px"
     inkscape:current-layer="layer1"
     showgrid="true"
     units="px"
     inkscape:window-width="1880"
     inkscape:window-height="1051"
     inkscape:window-x="0"
     inkscape:window-y="0"
     inkscape:window-maximized="1"
     inkscape:object-nodes="true">
    <inkscape:grid
       type="xygrid"
       id="grid4166" />
  </sodipodi:namedview>
  <metadata
     id="metadata7">
    <rdf:RDF>
      <cc:Work
         rdf:about="">
        <dc:format>image/svg+xml</dc:format>
        <dc:type
           rdf:resource="http://purl.org/dc/dcmitype/StillImage" />
        <dc:title></dc:title>
      </cc:Work>
    </rdf:RDF>
  </metadata>
  <g
     inkscape:label="Calque 1"
     inkscape:groupmode="layer"
     id="layer1"
     transform="translate(0,-952.36216)">
    <path
       style="fill:url(#linearGradient4273);fill-opacity:1;fill-rule:evenodd;stroke:none;stroke-width:1px;stroke-linecap:butt;stroke-linejoin:miter;stroke-opacity:1"
       d="m 28.811408,1005.5467 9.058667,33.8074 7.071068,-12.2475 12.247449,7.0711 -9.058667,-33.8074 z"
       id="path4186-3"
       inkscape:connector-curvature="0"
       sodipodi:nodetypes="cccccc" />
    <path
       style="fill:url(#linearGradient4265);fill-opacity:1;fill-rule:evenodd;stroke:none;stroke-width:1px;stroke-linecap:butt;stroke-linejoin:miter;stroke-opacity:1"
       d="m 19.870075,1000.3703 -9.058667,33.8074 12.247449,-7.0711 7.071068,12.2475 9.058667,-33.8074 z"
       id="path4186"
       inkscape:connector-curvature="0"
       sodipodi:nodetypes="cccccc" />
    <path
       style="color:#000000;clip-rule:nonzero;display:inline;overflow:visible;visibility:visible;opacity:1;isolation:auto;mix-blend-mode:normal;color-interpolation:sRGB;color-interpolation-filters:linearRGB;solid-color:#000000;solid-opacity:1;fill:url(#linearGradient4211);fill-opacity:1;fill-rule:evenodd;stroke:none;stroke-width:0.5;stroke-linecap:square;stroke-linejoin:bevel;stroke-miterlimit:4;stroke-dasharray:none;stroke-dashoffset:0;stroke-opacity:1;marker:none;color-rendering:auto;image-rendering:auto;shape-rendering:auto;text-rendering:auto;enable-background:accumulate"
       d="M 19.869141 48.007812 L 17.099609 58.345703 L 20.634766 57.861328 L 21.984375 62.029297 L 26.082031 60.484375 L 28.324219 64.248047 L 31.976562 61.830078 L 35 65 L 38.023438 61.830078 L 41.675781 64.248047 L 43.917969 60.484375 L 48.015625 62.029297 L 49.365234 57.861328 L 50.824219 58.060547 L 48.130859 48.007812 L 34 51.792969 L 19.869141 48.007812 z "
       transform="translate(0,952.36216)"
       id="path4203" />
    <path
       sodipodi:type="star"
       style="color:#000000;clip-rule:nonzero;display:inline;overflow:visible;visibility:visible;opacity:1;isolation:auto;mix-blend-mode:normal;color-interpolation:sRGB;color-interpolation-filters:linearRGB;solid-color:#000000;solid-opacity:1;fill:url(#linearGradient4255);fill-opacity:1;fill-rule:evenodd;stroke:none;stroke-width:0.5;stroke-linecap:square;stroke-linejoin:bevel;stroke-miterlimit:4;stroke-dasharray:none;stroke-dashoffset:0;stroke-opacity:1;marker:none;color-rendering:auto;image-rendering:auto;shape-rendering:auto;text-rendering:auto;enable-background:accumulate"
       id="path4178"
       sodipodi:sides="28"
       sodipodi:cx="35"
       sodipodi:cy="987.36218"
       sodipodi:r1="22.5"
       sodipodi:r2="25"
       sodipodi:arg1="3.1415927"
       sodipodi:arg2="3.2537924"
       inkscape:flatsided="false"
       inkscape:rounded="0"
       inkscape:randomized="0"
       d="m 12.5,987.36218 -2.342805,-2.79911 2.906927,-2.20761 -1.661205,-3.25025 3.325284,-1.50541 -0.896306,-3.53842 3.576897,-0.72772 -0.08646,-3.64915 3.649149,0.0865 0.727718,-3.57689 3.538419,0.8963 1.505407,-3.32528 3.250256,1.6612 2.207608,-2.90692 2.799113,2.3428 2.799111,-2.3428 2.20761,2.90692 3.250255,-1.6612 1.505408,3.32528 3.538417,-0.8963 0.727719,3.57689 3.649149,-0.0865 -0.08646,3.64915 3.576896,0.72772 -0.896305,3.53842 3.325283,1.50541 -1.661205,3.25025 2.906927,2.20761 -2.342805,2.79911 2.342805,2.79911 -2.906927,2.20761 1.661205,3.25026 -3.325284,1.50541 0.896306,3.53843 -3.576897,0.7277 0.08646,3.6492 -3.649149,-0.087 -0.727718,3.5769 -3.538419,-0.8963 -1.505407,3.3253 -3.250256,-1.6612 -2.207608,2.9069 -2.799113,-2.3428 -2.799111,2.3428 -2.20761,-2.9069 -3.250255,1.6612 -1.505408,-3.3253 -3.538417,0.8963 -0.727719,-3.5769 -3.649149,0.087 0.08646,-3.6492 -3.576896,-0.7277 0.896305,-3.53843 -3.325283,-1.50541 1.661205,-3.25026 -2.906927,-2.20761 z" />
    <path
       sodipodi:type="star"
       style="color:#000000;clip-rule:nonzero;display:inline;overflow:visible;visibility:visible;opacity:1;isolation:auto;mix-blend-mode:normal;color-interpolation:sRGB;color-interpolation-filters:linearRGB;solid-color:#000000;solid-opacity:1;fill:url(#linearGradient4247);fill-opacity:1;fill-rule:evenodd;stroke:none;stroke-width:0.5;stroke-linecap:square;stroke-linejoin:bevel;stroke-miterlimit:4;stroke-dasharray:none;stroke-dashoffset:0;stroke-opacity:1;marker:none;color-rendering:auto;image-rendering:auto;shape-rendering:auto;text-rendering:auto;enable-background:accumulate"
       id="path4182"
       sodipodi:sides="28"
       sodipodi:cx="35"
       sodipodi:cy="987.36216"
       sodipodi:r1="20"
       sodipodi:r2="18"
       sodipodi:arg1="3.1415927"
       sodipodi:arg2="3.2537924"
       inkscape:flatsided="false"
       inkscape:rounded="0"
       inkscape:randomized="0"
       d="m 15,987.36218 2.11318,-2.01536 -1.611738,-2.43506 2.508658,-1.4946 -1.029477,-2.73265 2.778341,-0.8989 -0.395593,-2.89322 2.908707,-0.25813 0.258127,-2.90871 2.893218,0.3956 0.898903,-2.77835 2.732651,1.02948 1.494605,-2.50866 2.435058,1.61174 2.015361,-2.11318 2.01536,2.11318 2.435059,-1.61174 1.494603,2.50866 2.732653,-1.02947 0.898902,2.77834 2.893219,-0.3956 0.258125,2.90871 2.908708,0.25813 -0.395594,2.89322 2.778342,0.8989 -1.029478,2.73265 2.508658,1.4946 -1.611738,2.43506 2.11318,2.01536 -2.11318,2.01536 1.611738,2.43506 -2.508658,1.49461 1.029477,2.73265 -2.778341,0.8989 0.395593,2.89322 -2.908707,0.25812 -0.258127,2.9087 -2.893218,-0.3956 -0.898903,2.7784 -2.732651,-1.0295 -1.494605,2.5086 -2.435058,-1.6117 -2.015361,2.1132 -2.01536,-2.1132 -2.435059,1.6117 -1.494603,-2.5086 -2.732653,1.0295 -0.898902,-2.7784 -2.893219,0.3956 -0.258125,-2.9087 -2.908708,-0.25812 0.395594,-2.89322 -2.778342,-0.8989 1.029478,-2.73265 -2.508658,-1.49461 1.611738,-2.43506 z" />
    <path
       sodipodi:type="star"
       style="color:#000000;clip-rule:nonzero;display:inline;overflow:visible;visibility:visible;opacity:1;isolation:auto;mix-blend-mode:normal;color-interpolation:sRGB;color-interpolation-filters:linearRGB;solid-color:#000000;solid-opacity:1;fill:url(#linearGradient4239);fill-opacity:1;fill-rule:evenodd;stroke:none;stroke-width:0.5;stroke-linecap:square;stroke-linejoin:bevel;stroke-miterlimit:4;stroke-dasharray:none;stroke-dashoffset:0;stroke-opacity:1;marker:none;color-rendering:auto;image-rendering:auto;shape-rendering:auto;text-rendering:auto;enable-background:accumulate"
       id="path4184"
       sodipodi:sides="28"
       sodipodi:cx="35"
       sodipodi:cy="987.36218"
       sodipodi:r1="15"
       sodipodi:r2="9"
       sodipodi:arg1="-3.1415911"
       sodipodi:arg2="-3.0293914"
       inkscape:flatsided="false"
       inkscape:rounded="0"
       inkscape:randomized="0"
       d="m 20,987.36216 6.056592,-1.00767 -5.680505,-2.33014 6.128968,0.36531 -5.019578,-3.53575 5.894012,1.71997 -4.106947,-4.56406 5.363507,2.98839 -2.988378,-5.36351 4.564052,4.10696 -1.719958,-5.89402 3.535736,5.01959 -0.365292,-6.12897 2.330124,5.68051 1.00769,-6.05659 1.007671,6.05659 2.330143,-5.6805 -0.365313,6.12897 3.535753,-5.01958 -1.719977,5.89401 4.564065,-4.10695 -2.988394,5.36351 5.363516,-2.98838 -4.106962,4.56406 5.894018,-1.71996 -5.019589,3.53573 6.12897,-0.36529 -5.680513,2.33013 6.056589,1.00769 -6.056592,1.00767 5.680505,2.33014 -6.128968,-0.36531 5.019578,3.53575 -5.894012,-1.71998 4.106947,4.56407 -5.363507,-2.9884 2.988378,5.36352 -4.564052,-4.10696 1.719958,5.89399 -3.535736,-5.01956 0.365292,6.12896 -2.330124,-5.68051 -1.00769,6.05661 -1.007671,-6.05661 -2.330143,5.68051 0.365313,-6.12897 -3.535753,5.01957 1.719977,-5.89401 -4.564065,4.10695 2.988394,-5.36351 -5.363516,2.98838 4.106962,-4.56405 -5.894018,1.71996 5.019589,-3.53574 -6.12897,0.36529 5.680513,-2.33012 z" />
  </g>
</svg>
