<?xml version="1.0" encoding="UTF-8" standalone="no"?>
<!-- Created with Inkscape (http://www.inkscape.org/) -->

<svg
   xmlns:dc="http://purl.org/dc/elements/1.1/"
   xmlns:cc="http://creativecommons.org/ns#"
   xmlns:rdf="http://www.w3.org/1999/02/22-rdf-syntax-ns#"
   xmlns:svg="http://www.w3.org/2000/svg"
   xmlns="http://www.w3.org/2000/svg"
   xmlns:xlink="http://www.w3.org/1999/xlink"
   xmlns:sodipodi="http://sodipodi.sourceforge.net/DTD/sodipodi-0.dtd"
   xmlns:inkscape="http://www.inkscape.org/namespaces/inkscape"
   width="177"
   height="250"
   viewBox="0 0 177 250"
   id="svg2"
   version="1.1"
   inkscape:version="0.91 r13725"
   sodipodi:docname="win.svg"
   inkscape:export-filename="win.png"
   inkscape:export-xdpi="90"
   inkscape:export-ydpi="90">
  <defs
     id="defs4">
    <linearGradient
       inkscape:collect="always"
       id="linearGradient4590">
      <stop
         style="stop-color:#000000;stop-opacity:0.70232558"
         offset="0"
         id="stop4592" />
      <stop
         style="stop-color:#000000;stop-opacity:0.47058824"
         offset="1"
         id="stop4594" />
    </linearGradient>
    <linearGradient
       id="linearGradient4374"
       inkscape:collect="always">
      <stop
         id="stop4376"
         offset="0"
         style="stop-color:#ffffb3;stop-opacity:1" />
      <stop
         id="stop4378"
         offset="1"
         style="stop-color:#f6ac03;stop-opacity:0" />
    </linearGradient>
    <linearGradient
       id="linearGradient4342"
       inkscape:collect="always">
      <stop
         id="stop4344"
         offset="0"
         style="stop-color:#372a0c;stop-opacity:1" />
      <stop
         id="stop4346"
         offset="1"
         style="stop-color:#715616;stop-opacity:1" />
    </linearGradient>
    <linearGradient
       inkscape:collect="always"
       id="linearGradient4252">
      <stop
         style="stop-color:#fdc74b;stop-opacity:1;"
         offset="0"
         id="stop4254" />
      <stop
         style="stop-color:#f6ac03;stop-opacity:1"
         offset="1"
         id="stop4256" />
    </linearGradient>
    <linearGradient
       inkscape:collect="always"
       id="linearGradient4244">
      <stop
         style="stop-color:#ddf0fd;stop-opacity:1;"
         offset="0"
         id="stop4246" />
      <stop
         style="stop-color:#ddf0fd;stop-opacity:0.70980394"
         offset="1"
         id="stop4248" />
    </linearGradient>
    <linearGradient
       inkscape:collect="always"
       xlink:href="#linearGradient4244"
       id="linearGradient4250"
       x1="90"
       y1="130"
       x2="90"
       y2="150"
       gradientUnits="userSpaceOnUse" />
    <linearGradient
       inkscape:collect="always"
       xlink:href="#linearGradient4252"
       id="linearGradient4258"
       x1="90"
       y1="827.36218"
       x2="90"
       y2="902.36218"
       gradientUnits="userSpaceOnUse" />
    <linearGradient
       inkscape:collect="always"
       xlink:href="#linearGradient4252"
       id="linearGradient4268"
       x1="90"
       y1="907.36218"
       x2="90"
       y2="902.36218"
       gradientUnits="userSpaceOnUse" />
    <linearGradient
       inkscape:collect="always"
       xlink:href="#linearGradient4252"
       id="linearGradient4276"
       x1="90"
       y1="912.36218"
       x2="90"
       y2="907.36218"
       gradientUnits="userSpaceOnUse" />
    <linearGradient
       inkscape:collect="always"
       xlink:href="#linearGradient4252"
       id="linearGradient4284"
       x1="90"
       y1="967.36218"
       x2="90"
       y2="912.36218"
       gradientUnits="userSpaceOnUse" />
    <linearGradient
       inkscape:collect="always"
       xlink:href="#linearGradient4252"
       id="linearGradient4292"
       x1="34.790531"
       y1="864.86218"
       x2="60"
       y2="864.86218"
       gradientUnits="userSpaceOnUse" />
    <linearGradient
       inkscape:collect="always"
       xlink:href="#linearGradient4252"
       id="linearGradient4300"
       x1="145"
       y1="872.36218"
       x2="120"
       y2="872.36218"
       gradientUnits="userSpaceOnUse" />
    <linearGradient
       inkscape:collect="always"
       xlink:href="#linearGradient4252"
       id="linearGradient4308"
       x1="90"
       y1="972.36218"
       x2="90"
       y2="967.36218"
       gradientUnits="userSpaceOnUse" />
    <linearGradient
       inkscape:collect="always"
       xlink:href="#linearGradient4252"
       id="linearGradient4316"
       x1="90"
       y1="977.36218"
       x2="90"
       y2="972.36218"
       gradientUnits="userSpaceOnUse" />
    <linearGradient
       inkscape:collect="always"
       xlink:href="#linearGradient4252"
       id="linearGradient4324"
       x1="95"
       y1="982.36218"
       x2="95"
       y2="977.36218"
       gradientUnits="userSpaceOnUse" />
    <linearGradient
       inkscape:collect="always"
       xlink:href="#linearGradient4252"
       id="linearGradient4332"
       x1="90"
       y1="987.36218"
       x2="90"
       y2="982.36218"
       gradientUnits="userSpaceOnUse" />
    <linearGradient
       inkscape:collect="always"
       xlink:href="#linearGradient4342"
       id="linearGradient4340"
       x1="95"
       y1="1037.3622"
       x2="95"
       y2="987.36218"
       gradientUnits="userSpaceOnUse" />
    <radialGradient
       inkscape:collect="always"
       xlink:href="#linearGradient4374"
       id="radialGradient4372"
       cx="77.500008"
       cy="872.36212"
       fx="107.50004"
       fy="848.36212"
       r="30"
       gradientTransform="matrix(1.5000002,-2.3057688e-8,4.6115171e-8,2.9999981,-31.250066,-1734.7226)"
       gradientUnits="userSpaceOnUse" />
    <linearGradient
       inkscape:collect="always"
       xlink:href="#linearGradient4590"
       id="linearGradient4596"
       x1="39"
       y1="193"
       x2="39"
       y2="113"
       gradientUnits="userSpaceOnUse"
       gradientTransform="translate(-4,804.36216)" />
    <filter
       inkscape:collect="always"
       style="color-interpolation-filters:sRGB"
       id="filter4662"
       x="-0.067470812"
       width="1.1349416"
       y="-0.03725027"
       height="1.0745005">
      <feGaussianBlur
         inkscape:collect="always"
         stdDeviation="3.1041898"
         id="feGaussianBlur4664" />
    </filter>
  </defs>
  <sodipodi:namedview
     id="base"
     pagecolor="#ffffff"
     bordercolor="#666666"
     borderopacity="1.0"
     inkscape:pageopacity="0.0"
     inkscape:pageshadow="2"
     inkscape:zoom="2.8"
     inkscape:cx="109.4395"
     inkscape:cy="114.14456"
     inkscape:document-units="px"
     inkscape:current-layer="layer1"
     showgrid="true"
     units="px"
     inkscape:window-width="1880"
     inkscape:window-height="1051"
     inkscape:window-x="0"
     inkscape:window-y="0"
     inkscape:window-maximized="1"
     inkscape:object-nodes="true"
     inkscape:snap-bbox="true">
    <inkscape:grid
       type="xygrid"
       id="grid4136" />
  </sodipodi:namedview>
  <metadata
     id="metadata7">
    <rdf:RDF>
      <cc:Work
         rdf:about="">
        <dc:format>image/svg+xml</dc:format>
        <dc:type
           rdf:resource="http://purl.org/dc/dcmitype/StillImage" />
        <dc:title></dc:title>
      </cc:Work>
    </rdf:RDF>
  </metadata>
  <g
     inkscape:label="Calque 1"
     inkscape:groupmode="layer"
     id="layer1"
     transform="translate(0,-802.36216)">
    <path
       style="color:#000000;clip-rule:nonzero;display:inline;overflow:visible;visibility:visible;opacity:0.43500001;isolation:auto;mix-blend-mode:normal;color-interpolation:sRGB;color-interpolation-filters:linearRGB;solid-color:#000000;solid-opacity:1;fill:url(#linearGradient4596);fill-opacity:1;fill-rule:evenodd;stroke:none;stroke-width:0.5;stroke-linecap:square;stroke-linejoin:bevel;stroke-miterlimit:4;stroke-dasharray:none;stroke-dashoffset:0;stroke-opacity:1;marker:none;filter:url(#filter4662);color-rendering:auto;image-rendering:auto;shape-rendering:auto;text-rendering:auto;enable-background:accumulate"
       d="m 56,829.36216 0,15 -25,-10 c -1.36652,18.43338 3.614677,38.98267 25,65 l 0,5 5,0 0,5 5,0 0,5 0,0.49805 a 32.5,37.5 0 0 1 9.328125,19.50195 32.5,37.5 0 0 1 0.492187,3.6582 32.5,37.5 0 0 1 0.07617,1.54883 32.5,37.5 0 0 1 0.103516,2.24024 32.5,37.5 0 0 1 0,0.0527 32.5,37.5 0 0 1 -1.904297,12.5 A 32.5,37.5 0 0 1 66,968.90708 l 0,5.45508 -5,0 0,5 -5,0 0,5 -5,0 0,5 -10,0 0,40.00004 95,0 0,-40.00004 -10,0 0,-5 -10,0 0,-5 -5,0 0,-5 -5,0 0,-5 0,-0.49805 a 32.5,37.5 0 0 1 -8.08398,-14.50195 32.5,37.5 0 0 1 -0.86133,-3.26367 32.5,37.5 0 0 1 -0.11914,-0.5293 32.5,37.5 0 0 1 -0.48828,-2.84961 32.5,37.5 0 0 1 -0.13868,-1.02734 32.5,37.5 0 0 1 -0.19726,-2.36914 32.5,37.5 0 0 1 -0.10352,-2.14844 32.5,37.5 0 0 1 -0.0078,-0.3125 32.5,37.5 0 0 1 0.66211,-7.5 A 32.5,37.5 0 0 1 106,914.81724 l 0,-0.45508 0,-5 5,0 0,-5 5,0 0,-5 c 21.38532,-26.01733 26.36652,-46.56662 25,-65 l -25,10 0,-15 -60,0 z m -20,15 c 4.673632,2.67923 11.933637,4.62679 20,10 l 0,30 c -13.437413,-15.79755 -17.044002,-24.01615 -20,-40 z m 100,0 c -2.956,15.98385 -6.56259,24.20245 -20,40 l 0,-30 c 8.06636,-5.37321 15.32637,-7.32077 20,-10 z"
       id="rect4168-7"
       inkscape:connector-curvature="0" />
    <rect
       style="color:#000000;clip-rule:nonzero;display:inline;overflow:visible;visibility:visible;opacity:1;isolation:auto;mix-blend-mode:normal;color-interpolation:sRGB;color-interpolation-filters:linearRGB;solid-color:#000000;solid-opacity:1;fill:url(#linearGradient4258);fill-opacity:1;fill-rule:evenodd;stroke:none;stroke-width:0.5;stroke-linecap:square;stroke-linejoin:bevel;stroke-miterlimit:4;stroke-dasharray:none;stroke-dashoffset:0;stroke-opacity:1;marker:none;color-rendering:auto;image-rendering:auto;shape-rendering:auto;text-rendering:auto;enable-background:accumulate"
       id="rect4168"
       width="60"
       height="75"
       x="60"
       y="827.36218" />
    <path
       style="color:#000000;clip-rule:nonzero;display:inline;overflow:visible;visibility:visible;opacity:1;isolation:auto;mix-blend-mode:normal;color-interpolation:sRGB;color-interpolation-filters:linearRGB;solid-color:#000000;solid-opacity:1;fill:url(#linearGradient4284);fill-opacity:1;fill-rule:evenodd;stroke:none;stroke-width:0.5;stroke-linecap:square;stroke-linejoin:bevel;stroke-miterlimit:4;stroke-dasharray:none;stroke-dashoffset:0;stroke-opacity:1;marker:none;color-rendering:auto;image-rendering:auto;shape-rendering:auto;text-rendering:auto;enable-background:accumulate"
       d="m 70,907.36216 0,5.49805 a 32.5,37.5 0 0 1 10,27.00195 32.5,37.5 0 0 1 -10,27.04492 l 0,10.45508 40,0 0,-10.49805 a 32.5,37.5 0 0 1 -10,-27.00195 32.5,37.5 0 0 1 10,-27.04492 l 0,-5.45508 -40,0 z"
       id="rect4184"
       inkscape:connector-curvature="0" />
    <rect
       style="color:#000000;clip-rule:nonzero;display:inline;overflow:visible;visibility:visible;opacity:1;isolation:auto;mix-blend-mode:normal;color-interpolation:sRGB;color-interpolation-filters:linearRGB;solid-color:#000000;solid-opacity:1;fill:url(#linearGradient4268);fill-opacity:1;fill-rule:evenodd;stroke:none;stroke-width:0.5;stroke-linecap:square;stroke-linejoin:bevel;stroke-miterlimit:4;stroke-dasharray:none;stroke-dashoffset:0;stroke-opacity:1;marker:none;color-rendering:auto;image-rendering:auto;shape-rendering:auto;text-rendering:auto;enable-background:accumulate"
       id="rect4170"
       width="50"
       height="5"
       x="65"
       y="902.36218" />
    <rect
       style="color:#000000;clip-rule:nonzero;display:inline;overflow:visible;visibility:visible;opacity:1;isolation:auto;mix-blend-mode:normal;color-interpolation:sRGB;color-interpolation-filters:linearRGB;solid-color:#000000;solid-opacity:1;fill:url(#linearGradient4276);fill-opacity:1;fill-rule:evenodd;stroke:none;stroke-width:0.5;stroke-linecap:square;stroke-linejoin:bevel;stroke-miterlimit:4;stroke-dasharray:none;stroke-dashoffset:0;stroke-opacity:1;marker:none;color-rendering:auto;image-rendering:auto;shape-rendering:auto;text-rendering:auto;enable-background:accumulate"
       id="rect4172"
       width="40"
       height="5"
       x="70"
       y="907.36218" />
    <rect
       style="color:#000000;clip-rule:nonzero;display:inline;overflow:visible;visibility:visible;opacity:1;isolation:auto;mix-blend-mode:normal;color-interpolation:sRGB;color-interpolation-filters:linearRGB;solid-color:#000000;solid-opacity:1;fill:url(#linearGradient4340);fill-opacity:1;fill-rule:evenodd;stroke:none;stroke-width:0.5;stroke-linecap:square;stroke-linejoin:bevel;stroke-miterlimit:4;stroke-dasharray:none;stroke-dashoffset:0;stroke-opacity:1;marker:none;color-rendering:auto;image-rendering:auto;shape-rendering:auto;text-rendering:auto;enable-background:accumulate"
       id="rect4174"
       width="95"
       height="39.999977"
       x="45"
       y="987.36218"
       ry="0" />
    <rect
       style="color:#000000;clip-rule:nonzero;display:inline;overflow:visible;visibility:visible;opacity:1;isolation:auto;mix-blend-mode:normal;color-interpolation:sRGB;color-interpolation-filters:linearRGB;solid-color:#000000;solid-opacity:1;fill:url(#linearGradient4332);fill-opacity:1;fill-rule:evenodd;stroke:none;stroke-width:0.5;stroke-linecap:square;stroke-linejoin:bevel;stroke-miterlimit:4;stroke-dasharray:none;stroke-dashoffset:0;stroke-opacity:1;marker:none;color-rendering:auto;image-rendering:auto;shape-rendering:auto;text-rendering:auto;enable-background:accumulate"
       id="rect4176"
       width="75"
       height="5"
       x="55"
       y="982.36218" />
    <rect
       style="color:#000000;clip-rule:nonzero;display:inline;overflow:visible;visibility:visible;opacity:1;isolation:auto;mix-blend-mode:normal;color-interpolation:sRGB;color-interpolation-filters:linearRGB;solid-color:#000000;solid-opacity:1;fill:url(#linearGradient4324);fill-opacity:1;fill-rule:evenodd;stroke:none;stroke-width:0.5;stroke-linecap:square;stroke-linejoin:bevel;stroke-miterlimit:4;stroke-dasharray:none;stroke-dashoffset:0;stroke-opacity:1;marker:none;color-rendering:auto;image-rendering:auto;shape-rendering:auto;text-rendering:auto;enable-background:accumulate"
       id="rect4178"
       width="60"
       height="5"
       x="60"
       y="977.36218" />
    <rect
       style="color:#000000;clip-rule:nonzero;display:inline;overflow:visible;visibility:visible;opacity:1;isolation:auto;mix-blend-mode:normal;color-interpolation:sRGB;color-interpolation-filters:linearRGB;solid-color:#000000;solid-opacity:1;fill:url(#linearGradient4316);fill-opacity:1;fill-rule:evenodd;stroke:none;stroke-width:0.5;stroke-linecap:square;stroke-linejoin:bevel;stroke-miterlimit:4;stroke-dasharray:none;stroke-dashoffset:0;stroke-opacity:1;marker:none;color-rendering:auto;image-rendering:auto;shape-rendering:auto;text-rendering:auto;enable-background:accumulate"
       id="rect4180"
       width="50"
       height="5"
       x="65"
       y="972.36218" />
    <rect
       style="color:#000000;clip-rule:nonzero;display:inline;overflow:visible;visibility:visible;opacity:1;isolation:auto;mix-blend-mode:normal;color-interpolation:sRGB;color-interpolation-filters:linearRGB;solid-color:#000000;solid-opacity:1;fill:url(#linearGradient4308);fill-opacity:1;fill-rule:evenodd;stroke:none;stroke-width:0.5;stroke-linecap:square;stroke-linejoin:bevel;stroke-miterlimit:4;stroke-dasharray:none;stroke-dashoffset:0;stroke-opacity:1;marker:none;color-rendering:auto;image-rendering:auto;shape-rendering:auto;text-rendering:auto;enable-background:accumulate"
       id="rect4182"
       width="40"
       height="5"
       x="70"
       y="967.36218" />
    <path
       style="fill:url(#linearGradient4292);fill-opacity:1.0;fill-rule:evenodd;stroke:none;stroke-width:1px;stroke-linecap:butt;stroke-linejoin:miter;stroke-opacity:1"
       d="m 60,842.36216 -25,-10 c -1.36652,18.43338 3.614677,38.98267 25,65 l 0,-15 c -13.437413,-15.79755 -17.044002,-24.01615 -20,-40 4.673632,2.67923 11.933637,4.62679 20,10"
       id="path4209"
       inkscape:connector-curvature="0"
       sodipodi:nodetypes="cccccc" />
    <path
       style="fill:url(#linearGradient4300);fill-opacity:1;fill-rule:evenodd;stroke:none;stroke-width:1px;stroke-linecap:butt;stroke-linejoin:miter;stroke-opacity:1"
       d="m 120,842.36216 25,-10 c 1.36652,18.43338 -3.61468,38.98267 -25,65 l 0,-15 c 13.43741,-15.79755 17.044,-24.01615 20,-40 -4.67363,2.67923 -11.93364,4.62679 -20,10"
       id="path4209-6"
       inkscape:connector-curvature="0"
       sodipodi:nodetypes="cccccc" />
    <path
       style="color:#000000;clip-rule:nonzero;display:inline;overflow:visible;visibility:visible;opacity:1;isolation:auto;mix-blend-mode:normal;color-interpolation:sRGB;color-interpolation-filters:linearRGB;solid-color:#000000;solid-opacity:1;fill:url(#linearGradient4250);fill-opacity:1;fill-rule:evenodd;stroke:none;stroke-width:0.5;stroke-linecap:square;stroke-linejoin:bevel;stroke-miterlimit:4;stroke-dasharray:none;stroke-dashoffset:0;stroke-opacity:1;marker:none;color-rendering:auto;image-rendering:auto;shape-rendering:auto;text-rendering:auto;enable-background:accumulate"
       d="M 79.328125 130 A 32.5 37.5 0 0 1 80 137.5 A 32.5 37.5 0 0 1 78.095703 150 L 101.91602 150 A 32.5 37.5 0 0 1 100 137.5 A 32.5 37.5 0 0 1 100.66211 130 L 79.328125 130 z "
       transform="translate(0,802.36216)"
       id="rect4184-7" />
    <rect
       style="color:#000000;clip-rule:nonzero;display:inline;overflow:visible;visibility:visible;opacity:0.429;isolation:auto;mix-blend-mode:normal;color-interpolation:sRGB;color-interpolation-filters:linearRGB;solid-color:#000000;solid-opacity:1;fill:url(#radialGradient4372);fill-opacity:1;fill-rule:evenodd;stroke:none;stroke-width:0.5;stroke-linecap:square;stroke-linejoin:bevel;stroke-miterlimit:4;stroke-dasharray:none;stroke-dashoffset:0;stroke-opacity:1;marker:none;color-rendering:auto;image-rendering:auto;shape-rendering:auto;text-rendering:auto;enable-background:accumulate"
       id="rect4168-6"
       width="60"
       height="75"
       x="60"
       y="827.36218" />
  </g>
</svg>
