<?xml version="1.0" encoding="UTF-8" standalone="no"?>
<!-- Created with Inkscape (http://www.inkscape.org/) -->

<svg
   xmlns:dc="http://purl.org/dc/elements/1.1/"
   xmlns:cc="http://creativecommons.org/ns#"
   xmlns:rdf="http://www.w3.org/1999/02/22-rdf-syntax-ns#"
   xmlns:svg="http://www.w3.org/2000/svg"
   xmlns="http://www.w3.org/2000/svg"
   xmlns:xlink="http://www.w3.org/1999/xlink"
   xmlns:sodipodi="http://sodipodi.sourceforge.net/DTD/sodipodi-0.dtd"
   xmlns:inkscape="http://www.inkscape.org/namespaces/inkscape"
   width="32"
   height="32"
   id="svg5453"
   version="1.1"
   inkscape:version="0.91 r13725"
   sodipodi:docname="dhcp.svg"
   inkscape:export-filename="dhcp.png"
   inkscape:export-xdpi="135"
   inkscape:export-ydpi="135">
  <defs
     id="defs5455">
    <linearGradient
       inkscape:collect="always"
       id="linearGradient4185">
      <stop
         style="stop-color:#757f8c;stop-opacity:1"
         offset="0"
         id="stop4187" />
      <stop
         style="stop-color:#939ca6;stop-opacity:1"
         offset="1"
         id="stop4189" />
    </linearGradient>
    <linearGradient
       id="linearGradient4179"
       inkscape:collect="always">
      <stop
         id="stop4181"
         offset="0"
         style="stop-color:#7a8490;stop-opacity:1" />
      <stop
         id="stop4183"
         offset="1"
         style="stop-color:#838d97;stop-opacity:1" />
    </linearGradient>
    <linearGradient
       inkscape:collect="always"
       id="linearGradient4143">
      <stop
         style="stop-color:#197cf1;stop-opacity:1"
         offset="0"
         id="stop4145" />
      <stop
         style="stop-color:#20bcfa;stop-opacity:1"
         offset="1"
         id="stop4147" />
    </linearGradient>
    <linearGradient
       inkscape:collect="always"
       xlink:href="#linearGradient4143"
       id="linearGradient4149"
       x1="400.57144"
       y1="545.79797"
       x2="400.57144"
       y2="517.79797"
       gradientUnits="userSpaceOnUse"
       gradientTransform="matrix(0.85714251,0,0,0.85714251,57.224627,73.971334)" />
    <linearGradient
       inkscape:collect="always"
       xlink:href="#linearGradient4290"
       id="linearGradient4161"
       x1="16.000011"
       y1="29.999973"
       x2="16.000011"
       y2="1.999974"
       gradientUnits="userSpaceOnUse"
       gradientTransform="matrix(0.85714251,0,0,0.85714251,386.85715,516.08372)" />
    <linearGradient
       id="linearGradient4290"
       inkscape:collect="always">
      <stop
         id="stop4292"
         offset="0"
         style="stop-color:#7cbaf8;stop-opacity:1" />
      <stop
         id="stop4294"
         offset="1"
         style="stop-color:#f4fcff;stop-opacity:1" />
    </linearGradient>
    <linearGradient
       inkscape:collect="always"
       xlink:href="#linearGradient4227"
       id="linearGradient4230"
       x1="23.000042"
       y1="12.505747"
       x2="30.000011"
       y2="19.505716"
       gradientUnits="userSpaceOnUse"
       gradientTransform="matrix(0.85714251,0,0,0.85714251,386.85715,516.08372)" />
    <linearGradient
       inkscape:collect="always"
       id="linearGradient4227">
      <stop
         style="stop-color:#292c2f;stop-opacity:1"
         offset="0"
         id="stop4229" />
      <stop
         style="stop-color:#000000;stop-opacity:0;"
         offset="1"
         id="stop4231" />
    </linearGradient>
    <linearGradient
       inkscape:collect="always"
       xlink:href="#linearGradient4227"
       id="linearGradient4297"
       x1="0.04334712"
       y1="-2.9814656"
       x2="22.063898"
       y2="19.039085"
       gradientUnits="userSpaceOnUse"
       gradientTransform="matrix(0.85714251,0,0,0.85714251,386.85715,516.08372)" />
    <linearGradient
       inkscape:collect="always"
       xlink:href="#linearGradient4185"
       id="linearGradient4267"
       x1="393.57144"
       y1="545.79797"
       x2="393.57144"
       y2="543.79797"
       gradientUnits="userSpaceOnUse" />
    <linearGradient
       inkscape:collect="always"
       xlink:href="#linearGradient4179"
       id="linearGradient4269"
       x1="400.57144"
       y1="546.79797"
       x2="400.57144"
       y2="539.79797"
       gradientUnits="userSpaceOnUse" />
    <linearGradient
       inkscape:collect="always"
       xlink:href="#linearGradient4185"
       id="linearGradient4271"
       x1="407.22256"
       y1="545.79797"
       x2="407.22256"
       y2="543.79797"
       gradientUnits="userSpaceOnUse"
       gradientTransform="matrix(0.8216651,0,0,1,71.970871,0)" />
    <linearGradient
       inkscape:collect="always"
       xlink:href="#linearGradient4185"
       id="linearGradient4349"
       x1="400.57144"
       y1="546.79797"
       x2="400.57144"
       y2="542.79797"
       gradientUnits="userSpaceOnUse" />
  </defs>
  <sodipodi:namedview
     id="base"
     pagecolor="#ffffff"
     bordercolor="#666666"
     borderopacity="1.0"
     inkscape:pageopacity="0"
     inkscape:pageshadow="2"
     inkscape:zoom="16.312499"
     inkscape:cx="9.3388825"
     inkscape:cy="9.4881544"
     inkscape:document-units="px"
     inkscape:current-layer="layer1"
     showgrid="true"
     fit-margin-top="0"
     fit-margin-left="0"
     fit-margin-right="0"
     fit-margin-bottom="0"
     inkscape:window-width="1880"
     inkscape:window-height="1051"
     inkscape:window-x="0"
     inkscape:window-y="0"
     inkscape:window-maximized="1"
     inkscape:showpageshadow="false"
     borderlayer="true"
     showguides="true"
     inkscape:snap-bbox="true">
    <inkscape:grid
       type="xygrid"
       id="grid4063" />
    <sodipodi:guide
       position="1.1650391e-05,32.000026"
       orientation="32,0"
       id="guide4157" />
    <sodipodi:guide
       position="1.1650391e-05,2.6367188e-05"
       orientation="0,32"
       id="guide4159" />
    <sodipodi:guide
       position="32.000012,2.6367188e-05"
       orientation="-32,0"
       id="guide4161" />
    <sodipodi:guide
       position="32.000012,32.000026"
       orientation="0,-32"
       id="guide4163" />
    <sodipodi:guide
       position="2.0000117,30.000026"
       orientation="28,0"
       id="guide4167" />
    <sodipodi:guide
       position="2.0000117,2.0000264"
       orientation="0,28"
       id="guide4169" />
    <sodipodi:guide
       position="30.000012,2.0000264"
       orientation="-28,0"
       id="guide4171" />
    <sodipodi:guide
       position="30.000012,30.000026"
       orientation="0,-28"
       id="guide4173" />
    <sodipodi:guide
       position="2.0000117,30.000026"
       orientation="28,0"
       id="guide4181" />
    <sodipodi:guide
       position="2.0000117,2.0000264"
       orientation="0,14"
       id="guide4183" />
    <sodipodi:guide
       position="16.000012,2.0000264"
       orientation="-28,0"
       id="guide4185" />
    <sodipodi:guide
       position="16.000012,30.000026"
       orientation="0,-14"
       id="guide4187" />
    <sodipodi:guide
       position="9.0000117,23.000026"
       orientation="14,0"
       id="guide4193" />
    <sodipodi:guide
       position="9.0000117,9.0000264"
       orientation="0,14.000031"
       id="guide4195" />
    <sodipodi:guide
       position="23.000042,9.0000264"
       orientation="-14,0"
       id="guide4197" />
    <sodipodi:guide
       position="23.000042,23.000026"
       orientation="0,-14.000031"
       id="guide4199" />
  </sodipodi:namedview>
  <metadata
     id="metadata5458">
    <rdf:RDF>
      <cc:Work
         rdf:about="">
        <dc:format>image/svg+xml</dc:format>
        <dc:type
           rdf:resource="http://purl.org/dc/dcmitype/StillImage" />
        <dc:title />
      </cc:Work>
    </rdf:RDF>
  </metadata>
  <g
     inkscape:label="Capa 1"
     inkscape:groupmode="layer"
     id="layer1"
     transform="translate(-384.57143,-515.798)">
    <rect
       style="color:#000000;clip-rule:nonzero;display:inline;overflow:visible;visibility:visible;opacity:1;isolation:auto;mix-blend-mode:normal;color-interpolation:sRGB;color-interpolation-filters:linearRGB;solid-color:#000000;solid-opacity:1;fill:url(#linearGradient4267);fill-opacity:1;fill-rule:nonzero;stroke:none;stroke-width:1;stroke-linecap:butt;stroke-linejoin:miter;stroke-miterlimit:4;stroke-dasharray:2, 2;stroke-dashoffset:10;stroke-opacity:1;marker:none;color-rendering:auto;image-rendering:auto;shape-rendering:auto;text-rendering:auto;enable-background:accumulate"
       id="rect4175"
       width="8.9999809"
       height="1.9999737"
       x="388.57144"
       y="543.79797"
       ry="2.6367199e-05" />
    <rect
       style="color:#000000;clip-rule:nonzero;display:inline;overflow:visible;visibility:visible;opacity:1;isolation:auto;mix-blend-mode:normal;color-interpolation:sRGB;color-interpolation-filters:linearRGB;solid-color:#000000;solid-opacity:1;fill:url(#linearGradient4271);fill-opacity:1;fill-rule:nonzero;stroke:none;stroke-width:1;stroke-linecap:butt;stroke-linejoin:miter;stroke-miterlimit:4;stroke-dasharray:2, 2;stroke-dashoffset:10;stroke-opacity:1;marker:none;color-rendering:auto;image-rendering:auto;shape-rendering:auto;text-rendering:auto;enable-background:accumulate"
       id="rect4177"
       width="8.9999886"
       height="2"
       x="403.57144"
       y="543.79797"
       ry="2.6367199e-05" />
    <rect
       style="color:#000000;clip-rule:nonzero;display:inline;overflow:visible;visibility:visible;opacity:1;isolation:auto;mix-blend-mode:normal;color-interpolation:sRGB;color-interpolation-filters:linearRGB;solid-color:#000000;solid-opacity:1;fill:url(#linearGradient4269);fill-opacity:1.0;fill-rule:nonzero;stroke:none;stroke-width:1;stroke-linecap:butt;stroke-linejoin:miter;stroke-miterlimit:4;stroke-dasharray:2, 2;stroke-dashoffset:10;stroke-opacity:1;marker:none;color-rendering:auto;image-rendering:auto;shape-rendering:auto;text-rendering:auto;enable-background:accumulate"
       id="rect4179"
       width="2"
       height="4"
       x="399.57144"
       y="539.79797"
       ry="2.6367199e-05" />
    <g
       id="g4167"
       transform="translate(0,-1.0000063)">
      <rect
         ry="12"
         y="517.79797"
         x="388.57144"
         height="24.000013"
         width="24"
         id="rect4130"
         style="opacity:1;fill:url(#linearGradient4149);fill-opacity:1;stroke:none" />
      <path
         sodipodi:nodetypes="cccccccccccccccccscccc"
         inkscape:connector-curvature="0"
         id="path4286"
         d="m 402.79464,518.01062 -2.54966,0.32645 -3.54409,2.04576 -1.28739,2.22991 c 0,0 -1.6919,1.19167 -1.94698,1.12333 -2.15725,-0.0253 -3.31595,0.56971 -3.92578,1.32589 -0.25789,0.60269 -0.46023,1.23398 -0.61775,1.88337 -0.004,0.65206 0.13895,1.15848 0.13895,1.15848 6.0519,5.44825 12.10379,7.79674 18.15569,11.69363 0.38107,-0.25315 0.74499,-0.52801 1.09319,-0.82198 0.02,-0.0168 0.0387,-0.0349 0.0586,-0.0519 0.30845,-0.2639 0.60246,-0.54508 0.88225,-0.83873 0.062,-0.0649 0.1203,-0.13293 0.1808,-0.19922 0.2423,-0.26605 0.47376,-0.54138 0.69141,-0.82868 0.0492,-0.0648 0.0978,-0.1301 0.14565,-0.19587 0.23613,-0.32533 0.45829,-0.66205 0.66127,-1.01116 0.0152,-0.026 0.0319,-0.0509 0.0469,-0.077 0.91273,-1.59757 1.46897,-3.42761 1.56361,-5.38392 2.7e-4,-0.006 10e-4,-0.0111 0.002,-0.0167 l 0,-0.002 -1.56366,-6.54572 c -1.714,-2.98977 -4.67291,-5.16051 -8.18471,-5.81417 z"
         style="opacity:0.2;fill:url(#linearGradient4297);fill-opacity:1;fill-rule:evenodd;stroke:none;stroke-width:1px;stroke-linecap:butt;stroke-linejoin:miter;stroke-opacity:1" />
      <path
         inkscape:connector-curvature="0"
         id="path4219"
         d="m 411.72432,525.37669 -3.6914,5.7087 3.53069,3.53069 c 0.64416,-1.47425 1.00781,-3.10103 1.00781,-4.81808 0,-1.56496 -0.30684,-3.05289 -0.8471,-4.42131 z"
         style="opacity:0.2;fill:url(#linearGradient4230);fill-opacity:1;fill-rule:evenodd;stroke:none;stroke-width:1px;stroke-linecap:butt;stroke-linejoin:miter;stroke-opacity:1" />
      <path
         inkscape:connector-curvature="0"
         id="path34"
         d="m 400.40569,517.80638 c -0.91926,0.0125 -1.80963,0.13182 -2.66685,0.33817 -0.22567,0.20239 -0.5587,0.305 -0.93248,0.29464 -0.13379,0.12798 -0.1029,0.36673 -0.17578,0.54241 -0.0614,0.14759 -0.27761,0.30554 -0.42522,0.29297 -0.1092,-0.009 -0.23402,-0.16279 -0.23438,-0.26451 -3.9e-4,-0.1228 0.17069,-0.19126 0.077,-0.32812 -0.95525,0.3872 -1.84374,0.89771 -2.65681,1.50502 0.21807,-0.0803 0.45855,-0.21529 0.65625,-0.21931 0.0325,-3.8e-4 0.0624,0.003 0.0921,0.01 0.13279,0.0348 0.48275,0.41808 0.19085,0.54241 -0.0277,0.012 -0.42805,0.0555 -0.49721,0.0435 -0.10167,-0.0171 -0.16213,-0.15755 -0.26451,-0.17578 -0.17195,-0.0298 -0.39058,0.14885 -0.53906,0.0686 -1.63526,1.31997 -2.90431,3.06424 -3.66462,5.06585 0.0698,-0.0403 0.14114,-0.0827 0.20424,-0.11552 0.21422,-0.11136 0.39513,-0.29136 0.64453,-0.30803 0.12441,-0.003 0.30408,0.0335 0.42355,0.0586 0.11027,0.0226 0.19923,0.0966 0.29464,0.1038 0.27079,0.0207 0.33487,-0.19005 0.55581,-0.30804 0.22823,0.0322 0.37981,-0.0382 0.58593,-0.0151 0.14054,0.0155 0.24206,0.1657 0.35156,0.17411 0.0921,0.009 0.17371,-0.0856 0.26284,-0.072 0.0866,0.0134 0.23537,0.20222 0.24944,0.30804 0.0177,0.13173 -0.0964,0.25041 -0.0586,0.39509 0.13798,0.14054 0.38875,0.16848 0.58593,0.24944 0.1284,-0.1058 0.0171,-0.3022 0,-0.45536 -0.003,-0.0675 0.009,-0.12704 0,-0.18917 -0.012,-0.10547 -0.0579,-0.20269 -0.0586,-0.29297 -0.003,-0.41693 0.3364,-0.61215 0.61607,-0.77678 0.12106,-0.0717 0.2164,-0.19693 0.32143,-0.24945 0.14834,-0.0744 0.25887,-0.0917 0.3817,-0.16071 0.22194,-0.12467 0.4124,-0.22535 0.58593,-0.36663 0.0802,-0.18904 0.009,-0.44263 0.0151,-0.62946 0.0803,-0.0492 0.14924,0.0221 0.23438,0.0151 0.13393,-0.0279 0.14508,-0.21749 0.22098,-0.29297 0.0441,-0.0433 0.16449,-0.0743 0.21931,-0.11718 0.13349,-0.10472 0.1764,-0.26291 0.29297,-0.30804 0.0417,-0.017 0.13836,-0.0124 0.20424,-0.0301 0.0868,-0.0231 0.21026,-0.12567 0.35156,-0.17411 0.0921,-0.0321 0.30301,-0.0384 0.33817,-0.0737 0.0433,-0.0441 -6e-5,-0.16821 0.0151,-0.23437 0.0711,-0.33075 0.56936,-0.40091 0.86384,-0.51228 0.20641,-0.0783 0.41773,-0.22142 0.64453,-0.17746 -0.0444,0.1572 -0.25512,0.10209 -0.2193,0.29297 0.0494,0.2649 0.40366,-0.0765 0.49721,-0.11551 0.17876,-0.0753 0.48532,-0.12083 0.71986,-0.20592 0.20567,-0.0753 0.57388,-0.18999 0.38002,-0.42522 -0.16164,-0.009 -0.2391,0.18919 -0.38002,0.24944 -0.0973,0.0155 -0.0793,-0.0809 -0.16239,-0.0887 -0.0789,-0.009 -0.12314,0.0724 -0.20424,0.0586 -0.0806,-0.0134 -0.1933,-0.1401 -0.20591,-0.23438 -0.0322,-0.24458 0.20674,-0.34493 0.30803,-0.52734 -0.0669,-0.22125 -0.37253,-0.0457 -0.55747,-0.13225 0.0177,-0.13172 0.15417,-0.22259 0.30803,-0.24777 0.12613,-0.0213 0.40871,-0.0103 0.48382,0.0569 0.0435,0.0369 0.003,0.12941 0.0737,0.19085 0.0747,0.0675 0.16594,0.0611 0.26283,0.0452 0.0351,-0.16696 -0.21655,-0.12567 -0.18917,-0.23605 0.19791,-0.12947 0.5194,-0.0226 0.76172,-0.0586 0.13948,-0.0206 0.28655,-0.11961 0.41015,-0.18917 0.11757,-0.0669 0.27038,-0.18314 0.39509,-0.0737 0.0339,0.11964 -0.10918,0.15982 -0.17578,0.21931 -0.22418,0.19942 -0.45521,0.42798 -0.62946,0.65959 0.10691,0.10429 0.30125,0.0521 0.48214,0.0737 0.0707,0.009 0.1596,0.0303 0.23438,0.0435 0.0873,0.0155 0.18103,0.0107 0.24944,0.0285 0.12307,0.0303 0.15605,0.16239 0.2779,0.16239 0.20045,-3.6e-4 0.20228,-0.21779 0.0887,-0.35324 0.0358,-0.13829 0.092,-0.20949 0.0435,-0.30636 -0.0903,-0.1806 -0.42158,-0.009 -0.43861,-0.23437 -0.0109,-0.14609 0.12282,-0.14015 0.17578,-0.24944 -0.0241,-0.28228 0.23155,-0.3028 0.20424,-0.55581 -0.012,-0.10582 -0.1017,-0.10676 -0.17578,-0.20591 -0.0385,-0.0507 -0.0558,-0.15159 -0.10212,-0.19085 -0.15324,-0.12947 -0.46496,-0.10444 -0.48382,-0.35156 -0.002,-0.0836 0.009,-0.15861 0.0167,-0.23773 -0.14128,-0.007 -0.28099,-0.0198 -0.42355,-0.0218 l -0.33147,0 z m -5.7087,2.87444 c 0.0684,0.009 0.1514,0.0824 0.23437,0.0887 0.0783,0.003 0.14274,-0.043 0.19085,-0.0301 0.12253,0.0322 0.17372,0.21735 0.0586,0.30804 -0.0958,0.012 -0.13371,-0.0412 -0.20591,-0.0285 -0.199,0.0339 -0.27484,0.42306 -0.42355,0.41016 -0.14025,-0.012 -0.21607,-0.35363 -0.0737,-0.45536 0.009,-0.0888 -0.0647,-0.10308 -0.0603,-0.19085 0.0423,-0.0543 0.16267,-0.11198 0.27958,-0.10212 z m -0.6596,0.0452 c 0.0408,0.002 0.0714,0.0107 0.087,0.0285 -0.0195,0.15616 -0.14222,0.14651 -0.26283,0.21931 -0.2083,0.12573 -0.32882,0.31736 -0.39509,0.58594 -0.0192,0.0783 -0.22395,0.28522 -0.3231,0.26451 -0.23233,-0.0489 0.0642,-0.47732 0.11718,-0.54241 0.0585,-0.0722 0.13683,-0.13601 0.20592,-0.21931 0.0669,-0.0807 0.11121,-0.18961 0.17578,-0.23438 0.0707,-0.0489 0.27268,-0.10682 0.39509,-0.10212 z m 1.73437,0.52735 c 0.0744,0.002 0.14024,0.0133 0.17076,0.0435 -0.0477,0.19349 -0.46364,0.1419 -0.61607,0.072 0.01,-0.0729 0.12338,-0.0925 0.21931,-0.10212 0.0675,-0.003 0.15171,-0.0155 0.226,-0.0134 z m -0.94921,0.35658 c 0.0495,-0.002 0.1003,0.01 0.15234,0.0234 -0.13485,0.11278 -0.28072,0.17617 -0.51228,0.24944 -0.11134,0.0352 -0.30423,0.0792 -0.3231,-0.0452 -0.0231,-0.1524 0.16283,-0.11694 0.26451,-0.13058 0.12799,-0.0177 0.26858,-0.0923 0.41853,-0.0971 z m 14.71707,0.21763 c 0.011,0.1101 0.0129,0.21462 -0.0168,0.33315 -0.0399,0.15873 -0.18276,0.30268 -0.17578,0.44029 0.009,0.0707 0.0865,0.13874 0.1038,0.23438 0.009,0.0507 -0.0238,0.15968 0,0.20591 0.0744,0.14428 0.27767,0.022 0.41015,0.0435 0.12944,0.0208 0.27935,0.20651 0.2779,0.35156 -0.002,0.10101 -0.0967,0.2693 -0.16071,0.36663 -0.12772,0.19422 -0.30068,0.20277 -0.48382,0.30636 -0.15273,0.0866 -0.21849,0.23108 -0.30803,0.3817 -0.097,0.16267 -0.15715,0.26153 -0.11719,0.49721 -0.13093,0.25969 -0.32979,0.41887 -0.601,0.54241 -0.0802,0.0362 -0.18923,0.0488 -0.26284,0.10212 -0.0585,0.0422 -0.0925,0.15587 -0.17578,0.24944 -0.10275,0.11435 -0.21048,0.16207 -0.26451,0.24944 -0.0417,0.0675 -0.0559,0.20235 -0.10212,0.29297 -0.0626,0.12304 -0.19577,0.18335 -0.2779,0.30804 -0.0375,0.0577 -0.0624,0.17396 -0.10379,0.24944 -0.0928,0.16868 -0.25142,0.29028 -0.23438,0.43861 0.017,0.14339 0.17975,0.16798 0.19085,0.29297 0.003,0.0706 -0.0464,0.11385 -0.0435,0.19085 0.003,0.11242 0.0782,0.19138 0.0871,0.2779 0.0218,0.21754 -0.0746,0.30495 -0.11552,0.45368 -0.0195,0.0711 -0.0113,0.1504 -0.0301,0.20592 -0.0358,0.10887 -0.18785,0.20774 -0.19085,0.3365 -0.002,0.0915 0.0944,0.16456 0.10212,0.29296 0.003,0.0885 -0.0441,0.18313 -0.0285,0.26451 0.0311,0.15944 0.31637,0.34487 0.44029,0.46875 0.16575,0.16575 0.38227,0.29413 0.45368,0.46875 0.0603,0.14833 0.0603,0.34193 0.17578,0.45369 0.0855,0.0825 0.22702,0.13345 0.3365,0.2193 0.1021,0.0802 0.21395,0.14935 0.3231,0.23438 0.17835,0.1395 0.44746,0.41819 0.73159,0.39676 0.14833,-0.0109 0.30046,-0.13249 0.46875,-0.16239 0.17314,-0.0309 0.39788,-0.0465 0.57254,-0.0285 0.13379,0.0134 0.27108,0.0934 0.41016,0.0871 0.14684,-0.009 0.31527,-0.11797 0.48214,-0.19085 0.26368,-0.11476 0.64715,-0.25735 1.03292,-0.23605 0.0738,-0.54029 0.12556,-1.0878 0.12556,-1.649 0,-2.27065 -0.63554,-4.38251 -1.72265,-6.18917 -0.0505,-0.004 -0.0969,-0.0104 -0.15235,-0.008 -0.14866,0.009 -0.39288,0.009 -0.39509,-0.17578 -10e-4,-0.15198 0.14336,-0.18554 0.31641,-0.19587 -0.32368,-0.49527 -0.6867,-0.96078 -1.07812,-1.40123 z m -18.3164,5.49777 c -0.24339,0.0134 -0.40237,0.0246 -0.54074,0.0871 -0.31703,0.14429 -0.2558,0.57331 -0.57254,0.67467 -0.10956,0.0351 -0.25942,0.0363 -0.38003,0.0586 -0.10406,0.019 -0.2309,0.0759 -0.33817,0.0737 -0.1269,-0.003 -0.34807,-0.12484 -0.42355,-0.20591 -0.0519,-0.0563 -0.13697,-0.2528 -0.19252,-0.38337 -0.0765,0.4218 -0.12924,0.85116 -0.16071,1.28738 0.026,0.005 0.0534,0.0117 0.0753,0.0117 0.13874,8.4e-4 0.28715,-0.14312 0.44029,-0.14732 0.35921,-0.01 0.51517,0.4571 0.80525,0.60101 0.0729,0.0362 0.1689,0.0378 0.26283,0.0586 0.0759,0.017 0.13286,0.0489 0.20592,0.0737 0.15494,0.0525 0.3448,0.0469 0.46875,0.10212 0.18678,0.0829 0.3232,0.43339 0.48381,0.52735 0.009,0.0947 -0.0175,0.22236 0.0151,0.29296 0.0759,0.10289 0.18303,0.0802 0.30804,0.14733 0.14953,0.0806 0.19476,0.28791 0.33649,0.35156 0.0489,0.0218 0.17216,0.0198 0.24944,0.0435 0.19421,0.0588 0.2571,0.28351 0.42355,0.23438 0.10919,-0.0321 0.10117,-0.14508 0.11887,-0.24944 0.0722,-0.0783 0.15034,-0.20203 0.26283,-0.20424 0.18203,-0.009 0.19827,0.18815 0.26451,0.36495 0.0374,0.0999 0.13519,0.18756 0.16071,0.29297 0.0453,0.18204 0.0233,0.72653 -0.0151,0.83538 -0.0459,0.13348 -0.22674,0.19016 -0.33817,0.33817 -0.0525,0.0693 -0.0775,0.17053 -0.11719,0.21931 -0.0717,0.0873 -0.17904,0.11024 -0.2327,0.19084 -0.0303,0.0453 -0.0593,0.14287 -0.0887,0.20425 -0.088,0.18642 -0.20626,0.31859 -0.13225,0.54241 0.0309,0.0921 0.17542,0.15442 0.17578,0.26283 3.7e-4,0.12759 -0.27194,0.24185 -0.29297,0.3817 -0.0155,0.10406 0.0842,0.2898 0.11719,0.42522 0.0242,0.10233 0.21759,0.16628 0.2779,0.23437 0.10286,0.11544 0.18561,0.27853 0.27957,0.42355 0.18576,0.28524 0.33141,0.63269 0.51228,0.90904 0.0956,0.14474 0.22928,0.27499 0.29297,0.42523 0.0326,0.0759 0.0286,0.16625 0.0586,0.23437 0.10471,0.23634 0.56664,0.48371 0.80525,0.60101 0.11172,0.0543 0.23569,0.0738 0.33817,0.13058 0.15529,0.0866 0.46233,0.3192 0.54073,0.45535 0.0699,0.12239 0.11337,0.41977 0.14733,0.6144 0.0453,0.25717 0.002,0.45473 0.0151,0.73326 0.009,0.15064 0.057,0.3027 0.0586,0.45368 7.9e-4,0.0529 -0.0278,0.0917 -0.0301,0.14565 -0.003,0.18277 0.0457,0.38865 0.0301,0.57254 -0.001,0.0394 -0.005,0.0691 -0.0117,0.1038 1.43792,0.60692 3.02027,0.94252 4.68415,0.94252 0.17413,0 0.34334,-0.0195 0.51562,-0.0268 0.004,-0.0273 0.008,-0.0548 0.0134,-0.077 0.0531,-0.14865 0.18984,-0.19815 0.27791,-0.30804 0.0668,-0.0829 0.0974,-0.17998 0.16071,-0.26283 0.0688,-0.0903 0.13042,-0.16995 0.17578,-0.24945 0.0433,-0.26749 -0.10659,-0.45388 -0.0435,-0.68805 0.07,-0.26304 0.43316,-0.42374 0.68806,-0.54242 0.0877,-0.0407 0.17803,-0.10746 0.24944,-0.13225 0.17641,-0.0615 0.39618,-0.0282 0.55748,-0.087 0.2745,-0.10047 0.30324,-0.39444 0.43862,-0.64453 0.0639,-0.11844 0.1482,-0.23707 0.16071,-0.32143 0.0109,-0.0759 -0.0273,-0.14664 -0.0151,-0.23605 0.0134,-0.0885 0.0926,-0.1656 0.11719,-0.26284 0.0322,-0.12691 0.0452,-0.31231 0.0452,-0.45368 0,-0.11603 -0.0537,-0.21844 -0.0586,-0.3231 -0.0189,-0.38003 0.13729,-0.42265 0.2779,-0.62947 0.0705,-0.10275 0.0964,-0.21934 0.14565,-0.29296 0.23604,-0.35218 0.64569,-0.52233 0.61607,-1.05469 -0.01,-0.17617 -0.11986,-0.5749 -0.24944,-0.63114 -0.0741,-0.0322 -0.2443,-0.003 -0.35156,-0.0435 -0.3463,-0.12918 -0.55023,-0.55851 -0.90904,-0.58593 -0.0766,-0.009 -0.14647,0.0315 -0.2327,0.0301 -0.14204,-0.009 -0.35671,-0.0995 -0.51396,-0.11719 -0.0999,-0.0109 -0.23298,0.0297 -0.29296,0 -0.0915,-0.0445 -0.10137,-0.21256 -0.17579,-0.26283 -0.0591,-0.0405 -0.17334,-0.0541 -0.26283,-0.0887 -0.14428,-0.0555 -0.25874,-0.12065 -0.42522,-0.13225 -0.0514,-0.003 -0.11596,0.0245 -0.17578,0.0151 -0.0921,-0.0155 -0.16445,-0.12403 -0.24945,-0.17578 -0.10646,-0.0648 -0.20542,-0.0967 -0.24944,-0.18917 0.0962,-0.31556 -0.16968,-0.40361 -0.23437,-0.58594 -0.031,-0.0855 -0.0164,-0.1883 -0.0435,-0.26451 -0.0381,-0.10919 -0.14618,-0.17176 -0.26451,-0.26283 -0.21202,-0.16319 -0.40013,-0.31586 -0.70312,-0.35324 -0.1332,-0.017 -0.26431,0.04 -0.42523,0.0301 -0.17054,-0.0109 -0.3847,-0.16057 -0.51227,-0.30637 -0.12401,-0.14233 -0.18494,-0.27011 -0.29297,-0.33817 -0.10234,-0.0657 -0.23815,-0.064 -0.30804,-0.13058 -0.0311,-0.029 -0.0253,-0.0789 -0.0586,-0.14732 -0.0514,-0.10657 -0.13775,-0.16528 -0.0737,-0.29297 -0.11675,-0.06 -0.12001,0.11089 -0.24777,0.0887 -0.11387,-0.16164 -0.21014,-0.23825 -0.46875,-0.19085 -0.11843,0.0219 -0.1851,0.17206 -0.3231,0.17578 -0.11316,0.009 -0.2021,-0.12609 -0.35156,-0.14732 -0.1128,-0.0155 -0.24114,0.0304 -0.32143,0.0151 -0.12506,-0.0249 -0.16367,-0.12912 -0.2779,-0.20424 -0.0838,-0.055 -0.24599,-0.14881 -0.29297,-0.14732 -0.14728,0.009 -0.25227,0.31354 -0.45536,0.20591 -0.0987,-0.12506 0.16066,-0.19102 0.0435,-0.30803 -0.0888,-0.0888 -0.16337,0.0397 -0.23438,0.0887 -0.0813,0.0562 -0.15786,0.11239 -0.24777,0.14565 -0.20125,0.0753 -0.32653,0.0358 -0.48381,0.11719 -0.14564,0.0754 -0.15186,0.20169 -0.23438,0.35156 -0.0675,0.12279 -0.22173,0.30063 -0.3231,0.30804 -0.12279,0.009 -0.24019,-0.17115 -0.35156,-0.21931 -0.33553,-0.14534 -0.49817,0.12853 -0.77679,0.13225 -0.25858,0.009 -0.62738,-0.41649 -0.61439,-0.65959 0.003,-0.14834 0.0847,-0.37398 0.10212,-0.55748 0.0155,-0.14594 0.1155,-0.23341 0.11718,-0.36663 0.003,-0.17796 -0.23611,-0.31539 -0.35156,-0.3365 -0.27374,-0.0503 -0.65391,0.11049 -0.96763,-0.0151 -0.06,-0.0993 0.0702,-0.16793 0.10379,-0.26451 0.0189,-0.0549 0.009,-0.12879 0.0285,-0.18918 0.0348,-0.0933 0.13203,-0.16564 0.17578,-0.2645 0.0327,-0.0754 0.0408,-0.1843 0.0737,-0.27791 0.0382,-0.10657 0.10895,-0.17469 0.11719,-0.24944 0.0109,-0.0987 -0.0265,-0.21282 -0.10379,-0.2779 z m 3.91741,3.10212 c 0.0993,0.009 0.11159,0.21453 0.01,0.23103 -0.10955,0.0171 -0.16477,-0.17183 -0.0586,-0.22099 0.0177,-0.009 0.0343,-0.011 0.0485,-0.01 z"
         style="fill:url(#linearGradient4161);fill-opacity:1;fill-rule:nonzero;stroke:none" />
    </g>
    <rect
       style="color:#000000;clip-rule:nonzero;display:inline;overflow:visible;visibility:visible;opacity:1;isolation:auto;mix-blend-mode:normal;color-interpolation:sRGB;color-interpolation-filters:linearRGB;solid-color:#000000;solid-opacity:1;fill:url(#linearGradient4349);fill-opacity:1.0;fill-rule:nonzero;stroke:none;stroke-width:1;stroke-linecap:butt;stroke-linejoin:miter;stroke-miterlimit:4;stroke-dasharray:2, 2;stroke-dashoffset:10;stroke-opacity:1;marker:none;color-rendering:auto;image-rendering:auto;shape-rendering:auto;text-rendering:auto;enable-background:accumulate"
       id="rect4173"
       width="7.9999886"
       height="4"
       x="396.57144"
       y="542.79797"
       ry="1.0000263" />
  </g>
</svg>
