<?xml version="1.0" encoding="UTF-8" standalone="no"?>
<!-- Created with Inkscape (http://www.inkscape.org/) -->

<svg
   xmlns:dc="http://purl.org/dc/elements/1.1/"
   xmlns:cc="http://creativecommons.org/ns#"
   xmlns:rdf="http://www.w3.org/1999/02/22-rdf-syntax-ns#"
   xmlns:svg="http://www.w3.org/2000/svg"
   xmlns="http://www.w3.org/2000/svg"
   xmlns:xlink="http://www.w3.org/1999/xlink"
   xmlns:sodipodi="http://sodipodi.sourceforge.net/DTD/sodipodi-0.dtd"
   xmlns:inkscape="http://www.inkscape.org/namespaces/inkscape"
   width="48"
   height="48"
   id="svg5453"
   version="1.1"
   inkscape:version="0.91 r13725"
   sodipodi:docname="sogo.svg"
   inkscape:export-filename="sogo.png"
   inkscape:export-xdpi="90"
   inkscape:export-ydpi="90">
  <defs
     id="defs5455">
    <linearGradient
       inkscape:collect="always"
       id="linearGradient4227">
      <stop
         style="stop-color:#292c2f;stop-opacity:1"
         offset="0"
         id="stop4229" />
      <stop
         style="stop-color:#000000;stop-opacity:0;"
         offset="1"
         id="stop4231" />
    </linearGradient>
    <linearGradient
       gradientTransform="translate(-5.8399973e-6,0)"
       gradientUnits="userSpaceOnUse"
       y2="517.79797"
       x2="400.57144"
       y1="545.79797"
       x1="400.57144"
       id="linearGradient4238"
       xlink:href="#linearGradient4303"
       inkscape:collect="always" />
    <linearGradient
       inkscape:collect="always"
       id="linearGradient4303">
      <stop
         style="stop-color:#c6cdd1;stop-opacity:1"
         offset="0"
         id="stop4305" />
      <stop
         style="stop-color:#e0e5e7;stop-opacity:1"
         offset="1"
         id="stop4307" />
    </linearGradient>
    <style
       id="current-color-scheme"
       type="text/css">
      .ColorScheme-Text {
        color:#4d4d4d;
      }
      .ColorScheme-Background {
        color:#eff0f1;
      }
      .ColorScheme-Highlight {
        color:#3daee9;
      }
      .ColorScheme-ViewText {
        color:#31363b;
      }
      .ColorScheme-ViewBackground {
        color:#fcfcfc;
      }
      .ColorScheme-ViewHover {
        color:#93cee9;
      }
      .ColorScheme-ViewFocus{
        color:#3daee9;
      }
      .ColorScheme-ButtonText {
        color:#31363b;
      }
      .ColorScheme-ButtonBackground {
        color:#eff0f1;
      }
      .ColorScheme-ButtonHover {
        color:#93cee9;
      }
      .ColorScheme-ButtonFocus{
        color:#3daee9;
      }
      </style>
    <linearGradient
       inkscape:collect="always"
       xlink:href="#linearGradient4227"
       id="linearGradient4277"
       x1="420.11432"
       y1="530.79071"
       x2="436.91431"
       y2="547.5907"
       gradientUnits="userSpaceOnUse"
       gradientTransform="matrix(1.6666661,0,0,1.6666661,-692.19027,-875.65089)" />
    <linearGradient
       inkscape:collect="always"
       xlink:href="#linearGradient4227"
       id="linearGradient4260"
       x1="399.87146"
       y1="520.59796"
       x2="413.87146"
       y2="534.59796"
       gradientUnits="userSpaceOnUse"
       gradientTransform="matrix(1.4285708,0,0,1.4285708,-548.24467,-735.71105)" />
  </defs>
  <sodipodi:namedview
     id="base"
     pagecolor="#ffffff"
     bordercolor="#666666"
     borderopacity="1.0"
     inkscape:pageopacity="0"
     inkscape:pageshadow="2"
     inkscape:zoom="15.999999"
     inkscape:cx="14.141748"
     inkscape:cy="12.023804"
     inkscape:document-units="px"
     inkscape:current-layer="layer1-9"
     showgrid="true"
     fit-margin-top="0"
     fit-margin-left="0"
     fit-margin-right="0"
     fit-margin-bottom="0"
     inkscape:window-width="1880"
     inkscape:window-height="1051"
     inkscape:window-x="0"
     inkscape:window-y="0"
     inkscape:window-maximized="1"
     inkscape:showpageshadow="false"
     borderlayer="true"
     showguides="true"
     inkscape:object-nodes="true"
     inkscape:snap-global="true">
    <inkscape:grid
       type="xygrid"
       id="grid4063" />
    <sodipodi:guide
       position="1.1650391e-05,47.999996"
       orientation="4,0"
       id="guide4146" />
    <sodipodi:guide
       position="1.1650391e-05,43.999996"
       orientation="0,48"
       id="guide4148" />
    <sodipodi:guide
       position="48.000012,43.999996"
       orientation="-4,0"
       id="guide4150" />
    <sodipodi:guide
       position="48.000012,47.999996"
       orientation="0,-48"
       id="guide4152" />
    <sodipodi:guide
       position="1.1650391e-05,4.0000264"
       orientation="4,0"
       id="guide4154" />
    <sodipodi:guide
       position="1.1650391e-05,2.6367188e-05"
       orientation="0,48"
       id="guide4156" />
    <sodipodi:guide
       position="48.000012,2.6367188e-05"
       orientation="-4,0"
       id="guide4158" />
    <sodipodi:guide
       position="48.000012,4.0000264"
       orientation="0,-48"
       id="guide4160" />
    <sodipodi:guide
       position="48.000012,48.000026"
       orientation="0,-4"
       id="guide4162" />
    <sodipodi:guide
       position="44.000012,48.000026"
       orientation="48,0"
       id="guide4164" />
    <sodipodi:guide
       position="44.000012,2.6367188e-05"
       orientation="0,4"
       id="guide4166" />
    <sodipodi:guide
       position="48.000012,2.6367188e-05"
       orientation="-48,0"
       id="guide4168" />
    <sodipodi:guide
       position="4.0000422,48.000026"
       orientation="0,-4"
       id="guide4170" />
    <sodipodi:guide
       position="4.2167969e-05,48.000026"
       orientation="48,0"
       id="guide4172" />
    <sodipodi:guide
       position="4.2167969e-05,2.6367188e-05"
       orientation="0,4"
       id="guide4174" />
    <sodipodi:guide
       position="4.0000422,2.6367188e-05"
       orientation="-48,0"
       id="guide4176" />
    <sodipodi:guide
       position="20.000012,43.999996"
       orientation="39.999969,0"
       id="guide4153" />
    <sodipodi:guide
       position="20.000012,4.0000264"
       orientation="0,8"
       id="guide4155" />
    <sodipodi:guide
       position="28.000012,4.0000264"
       orientation="-39.999969,0"
       id="guide4157" />
    <sodipodi:guide
       position="28.000012,43.999996"
       orientation="0,-8"
       id="guide4159" />
  </sodipodi:namedview>
  <metadata
     id="metadata5458">
    <rdf:RDF>
      <cc:Work
         rdf:about="">
        <dc:format>image/svg+xml</dc:format>
        <dc:type
           rdf:resource="http://purl.org/dc/dcmitype/StillImage" />
        <dc:title />
      </cc:Work>
    </rdf:RDF>
  </metadata>
  <g
     inkscape:label="Capa 1"
     inkscape:groupmode="layer"
     id="layer1"
     transform="translate(-384.57143,-499.798)"
     style="display:inline">
    <g
       transform="matrix(1.4285708,0,0,1.4285708,-163.67324,-235.91308)"
       id="layer1-7"
       inkscape:label="Capa 1">
      <g
         transform="translate(-2.5589574e-6,2.2518306e-5)"
         id="layer1-9"
         inkscape:label="Capa 1">
        <rect
           rx="13.999994"
           ry="13.999994"
           y="517.79797"
           x="386.57144"
           height="28"
           width="27.999989"
           id="rect4175"
           style="opacity:1;fill:url(#linearGradient4238);fill-opacity:1;stroke:none" />
        <path
           style="opacity:0.2;fill:url(#linearGradient4277);fill-opacity:1;fill-rule:evenodd;stroke:none;stroke-width:0.6000002px;stroke-linecap:butt;stroke-linejoin:miter;stroke-opacity:1"
           d="M 12.876953 20.982422 C 12.995644 21.115784 13.10747 21.259848 13.205078 21.425781 C 13.261508 21.521791 13.287109 21.649103 13.287109 21.769531 C 13.287109 22.084431 13.05904 22.3125 12.744141 22.3125 C 12.559226 22.3125 12.387299 22.209102 12.285156 22.054688 C 12.278556 22.041967 12.270812 22.030438 12.263672 22.017578 C 12.262272 22.014678 12.260766 22.012566 12.259766 22.009766 C 11.935166 21.423066 11.383192 21.044922 10.628906 21.044922 C 9.8868068 21.044922 9.0644531 21.369167 9.0644531 22.175781 C 9.0644531 22.885367 9.5649144 23.143098 10.548828 23.369141 L 11.628906 23.626953 C 12.677292 23.869239 13.46875 24.62725 13.46875 25.691406 C 13.46875 27.336648 11.999206 28.015625 10.53125 28.015625 C 9.5669469 28.015625 8.6892377 27.726828 8.0117188 27.001953 L 8 27 L 24.976562 43.976562 C 32.659403 43.610181 39.165245 38.938711 42.185547 32.318359 L 31.044922 21.177734 C 31.754647 21.885432 32.169922 22.878333 32.169922 24.015625 C 32.169922 24.553039 32.075582 25.057982 31.902344 25.515625 L 31.904297 25.515625 C 31.744797 26.025096 31.407988 26.670915 30.769531 27.201172 C 30.133089 27.731486 29.197067 28.116138 27.953125 28.113281 C 27.802754 28.113281 27.647767 28.109086 27.488281 28.097656 C 27.463851 28.095356 27.440249 28.09375 27.417969 28.09375 C 27.169097 28.09685 27.025013 28.17897 26.910156 28.298828 C 26.797885 28.419742 26.731908 28.596939 26.732422 28.765625 C 26.733922 28.931196 26.788721 29.072544 26.898438 29.179688 C 27.009695 29.284902 27.197998 29.387768 27.570312 29.390625 C 27.651083 29.390625 27.739365 29.384427 27.835938 29.373047 C 28.135123 29.336047 28.415558 29.318359 28.679688 29.318359 C 29.895187 29.312759 30.782488 29.714902 31.318359 30.318359 C 31.854216 30.919731 32.024348 31.647798 32.025391 32.244141 C 32.024291 32.537712 31.984301 32.804934 31.910156 33.039062 C 31.660242 33.826392 31.083156 34.386791 30.410156 34.712891 C 29.734028 35.044033 28.95692 35.174796 28.177734 35.175781 C 27.897849 35.175781 27.616144 35.159953 27.339844 35.126953 C 26.876073 35.070053 26.34397 34.922723 25.833984 34.648438 C 25.327056 34.374622 24.836956 33.9647 24.521484 33.375 C 24.311742 32.983329 24.188925 32.516132 24.189453 31.998047 C 24.189453 31.983337 24.188939 31.964686 24.189453 31.941406 C 24.204183 30.93565 24.70374 30.207676 25.167969 29.775391 C 25.360512 29.594576 25.547607 29.457993 25.705078 29.357422 C 25.635508 29.164408 25.603044 28.962153 25.603516 28.765625 C 25.60403 28.320111 25.764211 27.879042 26.078125 27.535156 C 26.093265 27.518446 26.110663 27.502618 26.126953 27.486328 C 24.912482 26.823428 24.152344 25.552667 24.152344 24.015625 C 24.152344 23.919295 24.171844 23.830492 24.177734 23.736328 L 22.142578 21.701172 C 22.598019 22.348444 22.861328 23.148031 22.861328 24.042969 C 22.861328 26.317039 21.200531 28.009766 18.845703 28.009766 C 16.507104 28.009766 14.845703 26.317039 14.845703 24.042969 C 14.845703 23.672043 14.904183 23.323477 14.988281 22.988281 L 13 21 L 12.876953 20.982422 z M 31.044922 21.177734 L 31 21.132812 L 31 21.142578 C 31.01363 21.155758 31.031502 21.164344 31.044922 21.177734 z "
           transform="matrix(0.70000031,0,0,0.70000031,383.77144,514.99796)"
           id="path4269" />
        <path
           id="path4190-3"
           style="clip-rule:evenodd;fill:#50bd37;fill-rule:nonzero;stroke-linejoin:round;stroke-miterlimit:1.41420996"
           d="m 409.56551,530.16061 c -0.35808,0 -0.61231,-0.26204 -0.61231,-0.61373 0,-0.35197 0.25423,-0.61405 0.61231,-0.61405 0.36087,0 0.61511,0.26208 0.61511,0.61405 0,0.35169 -0.25424,0.61373 -0.61511,0.61373 z m -0.001,-1.82831 c -0.709,0 -1.21246,0.5184 -1.21246,1.21458 0,0.69586 0.50346,1.21428 1.21246,1.21428 0.71361,0 1.2171,-0.51842 1.2171,-1.21428 0,-0.69618 -0.50349,-1.21458 -1.2171,-1.21458 z m -10e-4,3.05819 c -1.07594,0 -1.84038,-0.7872 -1.84038,-1.84361 0,-1.05671 0.76444,-1.84356 1.84038,-1.84356 1.08301,0 1.84713,0.78685 1.84713,1.84356 0,1.05641 -0.76412,1.84361 -1.84713,1.84361 z m -0.001,-4.36878 c -1.47344,0 -2.51986,1.07806 -2.51986,2.52517 0,1.4468 1.04642,2.52451 2.51986,2.52451 1.48303,0 2.52981,-1.07771 2.52981,-2.52451 0,-1.44711 -1.04678,-2.52517 -2.52981,-2.52517 z m -17.65042,4.51493 -0.75664,-0.18028 c -0.68874,-0.15823 -1.03861,-0.33886 -1.03861,-0.83557 0,-0.56463 0.57568,-0.79076 1.09515,-0.79076 0.528,0 0.91378,0.26381 1.141,0.6745 6.9e-4,0.002 0.002,0.004 0.003,0.006 0.005,0.009 0.01,0.0174 0.0146,0.0263 l 0.001,-7.3e-4 c 0.0715,0.10809 0.19164,0.18028 0.32108,0.18028 0.22043,0 0.38008,-0.15929 0.38008,-0.37972 0,-0.0843 -0.0181,-0.17352 -0.0576,-0.24073 -0.38756,-0.65885 -1.02652,-0.94293 -1.75825,-0.94293 -0.99344,0 -1.95346,0.4967 -1.95346,1.59184 0,1.00517 0.99379,1.29884 1.35502,1.38881 l 0.72251,0.1696 c 0.55327,0.13547 1.00484,0.31647 1.00484,0.84661 0,0.60977 -0.6322,0.88107 -1.24197,0.88107 -0.62084,0 -1.08059,-0.31752 -1.39737,-0.78616 l -3.6e-4,0 c -0.0704,-0.10275 -0.17956,-0.17494 -0.31325,-0.17494 -0.21547,0 -0.38898,0.17708 -0.38116,0.39221 0.004,0.0878 0.0327,0.16212 0.0775,0.22577 0.49637,0.74277 1.21424,1.02045 2.01463,1.02045 1.02757,0 2.05514,-0.4743 2.05514,-1.62597 0,-0.74491 -0.55327,-1.27574 -1.28714,-1.44534 z m 5.05145,2.39078 c -1.21921,0 -1.98721,-0.91451 -1.98721,-2.09995 0,-1.18581 0.768,-2.10031 1.98721,-2.10031 1.23097,0 1.99861,0.9145 1.99861,2.10031 0,1.18544 -0.76764,2.09995 -1.99861,2.09995 z m 0,-4.8776 c -1.63702,0 -2.80006,1.18544 -2.80006,2.77765 0,1.59185 1.16304,2.77729 2.80006,2.77729 1.64838,0 2.81142,-1.18544 2.81142,-2.77729 0,-1.59221 -1.16304,-2.77765 -2.81142,-2.77765 z m 7.92866,4.3016 c -0.0277,0.0267 -0.0558,0.053 -0.0864,0.0782 -0.0398,0.0366 -0.0861,0.0761 -0.1387,0.11557 -0.31785,0.23005 -0.71928,0.36338 -1.18864,0.36338 -1.21957,0 -1.98721,-0.91451 -1.98721,-2.09995 0,-1.18581 0.76764,-2.10032 1.98721,-2.10032 1.23061,0 1.99825,0.91451 1.99825,2.10032 0,0.61902 -0.20943,1.1634 -0.58453,1.54279 z m -1.82227,3.01053 c 0.091,0 0.18525,-0.006 0.28303,-0.0181 0.18064,-0.0227 0.34526,-0.0327 0.49424,-0.0327 0.69266,0.004 1.04536,0.20518 1.25798,0.4377 0.21226,0.23397 0.29407,0.55113 0.2937,0.82065 3.7e-4,0.12907 -0.0199,0.24461 -0.0423,0.31396 -0.10595,0.3214 -0.31999,0.54009 -0.64782,0.70471 -0.32533,0.16143 -0.75947,0.24393 -1.21351,0.2432 -0.16252,0 -0.32783,-0.0103 -0.49104,-0.0299 -0.30862,-0.0356 -0.71681,-0.16818 -1.01265,-0.39932 -0.14897,-0.11517 -0.27166,-0.25173 -0.35804,-0.41352 -0.0857,-0.16248 -0.13903,-0.35092 -0.13939,-0.59198 l 0,-0.0267 c 0.009,-0.44446 0.21335,-0.73958 0.43698,-0.95398 0.11059,-0.10453 0.22438,-0.18238 0.3072,-0.23183 0.0132,-0.008 0.0256,-0.0149 0.037,-0.0213 0.21938,0.12977 0.49173,0.20017 0.79465,0.19911 z m 0.40855,-7.33098 c -1.63698,0 -2.80038,1.18545 -2.80038,2.77766 0,1.07593 0.53156,1.96553 1.38169,2.42956 -0.0114,0.0114 -0.0224,0.0231 -0.033,0.0348 -0.21974,0.24072 -0.33212,0.54898 -0.33248,0.86084 -3.3e-4,0.13757 0.0224,0.27874 0.0711,0.41385 -0.11023,0.0704 -0.24178,0.16676 -0.37656,0.29333 -0.32496,0.3026 -0.67447,0.81139 -0.68478,1.51542 -3.6e-4,0.0163 -3.6e-4,0.0299 -3.6e-4,0.0402 -3.7e-4,0.36266 0.0857,0.68976 0.23252,0.96393 0.22083,0.41279 0.56463,0.70007 0.91948,0.89174 0.35699,0.192 0.72926,0.29403 1.0539,0.33386 0.19341,0.0231 0.3897,0.0355 0.58562,0.0355 0.54543,-6.9e-4 1.0894,-0.0928 1.56269,-0.3246 0.4711,-0.22827 0.87609,-0.62117 1.05103,-1.1723 0.0519,-0.16389 0.0796,-0.34987 0.0804,-0.55537 -7.3e-4,-0.41744 -0.12055,-0.92733 -0.49565,-1.34829 -0.37511,-0.42242 -0.99559,-0.70439 -1.84644,-0.70047 -0.18489,0 -0.38186,0.0128 -0.59129,0.0387 -0.0676,0.008 -0.12944,0.0121 -0.18598,0.0121 -0.26062,-0.002 -0.39144,-0.0739 -0.46932,-0.14755 -0.0768,-0.075 -0.11521,-0.17421 -0.11626,-0.29011 -3.6e-4,-0.11808 0.0462,-0.24214 0.12479,-0.32678 0.0804,-0.0839 0.18027,-0.1408 0.35448,-0.14295 0.0156,0 0.0324,3.7e-4 0.0495,0.002 0.11164,0.008 0.22006,0.0118 0.32532,0.0118 0.87076,0.002 1.52573,-0.26811 1.97124,-0.63933 0.44692,-0.37118 0.68304,-0.82275 0.79469,-1.17938 l -10e-4,-3.6e-4 c 0.12127,-0.32035 0.18703,-0.67378 0.18703,-1.04997 0,-1.59221 -1.16304,-2.77766 -2.81142,-2.77766 z"
           inkscape:connector-curvature="0" />
        <path
           style="opacity:0.2;fill:url(#linearGradient4260);fill-opacity:1;fill-rule:evenodd;stroke:none;stroke-width:0.70000029px;stroke-linecap:butt;stroke-linejoin:miter;stroke-opacity:1"
           d="M 40 19 L 39 23 L 37 24 L 34 23 L 42.53125 31.53125 C 43.472044 29.207293 44 26.669162 44 24 C 44 23.655716 43.991631 23.314519 43.974609 22.974609 L 40 19 z "
           transform="matrix(0.70000031,0,0,0.70000031,383.77144,514.99796)"
           id="path4252" />
      </g>
    </g>
  </g>
</svg>
