<?xml version="1.0" encoding="UTF-8" standalone="no"?>
<!-- Created with Inkscape (http://www.inkscape.org/) -->

<svg
   xmlns:dc="http://purl.org/dc/elements/1.1/"
   xmlns:cc="http://creativecommons.org/ns#"
   xmlns:rdf="http://www.w3.org/1999/02/22-rdf-syntax-ns#"
   xmlns:svg="http://www.w3.org/2000/svg"
   xmlns="http://www.w3.org/2000/svg"
   xmlns:sodipodi="http://sodipodi.sourceforge.net/DTD/sodipodi-0.dtd"
   xmlns:inkscape="http://www.inkscape.org/namespaces/inkscape"
   width="16"
   height="16"
   id="svg3049"
   version="1.1"
   sodipodi:docname="weblink.svg"
   inkscape:version="0.92.4 (5da689c313, 2019-01-14)"
   inkscape:export-filename="weblink.png"
   inkscape:export-xdpi="96"
   inkscape:export-ydpi="96">
  <sodipodi:namedview
     pagecolor="#ffffff"
     bordercolor="#666666"
     borderopacity="1"
     objecttolerance="10"
     gridtolerance="10"
     guidetolerance="10"
     inkscape:pageopacity="0"
     inkscape:pageshadow="2"
     inkscape:window-width="1884"
     inkscape:window-height="1051"
     id="namedview12"
     showgrid="true"
     inkscape:zoom="20.85965"
     inkscape:cx="6.6649521"
     inkscape:cy="6.8973928"
     inkscape:window-x="0"
     inkscape:window-y="0"
     inkscape:window-maximized="1"
     inkscape:current-layer="svg3049">
    <inkscape:grid
       type="xygrid"
       id="grid822" />
  </sodipodi:namedview>
  <defs
     id="defs3051">
    <style
       type="text/css"
       id="current-color-scheme">
      .ColorScheme-Text {
        color:#4d4d4d;
      }
      .ColorScheme-Background {
        color:#eff0f1;
      }
      .ColorScheme-Highlight {
        color:#3daee9;
      }
      .ColorScheme-ViewText {
        color:#31363b;
      }
      .ColorScheme-ViewBackground {
        color:#fcfcfc;
      }
      .ColorScheme-ViewHover {
        color:#93cee9;
      }
      .ColorScheme-ViewFocus{
        color:#3daee9;
      }
      .ColorScheme-ButtonText {
        color:#31363b;
      }
      .ColorScheme-ButtonBackground {
        color:#eff0f1;
      }
      .ColorScheme-ButtonHover {
        color:#93cee9;
      }
      .ColorScheme-ButtonFocus{
        color:#3daee9;
      }
      </style>
  </defs>
  <metadata
     id="metadata3054">
    <rdf:RDF>
      <cc:Work
         rdf:about="">
        <dc:format>image/svg+xml</dc:format>
        <dc:type
           rdf:resource="http://purl.org/dc/dcmitype/StillImage" />
        <dc:title></dc:title>
        <dc:date>2019</dc:date>
        <dc:creator>
          <cc:Agent>
            <dc:title>Timothée Giet</dc:title>
          </cc:Agent>
        </dc:creator>
        <cc:license
           rdf:resource="http://creativecommons.org/licenses/by-sa/4.0/" />
      </cc:Work>
      <cc:License
         rdf:about="http://creativecommons.org/licenses/by-sa/4.0/">
        <cc:permits
           rdf:resource="http://creativecommons.org/ns#Reproduction" />
        <cc:permits
           rdf:resource="http://creativecommons.org/ns#Distribution" />
        <cc:requires
           rdf:resource="http://creativecommons.org/ns#Notice" />
        <cc:requires
           rdf:resource="http://creativecommons.org/ns#Attribution" />
        <cc:permits
           rdf:resource="http://creativecommons.org/ns#DerivativeWorks" />
        <cc:requires
           rdf:resource="http://creativecommons.org/ns#ShareAlike" />
      </cc:License>
    </rdf:RDF>
  </metadata>
  <path
     style="opacity:1;vector-effect:none;fill:#3daee9;fill-opacity:1;stroke:none;stroke-width:5;stroke-linecap:butt;stroke-linejoin:miter;stroke-miterlimit:4;stroke-dasharray:none;stroke-dashoffset:0;stroke-opacity:1"
     d="M 8 0 A 8 8 0 0 0 0 8 A 8 8 0 0 0 8 16 A 8 8 0 0 0 16 8 A 8 8 0 0 0 8 0 z M 10.828125 1.6679688 C 11.722792 1.6679687 12.617194 2.0117256 13.302734 2.6972656 C 14.673814 4.0683457 14.673814 6.2754044 13.302734 7.6464844 L 12.242188 8.7070312 L 11.535156 6.5859375 L 11.888672 6.2324219 C 12.476278 5.6448162 12.476278 4.6989338 11.888672 4.1113281 C 11.301067 3.5237224 10.355184 3.5237224 9.7675781 4.1113281 L 7.6464844 6.2324219 C 7.0588787 6.8200277 7.0588787 7.7659099 7.6464844 8.3535156 C 7.7714725 8.4785036 7.9139247 8.570762 8.0644531 8.6425781 L 7.2929688 9.4140625 L 6.6210938 10.085938 C 6.4880014 9.9861781 6.353601 9.8887571 6.2324219 9.7675781 C 4.8613419 8.396498 4.8613419 6.1894394 6.2324219 4.8183594 L 8.3535156 2.6972656 C 9.0390556 2.0117256 9.9334581 1.6679688 10.828125 1.6679688 z M 9.3789062 5.9140625 C 9.5119985 6.0138217 9.646399 6.1112429 9.7675781 6.2324219 C 11.138658 7.603502 11.138658 9.8105601 9.7675781 11.181641 L 7.6464844 13.302734 C 6.2754044 14.673814 4.0683457 14.673814 2.6972656 13.302734 C 1.3261856 11.931654 1.3261856 9.7245956 2.6972656 8.3535156 L 3.7578125 7.2929688 L 4.4648438 9.4140625 L 4.1113281 9.7675781 C 3.5237224 10.355184 3.5237224 11.301067 4.1113281 11.888672 C 4.6989338 12.476278 5.6448162 12.476278 6.2324219 11.888672 L 8.3535156 9.7675781 C 8.9411213 9.1799723 8.9411213 8.2340901 8.3535156 7.6464844 C 8.2285275 7.5214964 8.0860751 7.4292379 7.9355469 7.3574219 L 8.7070312 6.5859375 L 9.3789062 5.9140625 z "
     id="path987" />
</svg>
