<?xml version="1.0" encoding="UTF-8" standalone="no"?>
<!-- Created with Inkscape (http://www.inkscape.org/) -->

<svg
   xmlns:dc="http://purl.org/dc/elements/1.1/"
   xmlns:cc="http://creativecommons.org/ns#"
   xmlns:rdf="http://www.w3.org/1999/02/22-rdf-syntax-ns#"
   xmlns:svg="http://www.w3.org/2000/svg"
   xmlns="http://www.w3.org/2000/svg"
   xmlns:xlink="http://www.w3.org/1999/xlink"
   xmlns:sodipodi="http://sodipodi.sourceforge.net/DTD/sodipodi-0.dtd"
   xmlns:inkscape="http://www.inkscape.org/namespaces/inkscape"
   width="16"
   height="16"
   id="svg3049"
   version="1.1"
   inkscape:version="0.91 r13725"
   sodipodi:docname="ssh.svg"
   inkscape:export-filename="ssh.png"
   inkscape:export-xdpi="90"
   inkscape:export-ydpi="90">
  <defs
     id="defs3051">
    <style
       type="text/css"
       id="current-color-scheme">
      .ColorScheme-Text {
        color:#4d4d4d;
      }
      .ColorScheme-Background {
        color:#eff0f1;
      }
      .ColorScheme-Highlight {
        color:#3daee9;
      }
      .ColorScheme-ViewText {
        color:#31363b;
      }
      .ColorScheme-ViewBackground {
        color:#fcfcfc;
      }
      .ColorScheme-ViewHover {
        color:#93cee9;
      }
      .ColorScheme-ViewFocus{
        color:#3daee9;
      }
      .ColorScheme-ButtonText {
        color:#31363b;
      }
      .ColorScheme-ButtonBackground {
        color:#eff0f1;
      }
      .ColorScheme-ButtonHover {
        color:#93cee9;
      }
      .ColorScheme-ButtonFocus{
        color:#3daee9;
      }
      </style>
    <linearGradient
       inkscape:collect="always"
       xlink:href="#linearGradient4375"
       id="linearGradient4381"
       x1="405.5499"
       y1="526.53046"
       x2="405.5499"
       y2="530.02625"
       gradientUnits="userSpaceOnUse"
       gradientTransform="matrix(0.76032321,0,0,0.76032321,125.07991,136.00124)" />
    <linearGradient
       inkscape:collect="always"
       id="linearGradient4375">
      <stop
         style="stop-color:#313131;stop-opacity:1"
         offset="0"
         id="stop4377" />
      <stop
         style="stop-color:#4d4d4d;stop-opacity:0.98604649"
         offset="1"
         id="stop4379" />
    </linearGradient>
    <linearGradient
       inkscape:collect="always"
       xlink:href="#linearGradient4410"
       id="linearGradient4424"
       x1="398.99463"
       y1="541.12817"
       x2="398.99463"
       y2="533.1969"
       gradientUnits="userSpaceOnUse"
       gradientTransform="matrix(0.76032321,0,0,0.76032321,125.07991,136.00124)" />
    <linearGradient
       inkscape:collect="always"
       id="linearGradient4410">
      <stop
         style="stop-color:#fdbc4b;stop-opacity:0.66046512"
         offset="0"
         id="stop4412" />
      <stop
         style="stop-color:#fdbc4b;stop-opacity:1"
         offset="1"
         id="stop4414" />
    </linearGradient>
    <linearGradient
       inkscape:collect="always"
       xlink:href="#linearGradient4410"
       id="linearGradient4416"
       x1="18.1875"
       y1="33.829102"
       x2="18.1875"
       y2="9.1416006"
       gradientUnits="userSpaceOnUse"
       gradientTransform="matrix(0.53222648,0,0,0.53222648,416.87024,527.56613)" />
  </defs>
  <sodipodi:namedview
     id="base"
     pagecolor="#ffffff"
     bordercolor="#666666"
     borderopacity="1.0"
     inkscape:pageopacity="0.0"
     inkscape:pageshadow="2"
     inkscape:zoom="24.411306"
     inkscape:cx="8.1400374"
     inkscape:cy="1.5254156"
     inkscape:document-units="px"
     inkscape:current-layer="layer1"
     showgrid="true"
     fit-margin-top="0"
     fit-margin-left="0"
     fit-margin-right="0"
     fit-margin-bottom="0"
     inkscape:window-width="1880"
     inkscape:window-height="1051"
     inkscape:window-x="0"
     inkscape:window-y="0"
     inkscape:window-maximized="1"
     inkscape:showpageshadow="false"
     borderlayer="true"
     inkscape:snap-bbox="true"
     inkscape:snap-global="true">
    <inkscape:grid
       type="xygrid"
       id="grid4085" />
    <sodipodi:guide
       position="2.0000044,14.00003"
       orientation="12,0"
       id="guide4075" />
    <sodipodi:guide
       position="2.0000044,2.0000296"
       orientation="0,12"
       id="guide4077" />
    <sodipodi:guide
       position="14.000004,2.0000296"
       orientation="-12,0"
       id="guide4079" />
    <sodipodi:guide
       position="14.000004,14.00003"
       orientation="0,-12"
       id="guide4081" />
  </sodipodi:namedview>
  <metadata
     id="metadata3054">
    <rdf:RDF>
      <cc:Work
         rdf:about="">
        <dc:format>image/svg+xml</dc:format>
        <dc:type
           rdf:resource="http://purl.org/dc/dcmitype/StillImage" />
        <dc:title />
      </cc:Work>
    </rdf:RDF>
  </metadata>
  <g
     inkscape:label="Capa 1"
     inkscape:groupmode="layer"
     id="layer1"
     transform="translate(-421.71429,-531.79074)">
    <path
       inkscape:connector-curvature="0"
       style="display:inline;fill:#8c5a02;fill-opacity:1;fill-rule:evenodd;stroke:none;stroke-width:0.70000029px;stroke-linecap:butt;stroke-linejoin:miter;stroke-opacity:1"
       d="m 428.85271,534.01916 c -0.4584,0.0924 -0.62036,0.10364 -1.03894,0.31209 l -1.24615,-1.06162 0.54016,1.4048 c -0.35267,0.21671 -0.42013,0.3327 -0.71321,0.625 l -0.69766,-0.17607 0.3737,0.50834 c -0.31881,0.33584 -0.42778,0.57072 -0.64927,0.97737 l -0.94404,-0.13617 0.64983,0.59176 c -0.14671,0.30486 -0.0759,0.1761 -0.16214,0.50321 -0.55061,-1.05474 -1.6718,-1.37349 -2.52251,0.97213 1.33786,-0.66893 1.62019,0.20293 1.62019,0.73516 0,0.53223 -0.29596,1.61674 -1.59667,0.7822 1.21737,2.55522 2.09894,2.12704 2.6253,1.33521 0.0995,0.75838 1.06624,2.00387 1.79779,2.52269 l -0.34332,0.66312 0.80588,-0.4314 c 0.53928,0.34054 1.13539,0.2127 1.75989,0.34234 l 0,1.05718 0.39813,-0.99585 c 0.2209,0.0295 0.0338,0.29099 0.25667,0.29259 0.55809,-0.002 1.38086,-0.0561 1.91094,-0.23069 l 0.7217,1.38087 0.11761,-1.68246 c 0.46428,-0.20254 0.73262,-0.32918 1.12122,-0.65409 l 1.23443,0.99975 -0.68035,-1.64129 c 0.24751,-0.24978 0.30502,-0.31177 0.49855,-0.60536 l 1.33478,0.5811 -1.01798,-1.22083 c 0.16482,-0.29036 0.20786,-0.21925 0.31548,-0.5353 l 1.61633,0.21842 -1.41959,-1.11556 c 0.0935,-0.39447 0.14163,-0.89243 0.14345,-1.29783 -0.002,-0.59488 -0.057,-0.80884 -0.25442,-1.37002 l 1.57761,-1.26759 -2.00174,0.29392 c -0.11691,-0.24022 0.0541,-0.23609 -0.0976,-0.45606 l 0.83599,-1.22804 -1.35136,0.70374 c -0.16419,-0.19695 -0.17609,-0.21543 -0.36694,-0.38669 l 0.73804,-1.93557 -1.5855,1.21661 c -0.28288,-0.19531 -0.30411,-0.20618 -0.61928,-0.34342 l -0.16632,-2.4761 -0.99548,2.19399 c -0.26608,-0.074 -0.20823,-0.10365 -0.48256,-0.13553 l -0.16167,-0.78134 -0.31227,0.76367 c -0.20768,-0.12719 -0.3195,0.0103 -0.5908,0.0224 l -0.78769,-2.06227 z"
       id="path4195-6"
       sodipodi:nodetypes="ccccccccccccscccccccccccccccccccccccccccccccccccccccc" />
    <path
       style="display:inline;fill:url(#linearGradient4416);fill-opacity:1;fill-rule:evenodd;stroke:none;stroke-width:0.70000029px;stroke-linecap:butt;stroke-linejoin:miter;stroke-opacity:1"
       d="m 429.11146,532.35617 0,1.70999 a 5.3222648,5.3222648 0 0 0 -1.32122,0.45322 l -0.91684,-0.8264 0.51663,1.05197 a 5.3222648,5.3222648 0 0 0 -0.97194,0.76612 l -0.39189,-0.19958 0.27963,0.32016 a 5.3222648,5.3222648 0 0 0 -0.81393,1.11851 l -0.63826,-0.13617 0.53223,0.35654 a 5.3222648,5.3222648 0 0 0 -0.35031,0.95011 c -0.55061,-1.05473 -1.34252,-1.44405 -2.31082,0.29003 1.33785,-0.66894 1.59668,0.53223 1.59668,1.06445 0,0.53223 -0.29597,1.899 -1.59668,1.06445 1.07624,1.61436 1.81668,1.6331 2.34304,0.41788 a 5.3222648,5.3222648 0 0 0 0.10499,0.31705 l -0.31913,0.21414 0.36487,-0.078 a 5.3222648,5.3222648 0 0 0 1.92932,2.43971 l -0.27443,0.55926 0.47818,-0.43139 a 5.3222648,5.3222648 0 0 0 1.75988,0.71102 l 0,1.05717 0.39813,-0.99584 a 5.3222648,5.3222648 0 0 0 0.66632,0.0468 5.3222648,5.3222648 0 0 0 1.64242,-0.26715 l 0.48648,1.21622 0,-1.40022 a 5.3222648,5.3222648 0 0 0 1.28587,-0.79522 l 0.95218,0.85863 -0.58627,-1.19439 a 5.3222648,5.3222648 0 0 0 0.66321,-0.81704 l 0.77026,0.39293 -0.59459,-0.67984 a 5.3222648,5.3222648 0 0 0 0.40956,-0.91166 l 1.35759,0.289 -1.2079,-0.80979 a 5.3222648,5.3222648 0 0 0 0.14345,-1.20374 5.3222648,5.3222648 0 0 0 -0.30145,-1.74637 l 1.3659,-0.91477 -1.60188,0.34096 a 5.3222648,5.3222648 0 0 0 -0.40332,-0.69127 l 0.83264,-0.95219 -1.1185,0.57069 a 5.3222648,5.3222648 0 0 0 -0.53327,-0.55301 l 0.80457,-1.63617 -1.33887,1.20686 a 5.3222648,5.3222648 0 0 0 -0.89918,-0.5 l 0,-2.04367 -0.71725,1.79314 a 5.3222648,5.3222648 0 0 0 -0.81186,-0.15904 l -0.0676,-0.56965 -0.14761,0.55197 a 5.3222648,5.3222648 0 0 0 -0.38461,-0.0198 5.3222648,5.3222648 0 0 0 -0.41788,0.0187 l -0.64658,-1.61538 z"
       id="path4195"
       inkscape:connector-curvature="0" />
    <path
       style="display:inline;fill:#4d4d4d;fill-opacity:1;fill-rule:evenodd;stroke:none;stroke-width:0.70000029px;stroke-linecap:butt;stroke-linejoin:miter;stroke-opacity:1"
       d="m 426.45033,543.53293 0.53222,4.25781 5.32226,-0.53223 -0.53221,-4.2578 z"
       id="path4346"
       inkscape:connector-curvature="0" />
    <path
       style="display:inline;fill:#8c5a02;fill-opacity:1;fill-rule:evenodd;stroke:none;stroke-width:0.70000029px;stroke-linecap:butt;stroke-linejoin:miter;stroke-opacity:1"
       d="m 429.66553,541.40235 0.18982,4.16819 c -0.33534,0.26692 -1.67459,0.0642 -2.59933,-1.47942 l 1.26925,-2.1206"
       id="path4350-2"
       inkscape:connector-curvature="0"
       sodipodi:nodetypes="cccc" />
    <path
       style="display:inline;fill:url(#linearGradient4424);fill-opacity:1;fill-rule:evenodd;stroke:none;stroke-width:0.70000029px;stroke-linecap:butt;stroke-linejoin:miter;stroke-opacity:1"
       d="m 429.64369,541.40403 0,3.72558 c -0.26977,0.25757 -1.12008,0.40243 -2.12891,-1.06446 l 1.06445,-2.1289"
       id="path4350"
       inkscape:connector-curvature="0"
       sodipodi:nodetypes="cccc" />
    <path
       style="display:inline;fill:url(#linearGradient4381);fill-opacity:1;fill-rule:evenodd;stroke:#313131;stroke-width:0.30000001;stroke-linecap:butt;stroke-linejoin:miter;stroke-miterlimit:4;stroke-dasharray:none;stroke-opacity:1"
       d="m 430.17591,537.14622 c 0.71736,-0.88047 1.91906,-0.74208 2.66113,0 l 0.53223,0 c 0.65436,-0.82038 1.45551,-0.6734 2.1289,0 -0.37077,1.79999 -1.30015,2.18973 -2.1289,0.53222 l -0.53223,0 c -0.87853,1.97869 -2.11587,1.10354 -2.66113,-0.53222 z"
       id="path4352"
       inkscape:connector-curvature="0"
       sodipodi:nodetypes="ccccccc" />
    <path
       style="display:inline;fill:#8c5a02;fill-opacity:1;fill-rule:evenodd;stroke:none;stroke-width:0.70000029px;stroke-linecap:butt;stroke-linejoin:miter;stroke-opacity:1"
       d="m 430.17591,536.08176 c 0.79976,-1.02017 1.54432,1.07251 3.19336,0 -2.3671,-0.43032 -2.30102,-1.71373 -3.19336,0"
       id="path4354"
       inkscape:connector-curvature="0"
       sodipodi:nodetypes="ccc" />
    <path
       style="display:inline;fill:#8c5a02;fill-opacity:1;fill-rule:evenodd;stroke:none;stroke-width:0.70000029px;stroke-linecap:butt;stroke-linejoin:miter;stroke-opacity:1"
       d="m 433.66628,538.80469 c -0.86942,-0.0245 -1.21274,0.54281 -1.59668,1.06445 0.54531,-0.28209 1.11013,-0.7202 1.59668,-0.53222 l 0.53223,0.53222 c -0.0728,-0.63377 -0.27178,-0.93106 -0.53223,-1.06445 z"
       id="path4356"
       inkscape:connector-curvature="0"
       sodipodi:nodetypes="ccccc" />
  </g>
</svg>
