<?xml version="1.0" encoding="UTF-8" standalone="no"?>
<!-- Created with Inkscape (http://www.inkscape.org/) -->

<svg
   xmlns:dc="http://purl.org/dc/elements/1.1/"
   xmlns:cc="http://creativecommons.org/ns#"
   xmlns:rdf="http://www.w3.org/1999/02/22-rdf-syntax-ns#"
   xmlns:svg="http://www.w3.org/2000/svg"
   xmlns="http://www.w3.org/2000/svg"
   xmlns:xlink="http://www.w3.org/1999/xlink"
   xmlns:sodipodi="http://sodipodi.sourceforge.net/DTD/sodipodi-0.dtd"
   xmlns:inkscape="http://www.inkscape.org/namespaces/inkscape"
   width="48"
   height="48"
   id="svg5453"
   version="1.1"
   inkscape:version="0.91 r13725"
   sodipodi:docname="netgroups.svg"
   inkscape:export-filename="netgroups.png"
   inkscape:export-xdpi="90"
   inkscape:export-ydpi="90">
  <defs
     id="defs5455">
    <linearGradient
       inkscape:collect="always"
       id="linearGradient4143">
      <stop
         style="stop-color:#197cf1;stop-opacity:1"
         offset="0"
         id="stop4145" />
      <stop
         style="stop-color:#20bcfa;stop-opacity:1"
         offset="1"
         id="stop4147" />
    </linearGradient>
    <linearGradient
       inkscape:collect="always"
       xlink:href="#linearGradient4410"
       id="linearGradient4427"
       x1="393.57144"
       y1="524.79791"
       x2="407.57147"
       y2="538.79797"
       gradientUnits="userSpaceOnUse"
       gradientTransform="matrix(1.4285708,0,0,1.4285708,-163.67327,-235.91319)" />
    <linearGradient
       id="linearGradient4410"
       inkscape:collect="always">
      <stop
         id="stop4412"
         offset="0"
         style="stop-color:#383e51;stop-opacity:1" />
      <stop
         id="stop4414"
         offset="1"
         style="stop-color:#655c6f;stop-opacity:0" />
    </linearGradient>
    <linearGradient
       inkscape:collect="always"
       xlink:href="#linearGradient4210"
       id="linearGradient4208"
       x1="401.57144"
       y1="538.79797"
       x2="401.57144"
       y2="524.79797"
       gradientUnits="userSpaceOnUse"
       gradientTransform="matrix(2.040811,0,0,2.040811,-408.91924,-561.50122)" />
    <linearGradient
       inkscape:collect="always"
       id="linearGradient4210">
      <stop
         style="stop-color:#beddfc;stop-opacity:1"
         offset="0"
         id="stop4212" />
      <stop
         style="stop-color:#f4fcff;stop-opacity:1"
         offset="1"
         id="stop4214" />
    </linearGradient>
    <linearGradient
       gradientTransform="matrix(1.4285708,0,0,1.4285708,385.71426,500.94079)"
       inkscape:collect="always"
       xlink:href="#linearGradient4290"
       id="linearGradient4161"
       x1="16.000011"
       y1="29.999973"
       x2="16.000011"
       y2="1.999974"
       gradientUnits="userSpaceOnUse" />
    <linearGradient
       id="linearGradient4290"
       inkscape:collect="always">
      <stop
         id="stop4292"
         offset="0"
         style="stop-color:#7cbaf8;stop-opacity:1" />
      <stop
         id="stop4294"
         offset="1"
         style="stop-color:#f4fcff;stop-opacity:1" />
    </linearGradient>
    <linearGradient
       gradientTransform="matrix(1.4285708,0,0,1.4285708,385.71426,500.94079)"
       inkscape:collect="always"
       xlink:href="#linearGradient4227"
       id="linearGradient4297"
       x1="0.04334712"
       y1="-2.9814656"
       x2="22.063898"
       y2="19.039085"
       gradientUnits="userSpaceOnUse" />
    <linearGradient
       inkscape:collect="always"
       id="linearGradient4227">
      <stop
         style="stop-color:#292c2f;stop-opacity:1"
         offset="0"
         id="stop4229" />
      <stop
         style="stop-color:#000000;stop-opacity:0;"
         offset="1"
         id="stop4231" />
    </linearGradient>
    <linearGradient
       gradientTransform="matrix(1.4285708,0,0,1.4285708,-163.67327,-235.91319)"
       inkscape:collect="always"
       xlink:href="#linearGradient4143"
       id="linearGradient4149"
       x1="400.57144"
       y1="545.79797"
       x2="400.57144"
       y2="517.79797"
       gradientUnits="userSpaceOnUse" />
    <linearGradient
       inkscape:collect="always"
       xlink:href="#linearGradient4143"
       id="linearGradient4340"
       x1="21"
       y1="30"
       x2="21"
       y2="17"
       gradientUnits="userSpaceOnUse" />
  </defs>
  <sodipodi:namedview
     id="base"
     pagecolor="#ffffff"
     bordercolor="#666666"
     borderopacity="1.0"
     inkscape:pageopacity="0"
     inkscape:pageshadow="2"
     inkscape:zoom="15.999999"
     inkscape:cx="18.995617"
     inkscape:cy="16.167873"
     inkscape:document-units="px"
     inkscape:current-layer="layer1"
     showgrid="true"
     fit-margin-top="0"
     fit-margin-left="0"
     fit-margin-right="0"
     fit-margin-bottom="0"
     inkscape:window-width="1880"
     inkscape:window-height="1051"
     inkscape:window-x="0"
     inkscape:window-y="0"
     inkscape:window-maximized="1"
     inkscape:showpageshadow="false"
     borderlayer="true"
     showguides="true"
     inkscape:object-nodes="true"
     inkscape:snap-global="true"
     inkscape:snap-bbox="true">
    <inkscape:grid
       type="xygrid"
       id="grid4063" />
    <sodipodi:guide
       position="1.1650391e-05,47.999996"
       orientation="4,0"
       id="guide4146" />
    <sodipodi:guide
       position="1.1650391e-05,43.999996"
       orientation="0,48"
       id="guide4148" />
    <sodipodi:guide
       position="48.000012,43.999996"
       orientation="-4,0"
       id="guide4150" />
    <sodipodi:guide
       position="48.000012,47.999996"
       orientation="0,-48"
       id="guide4152" />
    <sodipodi:guide
       position="1.1650391e-05,4.0000264"
       orientation="4,0"
       id="guide4154" />
    <sodipodi:guide
       position="1.1650391e-05,2.6367188e-05"
       orientation="0,48"
       id="guide4156" />
    <sodipodi:guide
       position="48.000012,2.6367188e-05"
       orientation="-4,0"
       id="guide4158" />
    <sodipodi:guide
       position="48.000012,4.0000264"
       orientation="0,-48"
       id="guide4160" />
    <sodipodi:guide
       position="48.000012,48.000026"
       orientation="0,-4"
       id="guide4162" />
    <sodipodi:guide
       position="44.000012,48.000026"
       orientation="48,0"
       id="guide4164" />
    <sodipodi:guide
       position="44.000012,2.6367188e-05"
       orientation="0,4"
       id="guide4166" />
    <sodipodi:guide
       position="48.000012,2.6367188e-05"
       orientation="-48,0"
       id="guide4168" />
    <sodipodi:guide
       position="4.0000422,48.000026"
       orientation="0,-4"
       id="guide4170" />
    <sodipodi:guide
       position="4.2167969e-05,48.000026"
       orientation="48,0"
       id="guide4172" />
    <sodipodi:guide
       position="4.2167969e-05,2.6367188e-05"
       orientation="0,4"
       id="guide4174" />
    <sodipodi:guide
       position="4.0000422,2.6367188e-05"
       orientation="-48,0"
       id="guide4176" />
    <sodipodi:guide
       position="20.000012,43.999996"
       orientation="39.999969,0"
       id="guide4153" />
    <sodipodi:guide
       position="20.000012,4.0000264"
       orientation="0,8"
       id="guide4155" />
    <sodipodi:guide
       position="28.000012,4.0000264"
       orientation="-39.999969,0"
       id="guide4157" />
    <sodipodi:guide
       position="28.000012,43.999996"
       orientation="0,-8"
       id="guide4159" />
  </sodipodi:namedview>
  <metadata
     id="metadata5458">
    <rdf:RDF>
      <cc:Work
         rdf:about="">
        <dc:format>image/svg+xml</dc:format>
        <dc:type
           rdf:resource="http://purl.org/dc/dcmitype/StillImage" />
        <dc:title></dc:title>
      </cc:Work>
    </rdf:RDF>
  </metadata>
  <g
     inkscape:label="Capa 1"
     inkscape:groupmode="layer"
     id="layer1"
     transform="translate(-384.57143,-499.798)">
    <rect
       style="opacity:1;fill:url(#linearGradient4149);fill-opacity:1;stroke:none"
       id="rect4130"
       width="40"
       height="40.000023"
       x="388.57144"
       y="503.79791"
       ry="20" />
    <path
       style="opacity:0.2;fill:url(#linearGradient4297);fill-opacity:1;fill-rule:evenodd;stroke:none;stroke-width:1px;stroke-linecap:butt;stroke-linejoin:miter;stroke-opacity:1"
       d="m 412.27675,504.15228 -4.24944,0.54408 -5.90681,3.4096 -2.14565,3.71651 c 0,0 -2.81984,1.98612 -3.24497,1.87222 -3.59542,-0.0421 -5.52658,0.94951 -6.54297,2.20982 -0.42981,1.00449 -0.76705,2.05663 -1.02958,3.13895 -0.007,1.08677 0.23158,1.9308 0.23158,1.9308 10.0865,9.08042 20.173,12.99456 30.25948,19.48939 0.63511,-0.42192 1.24165,-0.88003 1.822,-1.36997 0.0333,-0.028 0.0646,-0.0583 0.0977,-0.0864 0.51409,-0.43985 1.0041,-0.90846 1.47042,-1.39789 0.10328,-0.10814 0.2005,-0.22154 0.30134,-0.33203 0.40383,-0.44341 0.78958,-0.9023 1.15234,-1.38114 0.082,-0.10786 0.16293,-0.21681 0.24274,-0.32644 0.39356,-0.54221 0.76383,-1.10341 1.10213,-1.68527 0.0253,-0.0433 0.0531,-0.0849 0.0781,-0.12829 1.52123,-2.66262 2.4483,-5.71268 2.60603,-8.97321 4.4e-4,-0.009 0.003,-0.0186 0.003,-0.0279 l 0,-0.003 -2.6061,-10.90953 c -2.85667,-4.98295 -7.78818,-8.60086 -13.64118,-9.69029 z"
       id="path4286"
       inkscape:connector-curvature="0"
       sodipodi:nodetypes="cccccccccccccccccscccc" />
    <path
       inkscape:connector-curvature="0"
       style="fill:url(#linearGradient4161);fill-opacity:1;fill-rule:nonzero;stroke:none"
       d="m 408.29516,503.81188 c -1.53211,0.0207 -3.01604,0.2197 -4.44475,0.56361 -0.3761,0.33733 -0.93116,0.50834 -1.55413,0.49107 -0.22298,0.2133 -0.1715,0.61123 -0.29297,0.90403 -0.10229,0.24599 -0.46267,0.50921 -0.7087,0.48827 -0.182,-0.0154 -0.39003,-0.27131 -0.39063,-0.44084 -6.6e-4,-0.20467 0.28447,-0.31877 0.12829,-0.54687 -1.59207,0.64533 -3.07289,1.49618 -4.428,2.50837 0.36344,-0.13386 0.76424,-0.35883 1.09374,-0.36552 0.0541,-6.4e-4 0.104,0.004 0.15346,0.0167 0.22131,0.058 0.80458,0.6968 0.31808,0.90401 -0.0461,0.02 -0.71341,0.0926 -0.82868,0.0726 -0.16944,-0.0284 -0.27022,-0.2626 -0.44084,-0.29297 -0.28659,-0.0496 -0.65098,0.24807 -0.89845,0.11443 -2.72542,2.19994 -4.84051,5.10706 -6.10769,8.44308 0.11628,-0.0673 0.23522,-0.13771 0.3404,-0.19253 0.35702,-0.1856 0.65854,-0.48561 1.07421,-0.5134 0.20734,-0.004 0.5068,0.0559 0.70591,0.0977 0.18379,0.0377 0.33206,0.16103 0.49107,0.173 0.45132,0.0344 0.55812,-0.31676 0.92635,-0.5134 0.3804,0.0537 0.63303,-0.0637 0.97657,-0.0251 0.23423,0.0258 0.40343,0.27617 0.58593,0.29018 0.15353,0.0154 0.2895,-0.14271 0.43805,-0.12 0.14432,0.0223 0.39229,0.33702 0.41575,0.51339 0.0296,0.21954 -0.1607,0.41735 -0.0977,0.65848 0.22997,0.23423 0.64792,0.2808 0.97656,0.41575 0.21398,-0.17635 0.0284,-0.50368 0,-0.75893 -0.004,-0.11243 0.0154,-0.21175 0,-0.3153 -0.02,-0.17579 -0.0966,-0.33782 -0.0977,-0.48827 -0.004,-0.69489 0.56068,-1.02026 1.02679,-1.29465 0.20176,-0.11957 0.36066,-0.32821 0.53571,-0.41574 0.24723,-0.124 0.43146,-0.15283 0.63618,-0.26786 0.36989,-0.20778 0.68732,-0.37557 0.97655,-0.61104 0.13372,-0.31507 0.0147,-0.73773 0.0251,-1.04911 0.13386,-0.082 0.24873,0.0369 0.39063,0.0251 0.22323,-0.0466 0.2418,-0.3625 0.3683,-0.48829 0.0736,-0.0721 0.27416,-0.12371 0.36552,-0.19531 0.22248,-0.17453 0.29401,-0.43817 0.48828,-0.51339 0.0696,-0.0283 0.23062,-0.0207 0.3404,-0.0503 0.14462,-0.0384 0.35043,-0.20944 0.58593,-0.29017 0.15354,-0.0536 0.50501,-0.0639 0.56361,-0.12272 0.0722,-0.0736 -1e-4,-0.28035 0.0251,-0.39062 0.11843,-0.55125 0.94893,-0.66818 1.43974,-0.85379 0.34401,-0.13043 0.69621,-0.36904 1.07421,-0.29577 -0.074,0.262 -0.42521,0.17016 -0.36551,0.48828 0.0824,0.4415 0.67277,-0.12742 0.82869,-0.19251 0.29794,-0.12557 0.80887,-0.20139 1.19977,-0.3432 0.34277,-0.12557 0.95645,-0.31664 0.63337,-0.7087 -0.26942,-0.0154 -0.39852,0.3153 -0.63337,0.41573 -0.16218,0.0259 -0.13229,-0.13486 -0.27065,-0.14787 -0.13157,-0.0154 -0.20524,0.12071 -0.3404,0.0977 -0.13428,-0.0223 -0.32217,-0.2335 -0.3432,-0.39063 -0.0536,-0.40764 0.34457,-0.5749 0.5134,-0.87891 -0.11157,-0.36876 -0.62088,-0.0761 -0.92912,-0.22042 0.0294,-0.21952 0.25694,-0.37097 0.51338,-0.41294 0.21021,-0.0354 0.68119,-0.0171 0.80637,0.0949 0.0724,0.0616 0.006,0.2157 0.12272,0.31808 0.12442,0.11243 0.27657,0.10186 0.43805,0.0753 0.0584,-0.27826 -0.36093,-0.20944 -0.3153,-0.39341 0.32986,-0.21577 0.86567,-0.0377 1.26953,-0.0977 0.23247,-0.0344 0.4776,-0.19935 0.6836,-0.31528 0.19594,-0.11157 0.45063,-0.30523 0.65849,-0.12272 0.0564,0.1994 -0.18198,0.26637 -0.29298,0.36552 -0.37364,0.33237 -0.75869,0.7133 -1.04911,1.09932 0.17819,0.17382 0.50209,0.0869 0.80357,0.12272 0.11786,0.0154 0.266,0.0506 0.39063,0.0726 0.14554,0.0259 0.30173,0.0179 0.41574,0.0474 0.20512,0.0504 0.26009,0.27066 0.46317,0.27066 0.33409,-6e-4 0.33713,-0.36299 0.14788,-0.58873 0.0597,-0.23049 0.1533,-0.34916 0.0726,-0.5106 -0.15046,-0.30102 -0.70265,-0.0154 -0.73103,-0.39063 -0.0181,-0.24347 0.20471,-0.23359 0.29297,-0.41574 -0.0401,-0.47046 0.38591,-0.50466 0.3404,-0.92635 -0.02,-0.17637 -0.1695,-0.17792 -0.29297,-0.34318 -0.0641,-0.0844 -0.093,-0.25264 -0.1702,-0.31809 -0.2554,-0.21578 -0.77493,-0.17405 -0.80636,-0.58593 -0.004,-0.13942 0.0153,-0.26434 0.0279,-0.39621 -0.23547,-0.0114 -0.46833,-0.033 -0.70591,-0.0363 l -0.55246,0 z m -9.51451,4.79074 c 0.114,0.0154 0.25235,0.13743 0.39063,0.14787 0.13043,0.004 0.2379,-0.0716 0.31809,-0.0501 0.20421,0.0537 0.28953,0.36224 0.0977,0.51338 -0.15966,0.02 -0.22287,-0.0687 -0.3432,-0.0474 -0.33165,0.0564 -0.45807,0.70509 -0.70591,0.68359 -0.23376,-0.02 -0.36012,-0.58939 -0.12272,-0.75893 0.0154,-0.148 -0.10785,-0.17179 -0.10042,-0.31807 0.0706,-0.0904 0.27111,-0.18664 0.46595,-0.1702 z m -1.09932,0.0753 c 0.068,0.003 0.119,0.0179 0.14508,0.0474 -0.0324,0.26027 -0.23704,0.24419 -0.43806,0.36552 -0.34715,0.20954 -0.54801,0.52894 -0.65847,0.97657 -0.032,0.13043 -0.37325,0.47537 -0.53851,0.44084 -0.38722,-0.0816 0.107,-0.79553 0.19531,-0.90401 0.0976,-0.12029 0.22806,-0.22668 0.3432,-0.36552 0.11157,-0.13443 0.18535,-0.31601 0.29296,-0.39063 0.11786,-0.0816 0.45447,-0.17803 0.65849,-0.1702 z m 2.89062,0.87892 c 0.124,0.003 0.23373,0.0223 0.2846,0.0726 -0.0796,0.32248 -0.77274,0.23648 -1.02678,0.12 0.0166,-0.12157 0.20563,-0.15416 0.36551,-0.1702 0.11243,-0.004 0.25284,-0.0259 0.37667,-0.0223 z m -1.58202,0.5943 c 0.0824,-0.003 0.16717,0.016 0.25389,0.0391 -0.22474,0.18797 -0.46785,0.29361 -0.85378,0.41573 -0.18557,0.0587 -0.50707,0.132 -0.53851,-0.0753 -0.0384,-0.254 0.2714,-0.19491 0.44085,-0.21764 0.21332,-0.0294 0.44763,-0.15383 0.69755,-0.16183 z m 24.52844,0.36273 c 0.0184,0.18348 0.0216,0.35769 -0.0279,0.55524 -0.0664,0.26454 -0.30462,0.50445 -0.29298,0.73381 0.0154,0.11786 0.14416,0.23123 0.173,0.39063 0.0154,0.0846 -0.0396,0.26613 0,0.34319 0.124,0.24045 0.46277,0.0367 0.68359,0.0726 0.21573,0.0347 0.46558,0.34418 0.46317,0.58594 -0.003,0.16836 -0.1612,0.44884 -0.26786,0.61106 -0.21287,0.3237 -0.50113,0.33794 -0.80635,0.5106 -0.25456,0.1443 -0.36417,0.38512 -0.5134,0.63615 -0.16169,0.27112 -0.26192,0.43589 -0.19532,0.82869 -0.21821,0.43283 -0.54964,0.69811 -1.00167,0.90401 -0.13371,0.0604 -0.31538,0.0814 -0.43806,0.1702 -0.0976,0.0703 -0.15418,0.25979 -0.29297,0.41575 -0.17125,0.19058 -0.3508,0.27011 -0.44084,0.41572 -0.0696,0.11243 -0.0933,0.33726 -0.1702,0.48829 -0.10429,0.20507 -0.32629,0.30557 -0.46317,0.51338 -0.0624,0.0961 -0.104,0.28995 -0.17299,0.41575 -0.15467,0.28113 -0.41902,0.4838 -0.39062,0.73103 0.0283,0.23898 0.29957,0.27997 0.31807,0.48827 0.004,0.11771 -0.0774,0.18975 -0.0726,0.31808 0.004,0.18737 0.13028,0.31897 0.1451,0.46317 0.0364,0.36257 -0.12429,0.50826 -0.19253,0.75615 -0.0324,0.11842 -0.0189,0.25065 -0.0503,0.34318 -0.0597,0.18146 -0.31308,0.34624 -0.31807,0.56083 -0.003,0.15246 0.15733,0.27427 0.1702,0.48829 0.004,0.14754 -0.0734,0.3052 -0.0474,0.44084 0.0519,0.26573 0.52729,0.57477 0.73381,0.78126 0.27626,0.27622 0.63712,0.49019 0.75613,0.78124 0.10043,0.24721 0.10043,0.56988 0.29297,0.75614 0.14243,0.13757 0.37836,0.22243 0.56083,0.36551 0.17017,0.13358 0.35659,0.2489 0.5385,0.39062 0.29725,0.2325 0.74577,0.69698 1.21932,0.66128 0.24722,-0.0181 0.50077,-0.22082 0.78124,-0.27065 0.28857,-0.0516 0.66314,-0.0774 0.95424,-0.0474 0.22299,0.0223 0.4518,0.15573 0.6836,0.1451 0.24474,-0.0154 0.52546,-0.19662 0.80357,-0.31809 0.43947,-0.19127 1.07859,-0.42893 1.72154,-0.39341 0.123,-0.90049 0.20926,-1.813 0.20926,-2.74833 0,-3.78443 -1.05924,-7.3042 -2.8711,-10.31529 -0.0841,-0.006 -0.16151,-0.0173 -0.2539,-0.0143 -0.24777,0.0154 -0.6548,0.0154 -0.65848,-0.29296 -0.003,-0.2533 0.23893,-0.30924 0.52734,-0.32645 -0.53946,-0.82546 -1.1445,-1.60129 -1.79687,-2.33537 z m -30.52733,9.16293 c -0.40564,0.0223 -0.67061,0.0409 -0.90123,0.14509 -0.52838,0.24047 -0.42634,0.95551 -0.95424,1.12444 -0.18258,0.0584 -0.43236,0.0606 -0.63337,0.0977 -0.17344,0.0316 -0.38484,0.12642 -0.56361,0.12271 -0.21152,-0.004 -0.58013,-0.20806 -0.70592,-0.34318 -0.0866,-0.0937 -0.2283,-0.42135 -0.32087,-0.63896 -0.12743,0.703 -0.21541,1.41861 -0.26786,2.14564 0.0433,0.009 0.089,0.0196 0.12557,0.0196 0.23123,10e-4 0.47858,-0.23853 0.73382,-0.24553 0.59868,-0.0166 0.85863,0.76183 1.34208,1.00167 0.12158,0.0604 0.2815,0.063 0.43806,0.0977 0.12643,0.0283 0.22143,0.0814 0.34319,0.12271 0.25824,0.0876 0.57467,0.0781 0.78125,0.1702 0.3113,0.13815 0.53867,0.72232 0.80636,0.87892 0.0154,0.15783 -0.0291,0.3706 0.0251,0.48827 0.12643,0.17147 0.30505,0.13371 0.51339,0.24554 0.24923,0.13443 0.32461,0.47986 0.56083,0.58594 0.0814,0.0363 0.28693,0.033 0.41574,0.0726 0.32367,0.098 0.42849,0.47252 0.70591,0.39063 0.18197,-0.0536 0.16862,-0.24178 0.1981,-0.41573 0.12029,-0.13042 0.25057,-0.33671 0.43806,-0.3404 0.30339,-0.0154 0.33044,0.31359 0.44084,0.60826 0.0623,0.16652 0.22532,0.31259 0.26786,0.48827 0.0756,0.3034 0.0389,1.21089 -0.0251,1.3923 -0.0764,0.22247 -0.37789,0.31694 -0.56362,0.56363 -0.0876,0.11557 -0.12928,0.2842 -0.19531,0.3655 -0.11957,0.14554 -0.29839,0.18374 -0.38783,0.31809 -0.0506,0.0756 -0.0987,0.23811 -0.14788,0.3404 -0.14662,0.31071 -0.34376,0.53098 -0.22042,0.90401 0.0516,0.15354 0.29237,0.25739 0.29297,0.43807 6.3e-4,0.21263 -0.45323,0.40307 -0.48828,0.63616 -0.0259,0.17344 0.14028,0.483 0.19531,0.7087 0.0404,0.17054 0.36266,0.27714 0.46317,0.39063 0.17144,0.1924 0.30934,0.46421 0.46596,0.70591 0.3096,0.4754 0.55234,1.05449 0.85378,1.51507 0.15932,0.24123 0.38215,0.4583 0.48829,0.7087 0.0543,0.12643 0.0477,0.27709 0.0977,0.39063 0.17452,0.3939 0.94439,0.80617 1.34208,1.00167 0.18619,0.0906 0.39281,0.123 0.56361,0.21763 0.25881,0.1443 0.77056,0.532 0.90123,0.75893 0.11643,0.20397 0.18895,0.69961 0.24554,1.024 0.0756,0.42861 0.003,0.75788 0.0251,1.2221 0.0154,0.25107 0.095,0.50451 0.0977,0.75612 10e-4,0.0882 -0.0464,0.15283 -0.0503,0.24276 -0.004,0.30462 0.0763,0.64776 0.0503,0.95424 -0.001,0.0657 -0.009,0.11515 -0.0196,0.17299 2.39652,1.01153 5.03378,1.57087 7.80691,1.57087 0.29021,0 0.57224,-0.0326 0.85937,-0.0446 0.007,-0.0456 0.0129,-0.0914 0.0223,-0.12829 0.0884,-0.24774 0.3164,-0.33025 0.46317,-0.5134 0.11143,-0.13814 0.16235,-0.29997 0.26786,-0.43805 0.11472,-0.15046 0.21737,-0.28325 0.29297,-0.41573 0.0722,-0.44584 -0.17764,-0.75649 -0.0726,-1.14677 0.11672,-0.4384 0.72192,-0.70622 1.14676,-0.90402 0.14614,-0.0678 0.29671,-0.17911 0.41574,-0.22043 0.29402,-0.10242 0.66029,-0.047 0.92913,-0.14508 0.4575,-0.16744 0.5054,-0.65739 0.73103,-1.07422 0.10643,-0.1974 0.24698,-0.39511 0.26785,-0.53571 0.0181,-0.12643 -0.0456,-0.24441 -0.0251,-0.39341 0.0223,-0.14756 0.15439,-0.27602 0.1953,-0.43807 0.0536,-0.21153 0.0753,-0.52052 0.0753,-0.75613 0,-0.19339 -0.0896,-0.36407 -0.0977,-0.53852 -0.0316,-0.63338 0.22882,-0.7044 0.46317,-1.0491 0.11758,-0.17125 0.16068,-0.36557 0.24276,-0.48828 0.39339,-0.58696 1.07616,-0.87054 1.02679,-1.75782 -0.0166,-0.29361 -0.19977,-0.95815 -0.41575,-1.05188 -0.12357,-0.0537 -0.40717,-0.004 -0.58594,-0.0726 -0.57716,-0.2153 -0.91703,-0.93087 -1.51506,-0.97657 -0.12771,-0.0154 -0.24411,0.0526 -0.38784,0.0503 -0.23673,-0.0154 -0.59451,-0.16583 -0.85658,-0.19531 -0.16652,-0.0181 -0.3883,0.0494 -0.48827,0 -0.15248,-0.0741 -0.16895,-0.35427 -0.29298,-0.43806 -0.0984,-0.0676 -0.2889,-0.0901 -0.43805,-0.14787 -0.24047,-0.0926 -0.43125,-0.20109 -0.70872,-0.22043 -0.0856,-0.004 -0.19325,0.0409 -0.29295,0.0251 -0.15355,-0.0258 -0.27409,-0.20672 -0.41575,-0.29297 -0.17744,-0.108 -0.34238,-0.16121 -0.41574,-0.31528 0.16036,-0.52595 -0.2828,-0.6727 -0.39061,-0.97659 -0.0516,-0.14243 -0.0274,-0.31383 -0.0726,-0.44084 -0.0636,-0.18199 -0.24365,-0.28627 -0.44086,-0.43806 -0.35337,-0.27197 -0.66689,-0.52643 -1.17187,-0.58873 -0.222,-0.0283 -0.4405,0.0667 -0.7087,0.0503 -0.28424,-0.0181 -0.64117,-0.2676 -0.8538,-0.5106 -0.20669,-0.23723 -0.30823,-0.45019 -0.48829,-0.56361 -0.17055,-0.10958 -0.3969,-0.10672 -0.51338,-0.21765 -0.0519,-0.0484 -0.0423,-0.13143 -0.0977,-0.24553 -0.0857,-0.17762 -0.22958,-0.27547 -0.12271,-0.48828 -0.19459,-0.1 -0.20002,0.18481 -0.41294,0.14788 -0.18979,-0.2694 -0.35025,-0.39708 -0.78126,-0.31808 -0.19739,0.0364 -0.3085,0.28677 -0.5385,0.29297 -0.1886,0.0154 -0.33684,-0.21016 -0.58594,-0.24554 -0.188,-0.0259 -0.40189,0.0507 -0.53572,0.0251 -0.20843,-0.0416 -0.27278,-0.2152 -0.46317,-0.3404 -0.13957,-0.0917 -0.40997,-0.24801 -0.48827,-0.24553 -0.24546,0.0154 -0.42044,0.52256 -0.75893,0.34319 -0.1645,-0.20844 0.26777,-0.31837 0.0726,-0.51339 -0.148,-0.148 -0.27228,0.0661 -0.39063,0.14787 -0.13557,0.0936 -0.26309,0.1873 -0.41294,0.24275 -0.33543,0.12557 -0.54421,0.0597 -0.80635,0.19531 -0.24273,0.12571 -0.2531,0.33616 -0.39063,0.58594 -0.11243,0.20465 -0.36956,0.50105 -0.53852,0.51339 -0.20464,0.0154 -0.4003,-0.28523 -0.58593,-0.36552 -0.55921,-0.24222 -0.83028,0.21422 -1.29464,0.22043 -0.43097,0.0154 -1.04564,-0.69415 -1.024,-1.09932 0.004,-0.24723 0.14129,-0.62329 0.1702,-0.92913 0.0259,-0.24323 0.19252,-0.38903 0.19532,-0.61105 0.004,-0.29661 -0.39353,-0.52565 -0.58595,-0.56082 -0.45622,-0.0839 -1.08984,0.18414 -1.61271,-0.0252 -0.1,-0.16548 0.117,-0.27988 0.17299,-0.44085 0.0316,-0.0914 0.0147,-0.21465 0.0474,-0.31529 0.058,-0.15551 0.22005,-0.27607 0.29296,-0.44084 0.0546,-0.12572 0.0679,-0.30716 0.12272,-0.46317 0.0636,-0.17763 0.18157,-0.29116 0.19531,-0.41575 0.0181,-0.16448 -0.0441,-0.3547 -0.17299,-0.46317 z m 6.52901,5.1702 c 0.1655,0.0154 0.18599,0.35754 0.0167,0.38504 -0.18259,0.0284 -0.27462,-0.28637 -0.0977,-0.3683 0.0296,-0.0154 0.0572,-0.0183 0.0809,-0.0167 z"
       id="path34" />
    <ellipse
       style="color:#000000;clip-rule:nonzero;display:inline;overflow:visible;visibility:visible;opacity:1;isolation:auto;mix-blend-mode:normal;color-interpolation:sRGB;color-interpolation-filters:linearRGB;solid-color:#000000;solid-opacity:1;fill:url(#linearGradient4208);fill-opacity:1;fill-rule:nonzero;stroke:none;stroke-width:1;stroke-linecap:butt;stroke-linejoin:miter;stroke-miterlimit:4;stroke-dasharray:2, 2;stroke-dashoffset:10;stroke-opacity:1;marker:none;color-rendering:auto;image-rendering:auto;shape-rendering:auto;text-rendering:auto;enable-background:accumulate"
       id="path4200"
       cx="408.57144"
       cy="523.79791"
       rx="14.285708"
       ry="14.285677" />
    <path
       inkscape:connector-curvature="0"
       style="opacity:0.2;fill:url(#linearGradient4427);fill-opacity:1;fill-rule:evenodd;stroke:none;stroke-width:1px;stroke-linecap:butt;stroke-linejoin:miter;stroke-opacity:1"
       d="m 415.57143,516.798 -5,5 -3,-3 -5,5 4.28571,4.28571 -7.28571,2.71429 8.75222,8.75223 c 7.3647,2.12243 18.79318,-3.77573 15.24778,-14.75223 z"
       id="path4419"
       sodipodi:nodetypes="ccccccccc" />
    <path
       style="color:#000000;clip-rule:nonzero;display:inline;overflow:visible;visibility:visible;opacity:1;isolation:auto;mix-blend-mode:normal;color-interpolation:sRGB;color-interpolation-filters:linearRGB;solid-color:#000000;solid-opacity:1;fill:url(#linearGradient4340);fill-opacity:1;fill-rule:evenodd;stroke:none;stroke-width:1;stroke-linecap:butt;stroke-linejoin:round;stroke-miterlimit:4;stroke-dasharray:none;stroke-dashoffset:0;stroke-opacity:1;marker:none;color-rendering:auto;image-rendering:auto;shape-rendering:auto;text-rendering:auto;enable-background:accumulate"
       d="M 28.5,16 C 26.567003,16 25,17.567003 25,19.5 25,21.432997 26.567003,23 28.5,23 30.432997,23 32,21.432997 32,19.5 32,17.567003 30.432997,16 28.5,16 Z m 0,7 c -1.727213,0 -3.267066,0.869943 -4.275391,2.228516 1.150004,0.878892 2.070673,2.191615 2.503907,3.771484 L 34,29 c 0,-3.313708 -2.462434,-6 -5.5,-6 z m -8,-5 C 18.567003,18 17,19.567003 17,21.5 17,23.432997 18.567003,25 20.5,25 22.432997,25 24,23.432997 24,21.5 24,19.567003 22.432997,18 20.5,18 Z m 0,7 C 17.462434,25 15,27.686292 15,31 l 11,0 c 0,-3.313708 -2.462434,-6 -5.5,-6 z"
       transform="translate(384.57143,499.798)"
       id="path4306"
       inkscape:connector-curvature="0"
       sodipodi:nodetypes="sssssscccsssssssccs" />
  </g>
</svg>
