<?xml version="1.0" encoding="UTF-8" standalone="no"?>
<!-- Created with Inkscape (http://www.inkscape.org/) -->

<svg
   xmlns:dc="http://purl.org/dc/elements/1.1/"
   xmlns:cc="http://creativecommons.org/ns#"
   xmlns:rdf="http://www.w3.org/1999/02/22-rdf-syntax-ns#"
   xmlns:svg="http://www.w3.org/2000/svg"
   xmlns="http://www.w3.org/2000/svg"
   xmlns:xlink="http://www.w3.org/1999/xlink"
   xmlns:sodipodi="http://sodipodi.sourceforge.net/DTD/sodipodi-0.dtd"
   xmlns:inkscape="http://www.inkscape.org/namespaces/inkscape"
   width="48"
   height="48"
   id="svg5453"
   version="1.1"
   inkscape:version="0.91 r13725"
   sodipodi:docname="quota.svg"
   inkscape:export-filename="quota.png"
   inkscape:export-xdpi="90"
   inkscape:export-ydpi="90">
  <defs
     id="defs5455">
    <linearGradient
       inkscape:collect="always"
       id="linearGradient4227">
      <stop
         style="stop-color:#292c2f;stop-opacity:1"
         offset="0"
         id="stop4229" />
      <stop
         style="stop-color:#000000;stop-opacity:0;"
         offset="1"
         id="stop4231" />
    </linearGradient>
    <linearGradient
       gradientTransform="translate(-5.8399973e-6,0)"
       gradientUnits="userSpaceOnUse"
       y2="517.79797"
       x2="400.57144"
       y1="545.79797"
       x1="400.57144"
       id="linearGradient4238"
       xlink:href="#linearGradient4303"
       inkscape:collect="always" />
    <linearGradient
       inkscape:collect="always"
       id="linearGradient4303">
      <stop
         style="stop-color:#c6cdd1;stop-opacity:1"
         offset="0"
         id="stop4305" />
      <stop
         style="stop-color:#e0e5e7;stop-opacity:1"
         offset="1"
         id="stop4307" />
    </linearGradient>
    <style
       id="current-color-scheme"
       type="text/css">
      .ColorScheme-Text {
        color:#4d4d4d;
      }
      .ColorScheme-Background {
        color:#eff0f1;
      }
      .ColorScheme-Highlight {
        color:#3daee9;
      }
      .ColorScheme-ViewText {
        color:#31363b;
      }
      .ColorScheme-ViewBackground {
        color:#fcfcfc;
      }
      .ColorScheme-ViewHover {
        color:#93cee9;
      }
      .ColorScheme-ViewFocus{
        color:#3daee9;
      }
      .ColorScheme-ButtonText {
        color:#31363b;
      }
      .ColorScheme-ButtonBackground {
        color:#eff0f1;
      }
      .ColorScheme-ButtonHover {
        color:#93cee9;
      }
      .ColorScheme-ButtonFocus{
        color:#3daee9;
      }
      </style>
    <linearGradient
       inkscape:collect="always"
       xlink:href="#linearGradient4227"
       id="linearGradient4277"
       x1="423.71432"
       y1="534.99072"
       x2="436.3143"
       y2="547.5907"
       gradientUnits="userSpaceOnUse"
       gradientTransform="matrix(1.6666661,0,0,1.6666661,-692.19027,-875.65089)" />
    <linearGradient
       inkscape:collect="always"
       xlink:href="#linearGradient4303"
       id="linearGradient4275"
       x1="401.27145"
       y1="545.79797"
       x2="401.27145"
       y2="517.79797"
       gradientUnits="userSpaceOnUse" />
    <linearGradient
       inkscape:collect="always"
       xlink:href="#linearGradient4227"
       id="linearGradient4285"
       x1="397.07144"
       y1="539.49799"
       x2="397.07144"
       y2="524.09796"
       gradientUnits="userSpaceOnUse"
       gradientTransform="translate(-8.8399973e-6,-1.3174686e-5)" />
    <linearGradient
       inkscape:collect="always"
       xlink:href="#linearGradient4303"
       id="linearGradient4185"
       x1="399.17145"
       y1="545.79797"
       x2="399.17145"
       y2="517.79797"
       gradientUnits="userSpaceOnUse" />
    <linearGradient
       inkscape:collect="always"
       xlink:href="#linearGradient4303"
       id="linearGradient4197"
       x1="401.97144"
       y1="534.59796"
       x2="401.97144"
       y2="529.69794"
       gradientUnits="userSpaceOnUse" />
    <linearGradient
       inkscape:collect="always"
       xlink:href="#linearGradient4227"
       id="linearGradient4286"
       x1="401.27145"
       y1="529.69794"
       x2="401.27145"
       y2="533.89795"
       gradientUnits="userSpaceOnUse" />
  </defs>
  <sodipodi:namedview
     id="base"
     pagecolor="#ffffff"
     bordercolor="#666666"
     borderopacity="1.0"
     inkscape:pageopacity="0"
     inkscape:pageshadow="2"
     inkscape:zoom="15.999999"
     inkscape:cx="18.678813"
     inkscape:cy="17.855086"
     inkscape:document-units="px"
     inkscape:current-layer="layer1-9"
     showgrid="true"
     fit-margin-top="0"
     fit-margin-left="0"
     fit-margin-right="0"
     fit-margin-bottom="0"
     inkscape:window-width="1880"
     inkscape:window-height="1051"
     inkscape:window-x="0"
     inkscape:window-y="0"
     inkscape:window-maximized="1"
     inkscape:showpageshadow="false"
     borderlayer="true"
     showguides="true"
     inkscape:object-nodes="true"
     inkscape:snap-global="true">
    <inkscape:grid
       type="xygrid"
       id="grid4063" />
    <sodipodi:guide
       position="1.1650391e-05,47.999996"
       orientation="4,0"
       id="guide4146" />
    <sodipodi:guide
       position="1.1650391e-05,43.999996"
       orientation="0,48"
       id="guide4148" />
    <sodipodi:guide
       position="48.000012,43.999996"
       orientation="-4,0"
       id="guide4150" />
    <sodipodi:guide
       position="48.000012,47.999996"
       orientation="0,-48"
       id="guide4152" />
    <sodipodi:guide
       position="1.1650391e-05,4.0000264"
       orientation="4,0"
       id="guide4154" />
    <sodipodi:guide
       position="1.1650391e-05,2.6367188e-05"
       orientation="0,48"
       id="guide4156" />
    <sodipodi:guide
       position="48.000012,2.6367188e-05"
       orientation="-4,0"
       id="guide4158" />
    <sodipodi:guide
       position="48.000012,4.0000264"
       orientation="0,-48"
       id="guide4160" />
    <sodipodi:guide
       position="48.000012,48.000026"
       orientation="0,-4"
       id="guide4162" />
    <sodipodi:guide
       position="44.000012,48.000026"
       orientation="48,0"
       id="guide4164" />
    <sodipodi:guide
       position="44.000012,2.6367188e-05"
       orientation="0,4"
       id="guide4166" />
    <sodipodi:guide
       position="48.000012,2.6367188e-05"
       orientation="-48,0"
       id="guide4168" />
    <sodipodi:guide
       position="4.0000422,48.000026"
       orientation="0,-4"
       id="guide4170" />
    <sodipodi:guide
       position="4.2167969e-05,48.000026"
       orientation="48,0"
       id="guide4172" />
    <sodipodi:guide
       position="4.2167969e-05,2.6367188e-05"
       orientation="0,4"
       id="guide4174" />
    <sodipodi:guide
       position="4.0000422,2.6367188e-05"
       orientation="-48,0"
       id="guide4176" />
    <sodipodi:guide
       position="20.000012,43.999996"
       orientation="39.999969,0"
       id="guide4153" />
    <sodipodi:guide
       position="20.000012,4.0000264"
       orientation="0,8"
       id="guide4155" />
    <sodipodi:guide
       position="28.000012,4.0000264"
       orientation="-39.999969,0"
       id="guide4157" />
    <sodipodi:guide
       position="28.000012,43.999996"
       orientation="0,-8"
       id="guide4159" />
  </sodipodi:namedview>
  <metadata
     id="metadata5458">
    <rdf:RDF>
      <cc:Work
         rdf:about="">
        <dc:format>image/svg+xml</dc:format>
        <dc:type
           rdf:resource="http://purl.org/dc/dcmitype/StillImage" />
        <dc:title />
      </cc:Work>
    </rdf:RDF>
  </metadata>
  <g
     inkscape:label="Capa 1"
     inkscape:groupmode="layer"
     id="layer1"
     transform="translate(-384.57143,-499.798)"
     style="display:inline">
    <g
       transform="matrix(1.4285708,0,0,1.4285708,-163.67324,-235.91308)"
       id="layer1-7"
       inkscape:label="Capa 1">
      <g
         transform="translate(-2.5589574e-6,2.2518306e-5)"
         id="layer1-9"
         inkscape:label="Capa 1">
        <rect
           rx="13.999994"
           ry="13.999994"
           y="517.79797"
           x="386.57144"
           height="28"
           width="27.999989"
           id="rect4175"
           style="opacity:1;fill:url(#linearGradient4238);fill-opacity:1;stroke:none" />
        <path
           style="opacity:0.2;fill:url(#linearGradient4277);fill-opacity:1;fill-rule:evenodd;stroke:none;stroke-width:0.6000002px;stroke-linecap:butt;stroke-linejoin:miter;stroke-opacity:1"
           d="m 32,16 -0.999999,11 -9,4 -4,0 L 14,29 27.681641,43.658203 c 8.121674,-1.500355 14.488225,-7.871508 15.980468,-15.996094 z"
           transform="matrix(0.70000031,0,0,0.70000031,383.77144,514.99796)"
           id="path4269"
           inkscape:connector-curvature="0"
           sodipodi:nodetypes="cccccccc" />
        <path
           style="color:#000000;clip-rule:nonzero;display:inline;overflow:visible;visibility:visible;opacity:1;isolation:auto;mix-blend-mode:normal;color-interpolation:sRGB;color-interpolation-filters:linearRGB;solid-color:#000000;solid-opacity:1;fill:#0d7fd2;fill-opacity:1;fill-rule:evenodd;stroke:none;stroke-width:0.5;stroke-linecap:square;stroke-linejoin:bevel;stroke-miterlimit:4;stroke-dasharray:none;stroke-dashoffset:0;stroke-opacity:1;marker:none;color-rendering:auto;image-rendering:auto;shape-rendering:auto;text-rendering:auto;enable-background:accumulate"
           d="M 24.160156 13.001953 A 11 11 0 0 0 16.222656 16.222656 A 11 11 0 0 0 16.222656 31.777344 A 11 11 0 0 0 31.777344 31.777344 A 11 11 0 0 0 31.777344 16.222656 A 11 11 0 0 0 24.160156 13.001953 z M 24 21 A 2.9999999 2.9999999 0 0 1 27 24 A 2.9999999 2.9999999 0 0 1 25.865234 26.349609 A 2.9999999 2.9999999 0 0 1 25.361328 26.673828 A 2.9999999 2.9999999 0 0 1 24 27 A 2.9999999 2.9999999 0 0 1 21.650391 25.865234 A 2.9999999 2.9999999 0 0 1 21.326172 25.361328 A 2.9999999 2.9999999 0 0 1 21 24 A 2.9999999 2.9999999 0 0 1 24 21 z "
           transform="matrix(0.70000031,0,0,0.70000031,383.77144,514.99796)"
           id="path4182" />
        <path
           style="color:#000000;clip-rule:nonzero;display:inline;overflow:visible;visibility:visible;opacity:1;isolation:auto;mix-blend-mode:normal;color-interpolation:sRGB;color-interpolation-filters:linearRGB;solid-color:#000000;solid-opacity:1;fill:#0a68ad;fill-opacity:1;fill-rule:evenodd;stroke:none;stroke-width:0.5;stroke-linecap:square;stroke-linejoin:bevel;stroke-miterlimit:4;stroke-dasharray:none;stroke-dashoffset:0;stroke-opacity:1;marker:none;color-rendering:auto;image-rendering:auto;shape-rendering:auto;text-rendering:auto;enable-background:accumulate"
           d="M 13.015625 24 C 13.014752 24.953175 13.124828 25.910769 13.375 26.847656 C 14.132243 29.664026 15.97735 32.064814 18.503906 33.521484 L 22.501953 26.595703 A 2.9999999 2.9999999 0 0 1 21 24 L 13.015625 24 z "
           transform="matrix(0.70000031,0,0,0.70000031,383.77144,514.99796)"
           id="path4182-6-7-3" />
        <path
           style="color:#000000;clip-rule:nonzero;display:inline;overflow:visible;visibility:visible;opacity:1;isolation:auto;mix-blend-mode:normal;color-interpolation:sRGB;color-interpolation-filters:linearRGB;solid-color:#000000;solid-opacity:1;fill:#1c98f2;fill-opacity:1;fill-rule:evenodd;stroke:none;stroke-width:0.5;stroke-linecap:square;stroke-linejoin:bevel;stroke-miterlimit:4;stroke-dasharray:none;stroke-dashoffset:0;stroke-opacity:1;marker:none;color-rendering:auto;image-rendering:auto;shape-rendering:auto;text-rendering:auto;enable-background:accumulate"
           d="M 23.839844 13.001953 A 11 11 0 0 0 16.222656 16.222656 L 21.880859 21.880859 A 2.9999999 2.9999999 0 0 1 24 21 A 2.9999999 2.9999999 0 0 1 27 24 A 2.9999999 2.9999999 0 0 1 24 27 L 24 34.994141 A 11 11 0 0 0 31.777344 31.777344 A 11 11 0 0 0 31.777344 16.222656 A 11 11 0 0 0 23.839844 13.001953 z "
           transform="matrix(0.70000031,0,0,0.70000031,383.77144,514.99796)"
           id="path4182-3" />
        <path
           style="color:#000000;clip-rule:nonzero;display:inline;overflow:visible;visibility:visible;opacity:1;isolation:auto;mix-blend-mode:normal;color-interpolation:sRGB;color-interpolation-filters:linearRGB;solid-color:#000000;solid-opacity:1;fill:#074c7e;fill-opacity:1;fill-rule:evenodd;stroke:none;stroke-width:0.5;stroke-linecap:square;stroke-linejoin:bevel;stroke-miterlimit:4;stroke-dasharray:none;stroke-dashoffset:0;stroke-opacity:1;marker:none;color-rendering:auto;image-rendering:auto;shape-rendering:auto;text-rendering:auto;enable-background:accumulate"
           d="M 27 24 A 2.9999999 2.9999999 0 0 1 24 27 L 24 34.994141 C 26.916413 34.995569 29.713345 33.8378 31.777344 31.777344 C 33.837786 29.713359 34.995926 26.916413 34.994141 24 L 27 24 z "
           transform="matrix(0.70000031,0,0,0.70000031,383.77144,514.99796)"
           id="path4182-6" />
        <path
           style="color:#000000;clip-rule:nonzero;display:inline;overflow:visible;visibility:visible;opacity:1;isolation:auto;mix-blend-mode:normal;color-interpolation:sRGB;color-interpolation-filters:linearRGB;solid-color:#000000;solid-opacity:1;fill:#0b77c6;fill-opacity:1;fill-rule:evenodd;stroke:none;stroke-width:0.5;stroke-linecap:square;stroke-linejoin:bevel;stroke-miterlimit:4;stroke-dasharray:none;stroke-dashoffset:0;stroke-opacity:1;marker:none;color-rendering:auto;image-rendering:auto;shape-rendering:auto;text-rendering:auto;enable-background:accumulate"
           d="M 29.496094 14.480469 L 25.498047 21.404297 A 2.9999999 2.9999999 0 0 1 27 24 A 2.9999999 2.9999999 0 0 1 26.595703 25.498047 L 33.519531 29.496094 C 34.979273 26.971295 35.3774 23.970043 34.625 21.152344 C 33.867757 18.335945 32.022678 15.93714 29.496094 14.480469 z "
           transform="matrix(0.70000031,0,0,0.70000031,383.77144,514.99796)"
           id="path4182-6-7" />
        <path
           style="color:#000000;clip-rule:nonzero;display:inline;overflow:visible;visibility:visible;opacity:1;isolation:auto;mix-blend-mode:normal;color-interpolation:sRGB;color-interpolation-filters:linearRGB;solid-color:#000000;solid-opacity:1;fill:#45aaf4;fill-opacity:1;fill-rule:evenodd;stroke:none;stroke-width:0.5;stroke-linecap:square;stroke-linejoin:bevel;stroke-miterlimit:4;stroke-dasharray:none;stroke-dashoffset:0;stroke-opacity:1;marker:none;color-rendering:auto;image-rendering:auto;shape-rendering:auto;text-rendering:auto;enable-background:accumulate"
           d="M 24.367188 13.009766 C 23.293693 12.974729 22.210516 13.097156 21.154297 13.380859 L 23.224609 21.103516 A 2.9999999 2.9999999 0 0 1 24 21 A 2.9999999 2.9999999 0 0 1 26.896484 23.224609 L 34.619141 21.154297 C 33.866027 18.336798 32.024442 15.934994 29.5 14.474609 C 27.920661 13.564583 26.156345 13.068159 24.367188 13.009766 z "
           transform="matrix(0.70000031,0,0,0.70000031,383.77144,514.99796)"
           id="path4182-6-7-5" />
        <path
           style="color:#000000;clip-rule:nonzero;display:inline;overflow:visible;visibility:visible;opacity:0.2;isolation:auto;mix-blend-mode:normal;color-interpolation:sRGB;color-interpolation-filters:linearRGB;solid-color:#000000;solid-opacity:1;fill:url(#linearGradient4285);fill-opacity:1;fill-rule:evenodd;stroke:none;stroke-width:0.5;stroke-linecap:square;stroke-linejoin:bevel;stroke-miterlimit:4;stroke-dasharray:none;stroke-dashoffset:0;stroke-opacity:1;marker:none;color-rendering:auto;image-rendering:auto;shape-rendering:auto;text-rendering:auto;enable-background:accumulate"
           d="m 400.57145,524.09796 a 7.7000034,7.7000034 0 0 0 -7.70001,7.70001 7.7000034,7.7000034 0 0 0 7.70001,7.7 7.7000034,7.7000034 0 0 0 7.7,-7.7 7.7000034,7.7000034 0 0 0 -7.7,-7.70001 z m 0,5.60001 a 2.1000009,2.1000009 0 0 1 2.1,2.1 2.1000009,2.1000009 0 0 1 -0.79434,1.64472 2.1000009,2.1000009 0 0 1 -0.35273,0.22696 2.1000009,2.1000009 0 0 1 -0.95293,0.22832 2.1000009,2.1000009 0 0 1 -1.64473,-0.79434 2.1000009,2.1000009 0 0 1 -0.22695,-0.35273 2.1000009,2.1000009 0 0 1 -0.22832,-0.95293 2.1000009,2.1000009 0 0 1 0.0109,-0.20918 2.1000009,2.1000009 0 0 1 0.48262,-1.14297 2.1000009,2.1000009 0 0 1 0,-10e-4 2.1000009,2.1000009 0 0 1 1.60645,-0.74648 z"
           id="path4277"
           inkscape:connector-curvature="0" />
        <path
           style="color:#000000;clip-rule:nonzero;display:inline;overflow:visible;visibility:visible;opacity:1;isolation:auto;mix-blend-mode:normal;color-interpolation:sRGB;color-interpolation-filters:linearRGB;solid-color:#000000;solid-opacity:1;fill:url(#linearGradient4275);fill-opacity:1;fill-rule:evenodd;stroke:none;stroke-width:0.5;stroke-linecap:square;stroke-linejoin:bevel;stroke-miterlimit:4;stroke-dasharray:none;stroke-dashoffset:0;stroke-opacity:1;marker:none;color-rendering:auto;image-rendering:auto;shape-rendering:auto;text-rendering:auto;enable-background:accumulate"
           id="path4228"
           r="2.1000009"
           cy="531.79797"
           cx="400.57144" />
        <path
           style="color:#000000;clip-rule:nonzero;display:inline;overflow:visible;visibility:visible;opacity:1;isolation:auto;mix-blend-mode:normal;color-interpolation:sRGB;color-interpolation-filters:linearRGB;solid-color:#000000;solid-opacity:1;fill:url(#linearGradient4185);fill-opacity:1;fill-rule:evenodd;stroke:none;stroke-width:0.5;stroke-linecap:square;stroke-linejoin:bevel;stroke-miterlimit:4;stroke-dasharray:none;stroke-dashoffset:0;stroke-opacity:1;marker:none;color-rendering:auto;image-rendering:auto;shape-rendering:auto;text-rendering:auto;enable-background:accumulate"
           id="path4177"
           r="2.1000009"
           cy="531.79797"
           cx="400.57144" />
        <ellipse
           style="color:#000000;clip-rule:nonzero;display:inline;overflow:visible;visibility:visible;opacity:1;isolation:auto;mix-blend-mode:normal;color-interpolation:sRGB;color-interpolation-filters:linearRGB;solid-color:#000000;solid-opacity:1;fill:url(#linearGradient4197);fill-opacity:1;fill-rule:evenodd;stroke:none;stroke-width:0.5;stroke-linecap:square;stroke-linejoin:bevel;stroke-miterlimit:4;stroke-dasharray:none;stroke-dashoffset:0;stroke-opacity:1;marker:none;color-rendering:auto;image-rendering:auto;shape-rendering:auto;text-rendering:auto;enable-background:accumulate"
           id="path4189"
           cx="400.92145"
           cy="532.14795"
           r="2.450001" />
        <circle
           style="color:#000000;clip-rule:nonzero;display:inline;overflow:visible;visibility:visible;opacity:0.2;isolation:auto;mix-blend-mode:normal;color-interpolation:sRGB;color-interpolation-filters:linearRGB;solid-color:#000000;solid-opacity:1;fill:url(#linearGradient4286);fill-opacity:1;fill-rule:evenodd;stroke:none;stroke-width:0.5;stroke-linecap:square;stroke-linejoin:bevel;stroke-miterlimit:4;stroke-dasharray:none;stroke-dashoffset:0;stroke-opacity:1;marker:none;color-rendering:auto;image-rendering:auto;shape-rendering:auto;text-rendering:auto;enable-background:accumulate"
           id="path4278"
           cx="400.57144"
           cy="531.79797"
           r="2.1000009" />
      </g>
    </g>
  </g>
</svg>
