<?xml version="1.0" encoding="UTF-8" standalone="no"?>
<!-- Created with Inkscape (http://www.inkscape.org/) -->

<svg
   xmlns:dc="http://purl.org/dc/elements/1.1/"
   xmlns:cc="http://creativecommons.org/ns#"
   xmlns:rdf="http://www.w3.org/1999/02/22-rdf-syntax-ns#"
   xmlns:svg="http://www.w3.org/2000/svg"
   xmlns="http://www.w3.org/2000/svg"
   xmlns:xlink="http://www.w3.org/1999/xlink"
   xmlns:sodipodi="http://sodipodi.sourceforge.net/DTD/sodipodi-0.dtd"
   xmlns:inkscape="http://www.inkscape.org/namespaces/inkscape"
   width="48"
   height="48"
   id="svg5453"
   version="1.1"
   inkscape:version="0.91 r13725"
   sodipodi:docname="argonaut.svg"
   inkscape:export-filename="argonaut.png"
   inkscape:export-xdpi="90"
   inkscape:export-ydpi="90">
  <defs
     id="defs5455">
    <linearGradient
       id="linearGradient4273"
       inkscape:collect="always">
      <stop
         id="stop4275"
         offset="0"
         style="stop-color:#bfc7cb;stop-opacity:1" />
      <stop
         id="stop4277"
         offset="1"
         style="stop-color:#e0e5e7;stop-opacity:1" />
    </linearGradient>
    <linearGradient
       inkscape:collect="always"
       id="linearGradient4262">
      <stop
         style="stop-color:#7a413f;stop-opacity:1"
         offset="0"
         id="stop4264" />
      <stop
         style="stop-color:#b87877;stop-opacity:1"
         offset="1"
         id="stop4266" />
    </linearGradient>
    <linearGradient
       inkscape:collect="always"
       id="linearGradient4247">
      <stop
         style="stop-color:#74a725;stop-opacity:1"
         offset="0"
         id="stop4249" />
      <stop
         style="stop-color:#8ecc2e;stop-opacity:1"
         offset="1"
         id="stop4251" />
    </linearGradient>
    <linearGradient
       id="linearGradient4211"
       inkscape:collect="always">
      <stop
         id="stop4213"
         offset="0"
         style="stop-color:#4c5358;stop-opacity:1" />
      <stop
         id="stop4215"
         offset="1"
         style="stop-color:#708085;stop-opacity:1" />
    </linearGradient>
    <style
       id="current-color-scheme"
       type="text/css">
      .ColorScheme-Text {
        color:#4d4d4d;
      }
      .ColorScheme-Background {
        color:#eff0f1;
      }
      .ColorScheme-Highlight {
        color:#3daee9;
      }
      .ColorScheme-ViewText {
        color:#31363b;
      }
      .ColorScheme-ViewBackground {
        color:#fcfcfc;
      }
      .ColorScheme-ViewHover {
        color:#93cee9;
      }
      .ColorScheme-ViewFocus{
        color:#3daee9;
      }
      .ColorScheme-ButtonText {
        color:#31363b;
      }
      .ColorScheme-ButtonBackground {
        color:#eff0f1;
      }
      .ColorScheme-ButtonHover {
        color:#93cee9;
      }
      .ColorScheme-ButtonFocus{
        color:#3daee9;
      }
      </style>
    <linearGradient
       gradientTransform="matrix(1.4285708,0,0,1.4285708,-163.67326,-235.92121)"
       y2="517.79797"
       x2="400.57144"
       y1="545.79797"
       x1="400.57144"
       gradientUnits="userSpaceOnUse"
       id="linearGradient3028-3"
       xlink:href="#linearGradient4211"
       inkscape:collect="always" />
    <linearGradient
       inkscape:collect="always"
       xlink:href="#linearGradient4273"
       id="linearGradient4209"
       x1="410.57144"
       y1="538.79797"
       x2="410.57144"
       y2="508.798"
       gradientUnits="userSpaceOnUse" />
    <linearGradient
       inkscape:collect="always"
       xlink:href="#linearGradient4247"
       id="linearGradient4253"
       x1="29"
       y1="38"
       x2="29"
       y2="10"
       gradientUnits="userSpaceOnUse" />
    <linearGradient
       inkscape:collect="always"
       xlink:href="#linearGradient4262"
       id="linearGradient4268"
       x1="404.57144"
       y1="531.79797"
       x2="404.57144"
       y2="515.79797"
       gradientUnits="userSpaceOnUse" />
  </defs>
  <sodipodi:namedview
     id="base"
     pagecolor="#ffffff"
     bordercolor="#666666"
     borderopacity="1.0"
     inkscape:pageopacity="0"
     inkscape:pageshadow="2"
     inkscape:zoom="1.9999999"
     inkscape:cx="-59.654691"
     inkscape:cy="73.278376"
     inkscape:document-units="px"
     inkscape:current-layer="layer1"
     showgrid="true"
     fit-margin-top="0"
     fit-margin-left="0"
     fit-margin-right="0"
     fit-margin-bottom="0"
     inkscape:window-width="1880"
     inkscape:window-height="1051"
     inkscape:window-x="0"
     inkscape:window-y="0"
     inkscape:window-maximized="1"
     inkscape:showpageshadow="false"
     borderlayer="true"
     showguides="true"
     inkscape:object-nodes="false">
    <inkscape:grid
       type="xygrid"
       id="grid4063" />
    <sodipodi:guide
       position="1.1650391e-05,47.999996"
       orientation="4,0"
       id="guide4146" />
    <sodipodi:guide
       position="1.1650391e-05,43.999996"
       orientation="0,48"
       id="guide4148" />
    <sodipodi:guide
       position="48.000012,43.999996"
       orientation="-4,0"
       id="guide4150" />
    <sodipodi:guide
       position="48.000012,47.999996"
       orientation="0,-48"
       id="guide4152" />
    <sodipodi:guide
       position="1.1650391e-05,4.0000264"
       orientation="4,0"
       id="guide4154" />
    <sodipodi:guide
       position="1.1650391e-05,2.6367188e-05"
       orientation="0,48"
       id="guide4156" />
    <sodipodi:guide
       position="48.000012,2.6367188e-05"
       orientation="-4,0"
       id="guide4158" />
    <sodipodi:guide
       position="48.000012,4.0000264"
       orientation="0,-48"
       id="guide4160" />
    <sodipodi:guide
       position="48.000012,48.000026"
       orientation="0,-4"
       id="guide4162" />
    <sodipodi:guide
       position="44.000012,48.000026"
       orientation="48,0"
       id="guide4164" />
    <sodipodi:guide
       position="44.000012,2.6367188e-05"
       orientation="0,4"
       id="guide4166" />
    <sodipodi:guide
       position="48.000012,2.6367188e-05"
       orientation="-48,0"
       id="guide4168" />
    <sodipodi:guide
       position="4.0000422,48.000026"
       orientation="0,-4"
       id="guide4170" />
    <sodipodi:guide
       position="4.2167969e-05,48.000026"
       orientation="48,0"
       id="guide4172" />
    <sodipodi:guide
       position="4.2167969e-05,2.6367188e-05"
       orientation="0,4"
       id="guide4174" />
    <sodipodi:guide
       position="4.0000422,2.6367188e-05"
       orientation="-48,0"
       id="guide4176" />
  </sodipodi:namedview>
  <metadata
     id="metadata5458">
    <rdf:RDF>
      <cc:Work
         rdf:about="">
        <dc:format>image/svg+xml</dc:format>
        <dc:type
           rdf:resource="http://purl.org/dc/dcmitype/StillImage" />
        <dc:title />
      </cc:Work>
    </rdf:RDF>
  </metadata>
  <g
     inkscape:label="Capa 1"
     inkscape:groupmode="layer"
     id="layer1"
     transform="translate(-384.57143,-499.798)">
    <rect
       style="fill:url(#linearGradient3028-3);fill-opacity:1;stroke:none"
       id="rect4130-0-5"
       width="40"
       height="40.000019"
       x="388.57144"
       y="503.78979"
       ry="20" />
    <ellipse
       style="color:#000000;clip-rule:nonzero;display:inline;overflow:visible;visibility:visible;opacity:1;isolation:auto;mix-blend-mode:normal;color-interpolation:sRGB;color-interpolation-filters:linearRGB;solid-color:#000000;solid-opacity:1;fill:url(#linearGradient4209);fill-opacity:1;fill-rule:evenodd;stroke:none;stroke-width:1;stroke-linecap:butt;stroke-linejoin:round;stroke-miterlimit:4;stroke-dasharray:none;stroke-dashoffset:0;stroke-opacity:1;marker:none;color-rendering:auto;image-rendering:auto;shape-rendering:auto;text-rendering:auto;enable-background:accumulate"
       id="path4201"
       ry="15.999973"
       rx="16.000011"
       cy="523.79797"
       cx="408.57144" />
    <path
       style="color:#000000;clip-rule:nonzero;display:inline;overflow:visible;visibility:visible;opacity:1;isolation:auto;mix-blend-mode:normal;color-interpolation:sRGB;color-interpolation-filters:linearRGB;solid-color:#000000;solid-opacity:1;fill:url(#linearGradient4253);fill-opacity:1;fill-rule:evenodd;stroke:none;stroke-width:1;stroke-linecap:butt;stroke-linejoin:round;stroke-miterlimit:4;stroke-dasharray:none;stroke-dashoffset:0;stroke-opacity:1;marker:none;color-rendering:auto;image-rendering:auto;shape-rendering:auto;text-rendering:auto;enable-background:accumulate"
       d="m 24,10 c -1.104569,0 -2,0.895431 -2,2 0,1.104569 0.895431,2 2,2 1.104569,0 2,-0.895431 2,-2 0,-1.104569 -0.895431,-2 -2,-2 z M 12,22 c -1.104569,0 -2,0.895431 -2,2 0,1.104569 0.895431,2 2,2 1.104569,0 2,-0.895431 2,-2 0,-1.104569 -0.895431,-2 -2,-2 z m 24,0 c -1.104569,0 -2,0.895431 -2,2 0,1.104569 0.895431,2 2,2 1.104569,0 2,-0.895431 2,-2 0,-1.104569 -0.895431,-2 -2,-2 z M 24,34 c -1.104569,0 -2,0.895431 -2,2 0,1.104569 0.895431,2 2,2 1.104569,0 2,-0.895431 2,-2 0,-1.104569 -0.895431,-2 -2,-2 z"
       transform="translate(384.57143,499.798)"
       id="path4217"
       inkscape:connector-curvature="0"
       sodipodi:nodetypes="ssssssssssssssssssss" />
    <g
       style="font-style:normal;font-variant:normal;font-weight:normal;font-stretch:normal;font-size:22.5px;line-height:125%;font-family:'URW Bookman L';-inkscape-font-specification:'URW Bookman L';letter-spacing:0px;word-spacing:0px;fill:url(#linearGradient4268);fill-opacity:1;stroke:none;stroke-width:1px;stroke-linecap:butt;stroke-linejoin:miter;stroke-opacity:1"
       id="text4255">
      <path
         d="m 411.33892,519.24173 -0.1575,0.8775 c -0.6075,-0.6525 -1.53,-1.035 -2.5425,-1.035 -2.7,0 -5.04,2.5875 -5.04,5.6025 0,1.935 1.215,3.24 3.015,3.24 1.3725,0 2.4525,-0.6525 3.5325,-2.1375 l 0,0.2475 c 0,1.035 0.72,1.89 1.5975,1.89 1.08,0 2.4525,-0.765 3.375,-1.8675 0.855,-1.0125 1.3275,-2.295 1.3275,-3.6225 0,-3.6675 -3.375,-6.66 -7.5375,-6.66 -4.5675,0 -8.2125,3.6 -8.2125,8.055 0,4.4325 3.6225,7.9875 8.145,7.9875 2.25,0 4.545,-0.945 6.03,-2.475 0.5625,-0.5625 0.9,-1.08 1.3275,-2.0475 l -1.035,0 c -0.4275,0.7425 -0.7425,1.1475 -1.2375,1.62 -1.2375,1.1475 -3.24,1.89 -5.085,1.89 -3.915,0 -7.065,-3.15 -7.065,-7.065 0,-3.8025 3.2175,-6.9525 7.0875,-6.9525 3.6675,0 6.615,2.5875 6.615,5.7825 0,1.0575 -0.36,2.115 -0.9675,2.9475 -0.6075,0.7875 -1.305,1.26 -1.89,1.26 -0.4725,0 -0.8325,-0.3825 -0.8325,-0.8775 0,-0.1575 0.045,-0.54 0.1125,-0.945 l 1.0575,-5.715 -1.62,0 z m -0.2925,1.62 c -0.4725,2.475 -0.7875,3.51 -1.4175,4.5 -0.675,1.0125 -1.7775,1.7325 -2.7,1.7325 -0.99,0 -1.6425,-0.7875 -1.6425,-1.98 0,-1.1025 0.405,-2.5425 0.9675,-3.42 0.7425,-1.17 1.71,-1.7775 2.7675,-1.7775 0.765,0 1.44,0.2925 1.935,0.855 l 0.09,0.09 z"
         style="fill:url(#linearGradient4268);fill-opacity:1"
         id="path4271" />
    </g>
  </g>
</svg>
