<?xml version="1.0" encoding="UTF-8" standalone="no"?>
<!-- Created with Inkscape (http://www.inkscape.org/) -->

<svg
   xmlns:dc="http://purl.org/dc/elements/1.1/"
   xmlns:cc="http://creativecommons.org/ns#"
   xmlns:rdf="http://www.w3.org/1999/02/22-rdf-syntax-ns#"
   xmlns:svg="http://www.w3.org/2000/svg"
   xmlns="http://www.w3.org/2000/svg"
   xmlns:sodipodi="http://sodipodi.sourceforge.net/DTD/sodipodi-0.dtd"
   xmlns:inkscape="http://www.inkscape.org/namespaces/inkscape"
   width="16"
   height="16"
   id="svg3049"
   version="1.1"
   inkscape:version="0.91 r13725"
   sodipodi:docname="fusioninventory.svg"
   inkscape:export-filename="fusioninventory.png"
   inkscape:export-xdpi="90"
   inkscape:export-ydpi="90">
  <defs
     id="defs3051">
    <style
       type="text/css"
       id="current-color-scheme">
      .ColorScheme-Text {
        color:#4d4d4d;
      }
      .ColorScheme-Background {
        color:#eff0f1;
      }
      .ColorScheme-Highlight {
        color:#3daee9;
      }
      .ColorScheme-ViewText {
        color:#31363b;
      }
      .ColorScheme-ViewBackground {
        color:#fcfcfc;
      }
      .ColorScheme-ViewHover {
        color:#93cee9;
      }
      .ColorScheme-ViewFocus{
        color:#3daee9;
      }
      .ColorScheme-ButtonText {
        color:#31363b;
      }
      .ColorScheme-ButtonBackground {
        color:#eff0f1;
      }
      .ColorScheme-ButtonHover {
        color:#93cee9;
      }
      .ColorScheme-ButtonFocus{
        color:#3daee9;
      }
      </style>
    <style
       id="current-color-scheme-7"
       type="text/css">
      .ColorScheme-Text {
        color:#4d4d4d;
      }
      .ColorScheme-Background {
        color:#eff0f1;
      }
      .ColorScheme-Highlight {
        color:#3daee9;
      }
      .ColorScheme-ViewText {
        color:#31363b;
      }
      .ColorScheme-ViewBackground {
        color:#fcfcfc;
      }
      .ColorScheme-ViewHover {
        color:#93cee9;
      }
      .ColorScheme-ViewFocus{
        color:#3daee9;
      }
      .ColorScheme-ButtonText {
        color:#31363b;
      }
      .ColorScheme-ButtonBackground {
        color:#eff0f1;
      }
      .ColorScheme-ButtonHover {
        color:#93cee9;
      }
      .ColorScheme-ButtonFocus{
        color:#3daee9;
      }
      </style>
  </defs>
  <sodipodi:namedview
     id="base"
     pagecolor="#ffffff"
     bordercolor="#666666"
     borderopacity="1.0"
     inkscape:pageopacity="0.0"
     inkscape:pageshadow="2"
     inkscape:zoom="12.205653"
     inkscape:cx="4.9447967"
     inkscape:cy="4.9001734"
     inkscape:document-units="px"
     inkscape:current-layer="layer1"
     showgrid="true"
     fit-margin-top="0"
     fit-margin-left="0"
     fit-margin-right="0"
     fit-margin-bottom="0"
     inkscape:window-width="1880"
     inkscape:window-height="1051"
     inkscape:window-x="0"
     inkscape:window-y="0"
     inkscape:window-maximized="1"
     inkscape:showpageshadow="false"
     borderlayer="true"
     inkscape:snap-bbox="true"
     inkscape:snap-global="true">
    <inkscape:grid
       type="xygrid"
       id="grid4085" />
    <sodipodi:guide
       position="2.0000044,14.00003"
       orientation="12,0"
       id="guide4075" />
    <sodipodi:guide
       position="2.0000044,2.0000296"
       orientation="0,12"
       id="guide4077" />
    <sodipodi:guide
       position="14.000004,2.0000296"
       orientation="-12,0"
       id="guide4079" />
    <sodipodi:guide
       position="14.000004,14.00003"
       orientation="0,-12"
       id="guide4081" />
  </sodipodi:namedview>
  <metadata
     id="metadata3054">
    <rdf:RDF>
      <cc:Work
         rdf:about="">
        <dc:format>image/svg+xml</dc:format>
        <dc:type
           rdf:resource="http://purl.org/dc/dcmitype/StillImage" />
        <dc:title />
      </cc:Work>
    </rdf:RDF>
  </metadata>
  <g
     inkscape:label="Capa 1"
     inkscape:groupmode="layer"
     id="layer1"
     transform="translate(-421.71429,-531.79074)">
    <path
       inkscape:connector-curvature="0"
       style="color:#4d4d4d;font-style:normal;font-variant:normal;font-weight:normal;font-stretch:normal;font-size:medium;line-height:normal;font-family:Sans;-inkscape-font-specification:Sans;text-indent:0;text-align:start;text-decoration:none;text-decoration-line:none;letter-spacing:normal;word-spacing:normal;text-transform:none;direction:ltr;block-progression:tb;writing-mode:lr-tb;baseline-shift:baseline;text-anchor:start;display:inline;overflow:visible;visibility:visible;fill:#1d99f3;fill-opacity:1;stroke:none;stroke-width:6.66667509;marker:none;enable-background:accumulate"
       d="m 429.71428,534.79076 c -0.92401,0 -1.78339,0.26611 -2.52603,0.70312 l 0.46875,0.46875 0.15625,0.15625 1.61457,1.61458 0.59896,-0.59896 -1.35416,-1.35416 c 0.16278,-0.0426 0.32488,-0.0814 0.49479,-0.10417 0.0437,-0.007 0.0861,-0.021 0.1302,-0.026 0.14009,-0.0143 0.27284,-0.026 0.41668,-0.026 2.30117,0 4.16665,1.86548 4.16665,4.16665 0,0.20252 -0.0238,0.40459 -0.0521,0.59896 -0.0166,0.11354 -0.0265,0.22817 -0.0521,0.33854 -0.0558,0.23882 -0.13887,0.45635 -0.23437,0.67708 -0.0111,0.0256 -0.0145,0.0528 -0.026,0.0781 -0.0342,0.0764 -0.0902,0.13611 -0.1302,0.20834 -0.004,0.007 0.003,0.0192 0,0.026 l 0.625,0.59895 c 0.43701,-0.74264 0.70312,-1.60202 0.70312,-2.52603 0,-2.76141 -2.23857,-4.99998 -4.99998,-4.99998 z m -4.29686,2.47395 c -0.43701,0.74265 -0.70312,1.60202 -0.70312,2.52603 0,2.76141 2.23857,4.99998 4.99998,4.99998 0.92401,0 1.78338,-0.26611 2.52603,-0.70312 l -0.46875,-0.46875 -0.15625,-0.15625 -1.61457,-1.58853 -0.57292,0.57291 1.32812,1.35416 c -0.16278,0.0426 -0.32488,0.0814 -0.49479,0.10417 -0.0437,0.007 -0.0861,0.021 -0.13021,0.026 -0.14007,0.0143 -0.27284,0.026 -0.41666,0.026 -0.14383,0 -0.27659,-0.0118 -0.41667,-0.026 -0.14007,-0.0142 -0.28104,-0.0243 -0.41666,-0.0521 -1.89868,-0.38852 -3.33332,-2.07499 -3.33332,-4.08852 0,-0.20688 0.023,-0.40016 0.0521,-0.59896 0.0167,-0.11354 0.0265,-0.22816 0.0521,-0.33854 0.0558,-0.23881 0.13887,-0.45635 0.23437,-0.67708 0.0108,-0.0256 0.0147,-0.0528 0.026,-0.0781 0.0338,-0.0741 0.0905,-0.13728 0.13021,-0.20833 l 0,-0.026 -0.625,-0.59896 z"
       id="path8579-9"
       class="ColorScheme-Text" />
    <path
       style="color:#000000;clip-rule:nonzero;display:inline;overflow:visible;visibility:visible;opacity:1;isolation:auto;mix-blend-mode:normal;color-interpolation:sRGB;color-interpolation-filters:linearRGB;solid-color:#000000;solid-opacity:1;fill:#4d4d4d;fill-opacity:1;fill-rule:evenodd;stroke:none;stroke-width:0.5;stroke-linecap:square;stroke-linejoin:bevel;stroke-miterlimit:4;stroke-dasharray:none;stroke-dashoffset:0;stroke-opacity:1;marker:none;color-rendering:auto;image-rendering:auto;shape-rendering:auto;text-rendering:auto;enable-background:accumulate"
       d="M 8 0 A 8 8 0 0 0 0 8 A 8 8 0 0 0 8 16 A 8 8 0 0 0 16 8 A 8 8 0 0 0 8 0 z M 8 1 A 7 7 0 0 1 15 8 A 7 7 0 0 1 8 15 A 7 7 0 0 1 1 8 A 7 7 0 0 1 8 1 z "
       transform="translate(421.71429,531.79074)"
       id="path4159" />
  </g>
</svg>
