<?xml version="1.0" encoding="UTF-8" standalone="no"?>
<!-- Created with Inkscape (http://www.inkscape.org/) -->

<svg
   xmlns:dc="http://purl.org/dc/elements/1.1/"
   xmlns:cc="http://creativecommons.org/ns#"
   xmlns:rdf="http://www.w3.org/1999/02/22-rdf-syntax-ns#"
   xmlns:svg="http://www.w3.org/2000/svg"
   xmlns="http://www.w3.org/2000/svg"
   xmlns:sodipodi="http://sodipodi.sourceforge.net/DTD/sodipodi-0.dtd"
   xmlns:inkscape="http://www.inkscape.org/namespaces/inkscape"
   width="16"
   height="16"
   id="svg3049"
   version="1.1"
   inkscape:version="0.91 r13725"
   sodipodi:docname="argonaut.svg"
   inkscape:export-filename="argonaut.png"
   inkscape:export-xdpi="90"
   inkscape:export-ydpi="90">
  <defs
     id="defs3051">
    <style
       type="text/css"
       id="current-color-scheme">
      .ColorScheme-Text {
        color:#4d4d4d;
      }
      .ColorScheme-Background {
        color:#eff0f1;
      }
      .ColorScheme-Highlight {
        color:#3daee9;
      }
      .ColorScheme-ViewText {
        color:#31363b;
      }
      .ColorScheme-ViewBackground {
        color:#fcfcfc;
      }
      .ColorScheme-ViewHover {
        color:#93cee9;
      }
      .ColorScheme-ViewFocus{
        color:#3daee9;
      }
      .ColorScheme-ButtonText {
        color:#31363b;
      }
      .ColorScheme-ButtonBackground {
        color:#eff0f1;
      }
      .ColorScheme-ButtonHover {
        color:#93cee9;
      }
      .ColorScheme-ButtonFocus{
        color:#3daee9;
      }
      </style>
  </defs>
  <sodipodi:namedview
     id="base"
     pagecolor="#ffffff"
     bordercolor="#666666"
     borderopacity="1.0"
     inkscape:pageopacity="0.0"
     inkscape:pageshadow="2"
     inkscape:zoom="34.5228"
     inkscape:cx="6.0505466"
     inkscape:cy="5.3548759"
     inkscape:document-units="px"
     inkscape:current-layer="layer1"
     showgrid="true"
     fit-margin-top="0"
     fit-margin-left="0"
     fit-margin-right="0"
     fit-margin-bottom="0"
     inkscape:window-width="1880"
     inkscape:window-height="1051"
     inkscape:window-x="0"
     inkscape:window-y="0"
     inkscape:window-maximized="1"
     inkscape:showpageshadow="false"
     borderlayer="true"
     inkscape:snap-bbox="true"
     inkscape:snap-global="true"
     inkscape:object-nodes="true">
    <inkscape:grid
       type="xygrid"
       id="grid4085" />
    <sodipodi:guide
       position="2.0000044,14.00003"
       orientation="12,0"
       id="guide4075" />
    <sodipodi:guide
       position="2.0000044,2.0000296"
       orientation="0,12"
       id="guide4077" />
    <sodipodi:guide
       position="14.000004,2.0000296"
       orientation="-12,0"
       id="guide4079" />
    <sodipodi:guide
       position="14.000004,14.00003"
       orientation="0,-12"
       id="guide4081" />
  </sodipodi:namedview>
  <metadata
     id="metadata3054">
    <rdf:RDF>
      <cc:Work
         rdf:about="">
        <dc:format>image/svg+xml</dc:format>
        <dc:type
           rdf:resource="http://purl.org/dc/dcmitype/StillImage" />
        <dc:title />
      </cc:Work>
    </rdf:RDF>
  </metadata>
  <g
     inkscape:label="Capa 1"
     inkscape:groupmode="layer"
     id="layer1"
     transform="translate(-421.71429,-531.79074)">
    <path
       style="fill:#4d4d4d;fill-opacity:1;stroke:none"
       d="M 8 1 C 4.122 1 1 4.122 1 8 C 1 11.878 4.122 15 8 15 C 11.878 15 15 11.878 15 8 C 15 4.122 11.878 1 8 1 z M 8 2 A 5.9999976 5.9999852 0 0 1 14 8 A 5.9999976 5.9999852 0 0 1 8 14 A 5.9999976 5.9999852 0 0 1 2 8 A 5.9999976 5.9999852 0 0 1 8 2 z "
       transform="translate(421.71429,531.79074)"
       id="rect4130-0-5" />
    <g
       style="font-style:normal;font-weight:normal;font-size:9.11234665px;line-height:125%;font-family:Sans;letter-spacing:0px;word-spacing:0px;fill:#894f4f;fill-opacity:1;stroke:none;stroke-width:1px;stroke-linecap:butt;stroke-linejoin:miter;stroke-opacity:1"
       id="text4891">
      <path
         d="m 428.56634,539.81747 q 0,0.63626 0.3159,1.00111 0.31591,0.3604 0.86763,0.3604 0.54728,0 0.85874,-0.36485 0.3159,-0.36485 0.3159,-0.99666 0,-0.62292 -0.32035,-0.98777 -0.32036,-0.3693 -0.86318,-0.3693 -0.53838,0 -0.85874,0.36485 -0.3159,0.36485 -0.3159,0.99222 z m 2.42491,1.33036 q -0.26696,0.34261 -0.61401,0.50723 -0.3426,0.16018 -0.80089,0.16018 -0.7653,0 -1.24583,-0.55172 -0.47609,-0.55618 -0.47609,-1.44605 0,-0.88988 0.48054,-1.44606 0.48053,-0.55617 1.24138,-0.55617 0.45829,0 0.80534,0.16908 0.34705,0.16463 0.60956,0.50278 l 0,-0.58287 0.63627,0 0,3.27475 q 0.64961,-0.0979 1.01446,-0.59177 0.3693,-0.49833 0.3693,-1.28587 0,-0.47609 -0.14238,-0.89433 -0.13794,-0.41824 -0.4227,-0.77419 -0.46273,-0.58287 -1.13014,-0.88988 -0.66296,-0.31146 -1.44605,-0.31146 -0.54728,0 -1.05006,0.14683 -0.50278,0.14238 -0.92992,0.42714 -0.69855,0.45384 -1.09455,1.19244 -0.39155,0.73415 -0.39155,1.59288 0,0.70745 0.25362,1.32592 0.25806,0.61846 0.74305,1.0901 0.46718,0.46273 1.0812,0.703 0.61401,0.24472 1.31257,0.24472 0.57397,0 1.12569,-0.19578 0.55618,-0.19132 1.01891,-0.55172 l 0.40045,0.49388 q -0.55618,0.43159 -1.21468,0.65851 -0.65406,0.23137 -1.33037,0.23137 -0.82314,0 -1.55284,-0.29366 -0.7297,-0.28921 -1.29922,-0.84538 -0.56952,-0.55618 -0.86763,-1.28588 -0.29811,-0.73415 -0.29811,-1.57508 0,-0.80979 0.30256,-1.54394 0.30256,-0.73415 0.86318,-1.29032 0.57397,-0.56507 1.32592,-0.86318 0.75194,-0.30256 1.59288,-0.30256 0.94327,0 1.74861,0.3871 0.80979,0.38709 1.35706,1.099 0.33371,0.43604 0.50723,0.94771 0.17798,0.51168 0.17798,1.05896 0,1.17019 -0.70746,1.8465 -0.70745,0.6763 -1.95328,0.703 l 0,-0.68521 z"
         style="fill:#894f4f;fill-opacity:1"
         id="path4897" />
    </g>
  </g>
</svg>
