<?xml version="1.0" encoding="UTF-8" standalone="no"?>
<!-- Created with Inkscape (http://www.inkscape.org/) -->

<svg
   xmlns:dc="http://purl.org/dc/elements/1.1/"
   xmlns:cc="http://creativecommons.org/ns#"
   xmlns:rdf="http://www.w3.org/1999/02/22-rdf-syntax-ns#"
   xmlns:svg="http://www.w3.org/2000/svg"
   xmlns="http://www.w3.org/2000/svg"
   xmlns:sodipodi="http://sodipodi.sourceforge.net/DTD/sodipodi-0.dtd"
   xmlns:inkscape="http://www.inkscape.org/namespaces/inkscape"
   width="16"
   height="16"
   id="svg3049"
   version="1.1"
   inkscape:version="0.91 r13725"
   sodipodi:docname="argonaut-fuse.svg"
   inkscape:export-filename="argonaut-fuse.png"
   inkscape:export-xdpi="90"
   inkscape:export-ydpi="90">
  <defs
     id="defs3051">
    <style
       type="text/css"
       id="current-color-scheme">
      .ColorScheme-Text {
        color:#4d4d4d;
      }
      .ColorScheme-Background {
        color:#eff0f1;
      }
      .ColorScheme-Highlight {
        color:#3daee9;
      }
      .ColorScheme-ViewText {
        color:#31363b;
      }
      .ColorScheme-ViewBackground {
        color:#fcfcfc;
      }
      .ColorScheme-ViewHover {
        color:#93cee9;
      }
      .ColorScheme-ViewFocus{
        color:#3daee9;
      }
      .ColorScheme-ButtonText {
        color:#31363b;
      }
      .ColorScheme-ButtonBackground {
        color:#eff0f1;
      }
      .ColorScheme-ButtonHover {
        color:#93cee9;
      }
      .ColorScheme-ButtonFocus{
        color:#3daee9;
      }
      </style>
  </defs>
  <sodipodi:namedview
     id="base"
     pagecolor="#ffffff"
     bordercolor="#666666"
     borderopacity="1.0"
     inkscape:pageopacity="0.0"
     inkscape:pageshadow="2"
     inkscape:zoom="34.5228"
     inkscape:cx="4.0373843"
     inkscape:cy="4.9493468"
     inkscape:document-units="px"
     inkscape:current-layer="layer1"
     showgrid="true"
     fit-margin-top="0"
     fit-margin-left="0"
     fit-margin-right="0"
     fit-margin-bottom="0"
     inkscape:window-width="1880"
     inkscape:window-height="1051"
     inkscape:window-x="0"
     inkscape:window-y="0"
     inkscape:window-maximized="1"
     inkscape:showpageshadow="false"
     borderlayer="true"
     inkscape:snap-bbox="true"
     inkscape:snap-global="true"
     inkscape:object-nodes="true">
    <inkscape:grid
       type="xygrid"
       id="grid4085" />
    <sodipodi:guide
       position="2.0000044,14.00003"
       orientation="12,0"
       id="guide4075" />
    <sodipodi:guide
       position="2.0000044,2.0000296"
       orientation="0,12"
       id="guide4077" />
    <sodipodi:guide
       position="14.000004,2.0000296"
       orientation="-12,0"
       id="guide4079" />
    <sodipodi:guide
       position="14.000004,14.00003"
       orientation="0,-12"
       id="guide4081" />
  </sodipodi:namedview>
  <metadata
     id="metadata3054">
    <rdf:RDF>
      <cc:Work
         rdf:about="">
        <dc:format>image/svg+xml</dc:format>
        <dc:type
           rdf:resource="http://purl.org/dc/dcmitype/StillImage" />
        <dc:title />
      </cc:Work>
    </rdf:RDF>
  </metadata>
  <g
     inkscape:label="Capa 1"
     inkscape:groupmode="layer"
     id="layer1"
     transform="translate(-421.71429,-531.79074)">
    <path
       style="fill:#4d4d4d;fill-opacity:1;stroke:none"
       d="M 8 0 C 4.122 0 1 3.122 1 7 C 1 8.0763213 1.2473342 9.0907347 1.6777344 10 L 2.8125 10 A 5.9999976 5.9999852 0 0 1 2 7 A 5.9999976 5.9999852 0 0 1 8 1 A 5.9999976 5.9999852 0 0 1 14 7 A 5.9999976 5.9999852 0 0 1 13.189453 10 L 14.322266 10 C 14.752666 9.0907347 15 8.0763213 15 7 C 15 3.122 11.878 0 8 0 z "
       transform="translate(421.71429,531.79074)"
       id="rect4130-0-5" />
    <path
       style="font-style:normal;font-weight:normal;font-size:medium;line-height:125%;font-family:Sans;letter-spacing:0px;word-spacing:0px;fill:#894f4f;fill-opacity:1;stroke:none;stroke-width:1px;stroke-linecap:butt;stroke-linejoin:miter;stroke-opacity:1"
       d="M 8.1464844,3 C 7.5858577,3 7.0559808,3.1010277 6.5546875,3.3027344 6.0533875,3.5014744 5.6111623,3.7893023 5.2285156,4.1660156 4.854769,4.5367956 4.566941,4.9675979 4.3652344,5.4570312 4.1635277,5.9464646 4.0625,6.46014 4.0625,7 c 0,0.56062 0.1000881,1.0847854 0.2988281,1.5742188 0.19874,0.4864666 0.4875075,0.9163227 0.8671875,1.2871093 C 5.2825754,9.9141207 5.3461191,9.9508154 5.4023438,10 l 1.1328124,0 C 6.2237814,9.8481939 5.934417,9.6625152 5.6855469,9.4160156 5.3622202,9.101589 5.1153994,8.7384785 4.9433594,8.3261719 4.7742794,7.9138585 4.6894531,7.4716333 4.6894531,7 c 0,-0.5724867 0.1315448,-1.1043167 0.3925781,-1.59375 0.2640001,-0.4924 0.62805,-0.8888462 1.09375,-1.1914062 C 6.4605413,4.0250037 6.7702821,3.8820294 7.1054688,3.7871094 7.4406554,3.6892227 7.7913967,3.640625 8.15625,3.640625 c 0.52206,0 1.0033392,0.10486 1.4453125,0.3125 0.4449395,0.2046733 0.8223725,0.5000919 1.1308595,0.8886719 0.18984,0.2373 0.329915,0.4965639 0.421875,0.7753906 0.09492,0.2788267 0.142578,0.5751848 0.142578,0.8925781 0,0.5250267 -0.122941,0.9548894 -0.369141,1.2871094 -0.243233,0.3292467 -0.580598,0.5265302 -1.0136715,0.5917969 l 0,-3.2753907 -0.6367187,0 0,0.5839844 C 9.1023371,5.4718323 8.8993354,5.3031127 8.6679688,5.1933594 8.4366021,5.0806394 8.1668548,5.0253906 7.8613281,5.0253906 c -0.5072333,0 -0.919881,0.1839075 -1.2402343,0.5546875 C 6.3007337,5.9508648 6.140625,6.4340904 6.140625,7.0273438 c 0,0.5932466 0.1591692,1.0745258 0.4765625,1.4453124 0.3203533,0.3678134 0.7339406,0.5527344 1.2441406,0.5527344 0.3055267,0 0.5723813,-0.05337 0.8007813,-0.1601562 C 8.893476,8.7554877 9.0993704,8.5858285 9.2773438,8.3574219 l 0,0.6855469 C 10.107897,9.0251687 10.758835,8.7907104 11.230469,8.3398438 11.702109,7.8889704 11.9375,7.2723142 11.9375,6.4921875 11.9375,6.1273342 11.878419,5.7747137 11.759766,5.4335938 11.644086,5.0924804 11.474426,4.7770215 11.251953,4.4863281 10.887106,4.0117215 10.434391,3.6447787 9.8945312,3.3867188 9.3576379,3.1286521 8.775331,3 8.1464844,3 Z M 8.0273438,5.6699219 c 0.36188,0 0.6497079,0.1229406 0.8632812,0.3691406 0.2135667,0.2432333 0.3203125,0.5730012 0.3203125,0.9882813 0,0.4212066 -0.1058063,0.7528604 -0.3164063,0.9960937 -0.20764,0.2432333 -0.4945216,0.3652344 -0.859375,0.3652344 -0.3678133,0 -0.6565808,-0.1210615 -0.8671874,-0.3613281 -0.2106,-0.2432334 -0.3164063,-0.5758267 -0.3164063,-1 0,-0.4182467 0.1058063,-0.7489542 0.3164063,-0.9921876 0.2135733,-0.2432333 0.5004549,-0.3652343 0.859375,-0.3652343 z"
       transform="translate(421.71429,531.79074)"
       id="path4897"
       inkscape:connector-curvature="0"
       sodipodi:nodetypes="sccsscsccccscccscccsccccccssscscccsscccsscscscscs" />
    <path
       style="fill:#4d4d4d;fill-opacity:1;fill-rule:evenodd;stroke:none;stroke-width:1px;stroke-linecap:butt;stroke-linejoin:miter;stroke-opacity:1"
       d="m 422.71429,547.79074 1,0 0,-2 1,0 0,-1 -1,-3e-5 0,-0.99997 2,0 0,-1 -3,0 z"
       id="path4146"
       inkscape:connector-curvature="0"
       sodipodi:nodetypes="ccccccccccc" />
    <path
       style="fill:#4d4d4d;fill-opacity:1;fill-rule:evenodd;stroke:none;stroke-width:1px;stroke-linecap:butt;stroke-linejoin:miter;stroke-opacity:1"
       d="m 426.71429,542.79074 0,5 3,0 0,-5 -1,0 0,4 -1,0 0,-4 z"
       id="path4148"
       inkscape:connector-curvature="0"
       sodipodi:nodetypes="ccccccccc" />
    <path
       style="fill:#4d4d4d;fill-opacity:1;fill-rule:evenodd;stroke:none;stroke-width:1px;stroke-linecap:butt;stroke-linejoin:miter;stroke-opacity:1"
       d="m 431.71429,542.79074 0,1 1,0 1,0 0,-1 -2,0 z m 0,1 -1,0 0,1 1,0 0,-1 z m 0,1 0,1 1,0 0,-1 -1,0 z m 1,1 0,1 1,0 0,-1 -1,0 z m 0,1 -1,0 -1,0 0,1 2,0 0,-1 z"
       id="path4150"
       inkscape:connector-curvature="0" />
    <path
       style="fill:#4d4d4d;fill-opacity:1;fill-rule:evenodd;stroke:none;stroke-width:1px;stroke-linecap:butt;stroke-linejoin:miter;stroke-opacity:1"
       d="m 434.71429,542.79074 0,5 3,0 0,-1 -2,0 0,-1 1,-3e-5 0,-0.99997 -1,0 0,-1 2,0 0,-1 z"
       id="path4152"
       inkscape:connector-curvature="0" />
  </g>
</svg>
