<?xml version="1.0" encoding="UTF-8" standalone="no"?>
<!-- Created with Inkscape (http://www.inkscape.org/) -->

<svg
   xmlns:dc="http://purl.org/dc/elements/1.1/"
   xmlns:cc="http://creativecommons.org/ns#"
   xmlns:rdf="http://www.w3.org/1999/02/22-rdf-syntax-ns#"
   xmlns:svg="http://www.w3.org/2000/svg"
   xmlns="http://www.w3.org/2000/svg"
   xmlns:xlink="http://www.w3.org/1999/xlink"
   xmlns:sodipodi="http://sodipodi.sourceforge.net/DTD/sodipodi-0.dtd"
   xmlns:inkscape="http://www.inkscape.org/namespaces/inkscape"
   width="48"
   height="48"
   id="svg5453"
   version="1.1"
   inkscape:version="0.91 r13725"
   sodipodi:docname="ssh.svg"
   inkscape:export-filename="ssh.png"
   inkscape:export-xdpi="90"
   inkscape:export-ydpi="90">
  <defs
     id="defs5455">
    <linearGradient
       inkscape:collect="always"
       id="linearGradient4410">
      <stop
         style="stop-color:#fdbc4b;stop-opacity:0.66046512"
         offset="0"
         id="stop4412" />
      <stop
         style="stop-color:#fdbc4b;stop-opacity:1"
         offset="1"
         id="stop4414" />
    </linearGradient>
    <linearGradient
       inkscape:collect="always"
       id="linearGradient4375">
      <stop
         style="stop-color:#313131;stop-opacity:1"
         offset="0"
         id="stop4377" />
      <stop
         style="stop-color:#4d4d4d;stop-opacity:0.98604649"
         offset="1"
         id="stop4379" />
    </linearGradient>
    <linearGradient
       inkscape:collect="always"
       id="linearGradient4227">
      <stop
         style="stop-color:#292c2f;stop-opacity:1"
         offset="0"
         id="stop4229" />
      <stop
         style="stop-color:#000000;stop-opacity:0;"
         offset="1"
         id="stop4231" />
    </linearGradient>
    <linearGradient
       gradientTransform="translate(-5.8399973e-6,0)"
       gradientUnits="userSpaceOnUse"
       y2="517.79797"
       x2="400.57144"
       y1="545.79797"
       x1="400.57144"
       id="linearGradient4238"
       xlink:href="#linearGradient4303"
       inkscape:collect="always" />
    <linearGradient
       inkscape:collect="always"
       id="linearGradient4303">
      <stop
         style="stop-color:#c6cdd1;stop-opacity:1"
         offset="0"
         id="stop4305" />
      <stop
         style="stop-color:#e0e5e7;stop-opacity:1"
         offset="1"
         id="stop4307" />
    </linearGradient>
    <style
       id="current-color-scheme"
       type="text/css">
      .ColorScheme-Text {
        color:#4d4d4d;
      }
      .ColorScheme-Background {
        color:#eff0f1;
      }
      .ColorScheme-Highlight {
        color:#3daee9;
      }
      .ColorScheme-ViewText {
        color:#31363b;
      }
      .ColorScheme-ViewBackground {
        color:#fcfcfc;
      }
      .ColorScheme-ViewHover {
        color:#93cee9;
      }
      .ColorScheme-ViewFocus{
        color:#3daee9;
      }
      .ColorScheme-ButtonText {
        color:#31363b;
      }
      .ColorScheme-ButtonBackground {
        color:#eff0f1;
      }
      .ColorScheme-ButtonHover {
        color:#93cee9;
      }
      .ColorScheme-ButtonFocus{
        color:#3daee9;
      }
      </style>
    <linearGradient
       inkscape:collect="always"
       xlink:href="#linearGradient4375"
       id="linearGradient4381"
       x1="405.5499"
       y1="526.53046"
       x2="405.5499"
       y2="530.02625"
       gradientUnits="userSpaceOnUse"
       gradientTransform="translate(0,0.70000456)" />
    <linearGradient
       inkscape:collect="always"
       xlink:href="#linearGradient4227"
       id="linearGradient4408"
       x1="391.30524"
       y1="522.52808"
       x2="409.01392"
       y2="540.23676"
       gradientUnits="userSpaceOnUse"
       gradientTransform="matrix(1.4285708,0,0,1.4285708,-548.37726,-734.82716)" />
    <linearGradient
       inkscape:collect="always"
       xlink:href="#linearGradient4410"
       id="linearGradient4416"
       x1="18.1875"
       y1="33.829102"
       x2="18.1875"
       y2="9.1416006"
       gradientUnits="userSpaceOnUse"
       gradientTransform="matrix(0.70000031,0,0,0.70000031,383.77144,515.69796)" />
    <linearGradient
       inkscape:collect="always"
       xlink:href="#linearGradient4410"
       id="linearGradient4424"
       x1="398.99463"
       y1="541.12817"
       x2="398.99463"
       y2="533.1969"
       gradientUnits="userSpaceOnUse"
       gradientTransform="translate(0,0.70000456)" />
  </defs>
  <sodipodi:namedview
     id="base"
     pagecolor="#ffffff"
     bordercolor="#666666"
     borderopacity="1.0"
     inkscape:pageopacity="0"
     inkscape:pageshadow="2"
     inkscape:zoom="15.999999"
     inkscape:cx="13.139888"
     inkscape:cy="24.476378"
     inkscape:document-units="px"
     inkscape:current-layer="layer1-9"
     showgrid="true"
     fit-margin-top="0"
     fit-margin-left="0"
     fit-margin-right="0"
     fit-margin-bottom="0"
     inkscape:window-width="1880"
     inkscape:window-height="1051"
     inkscape:window-x="0"
     inkscape:window-y="0"
     inkscape:window-maximized="1"
     inkscape:showpageshadow="false"
     borderlayer="true"
     showguides="true"
     inkscape:object-nodes="true"
     inkscape:snap-global="false">
    <inkscape:grid
       type="xygrid"
       id="grid4063" />
    <sodipodi:guide
       position="1.1650391e-05,47.999996"
       orientation="4,0"
       id="guide4146" />
    <sodipodi:guide
       position="1.1650391e-05,43.999996"
       orientation="0,48"
       id="guide4148" />
    <sodipodi:guide
       position="48.000012,43.999996"
       orientation="-4,0"
       id="guide4150" />
    <sodipodi:guide
       position="48.000012,47.999996"
       orientation="0,-48"
       id="guide4152" />
    <sodipodi:guide
       position="1.1650391e-05,4.0000264"
       orientation="4,0"
       id="guide4154" />
    <sodipodi:guide
       position="1.1650391e-05,2.6367188e-05"
       orientation="0,48"
       id="guide4156" />
    <sodipodi:guide
       position="48.000012,2.6367188e-05"
       orientation="-4,0"
       id="guide4158" />
    <sodipodi:guide
       position="48.000012,4.0000264"
       orientation="0,-48"
       id="guide4160" />
    <sodipodi:guide
       position="48.000012,48.000026"
       orientation="0,-4"
       id="guide4162" />
    <sodipodi:guide
       position="44.000012,48.000026"
       orientation="48,0"
       id="guide4164" />
    <sodipodi:guide
       position="44.000012,2.6367188e-05"
       orientation="0,4"
       id="guide4166" />
    <sodipodi:guide
       position="48.000012,2.6367188e-05"
       orientation="-48,0"
       id="guide4168" />
    <sodipodi:guide
       position="4.0000422,48.000026"
       orientation="0,-4"
       id="guide4170" />
    <sodipodi:guide
       position="4.2167969e-05,48.000026"
       orientation="48,0"
       id="guide4172" />
    <sodipodi:guide
       position="4.2167969e-05,2.6367188e-05"
       orientation="0,4"
       id="guide4174" />
    <sodipodi:guide
       position="4.0000422,2.6367188e-05"
       orientation="-48,0"
       id="guide4176" />
    <sodipodi:guide
       position="20.000012,43.999996"
       orientation="39.999969,0"
       id="guide4153" />
    <sodipodi:guide
       position="20.000012,4.0000264"
       orientation="0,8"
       id="guide4155" />
    <sodipodi:guide
       position="28.000012,4.0000264"
       orientation="-39.999969,0"
       id="guide4157" />
    <sodipodi:guide
       position="28.000012,43.999996"
       orientation="0,-8"
       id="guide4159" />
  </sodipodi:namedview>
  <metadata
     id="metadata5458">
    <rdf:RDF>
      <cc:Work
         rdf:about="">
        <dc:format>image/svg+xml</dc:format>
        <dc:type
           rdf:resource="http://purl.org/dc/dcmitype/StillImage" />
        <dc:title />
      </cc:Work>
    </rdf:RDF>
  </metadata>
  <g
     inkscape:label="Capa 1"
     inkscape:groupmode="layer"
     id="layer1"
     transform="translate(-384.57143,-499.798)"
     style="display:inline">
    <g
       transform="matrix(1.4285708,0,0,1.4285708,-163.67324,-235.91308)"
       id="layer1-7"
       inkscape:label="Capa 1">
      <g
         transform="translate(-2.5589574e-6,2.2518306e-5)"
         id="layer1-9"
         inkscape:label="Capa 1">
        <rect
           rx="13.999994"
           ry="13.999994"
           y="517.79797"
           x="386.57144"
           height="28"
           width="27.999989"
           id="rect4175"
           style="opacity:1;fill:url(#linearGradient4238);fill-opacity:1;stroke:none" />
        <path
           style="opacity:0.2;fill:url(#linearGradient4408);fill-opacity:1;fill-rule:evenodd;stroke:none;stroke-width:0.70000029px;stroke-linecap:butt;stroke-linejoin:miter;stroke-opacity:1"
           d="M 29.080078 8.8886719 L 27.996094 13.373047 L 25.898438 11.275391 L 25.875 12.048828 L 22.804688 8.9765625 L 23.554688 13.009766 L 19.3125 21.484375 L 10.513672 21.414062 L 14.580078 25.480469 L 11.804688 26.949219 L 19.980469 35.125 L 18.880859 38.900391 L 23.980469 44 C 23.987009 44.000006 23.993459 44 24 44 C 35.079991 44 44 35.079991 44 24 C 44 23.432183 43.969771 22.871968 43.923828 22.316406 L 33.5 11.892578 L 32.802734 12.611328 L 29.080078 8.8886719 z "
           transform="matrix(0.70000031,0,0,0.70000031,383.77144,514.99796)"
           id="path4400" />
        <path
           inkscape:connector-curvature="0"
           style="display:inline;fill:#8c5a02;fill-opacity:1;fill-rule:evenodd;stroke:none;stroke-width:0.70000029px;stroke-linecap:butt;stroke-linejoin:miter;stroke-opacity:1"
           d="m 399.53114,524.18517 c -0.6029,0.1215 -0.81592,0.13631 -1.36645,0.41048 l -1.63897,-1.39628 0.71043,1.84764 c -0.46384,0.28502 -0.55256,0.43757 -0.93803,0.82201 l -0.91759,-0.23157 0.49151,0.66858 c -0.41931,0.44171 -0.56263,0.75063 -0.85395,1.28547 l -1.24162,-0.1791 0.85467,0.77831 c -0.19295,0.40095 -0.0998,0.2316 -0.21325,0.66183 -0.72417,-1.38722 -2.19881,-1.80645 -3.31768,1.27858 1.75959,-0.8798 2.13093,0.2669 2.13093,0.9669 0,0.7 -0.38926,2.12639 -2.1,1.02877 1.60113,3.36071 2.76059,2.79756 3.45288,1.75611 0.13081,0.99745 1.40235,2.68943 2.36451,3.37179 l -0.0206,0.33338 0.6289,-0.56739 c 0.70928,0.44789 1.4933,0.76465 2.31465,0.93516 l 0,1.39043 0.52364,-1.30977 c 0.29054,0.0388 0.58324,0.0594 0.87636,0.0615 0.73402,-0.003 1.27736,0.24952 1.97454,0.0199 l 0.94921,1.81616 0.15468,-2.21283 c 0.61063,-0.26638 0.96357,-0.43294 1.47466,-0.86028 l 1.62357,1.31491 -0.89483,-2.15868 c 0.32554,-0.32851 0.40117,-0.41005 0.65571,-0.79619 l 1.75555,0.76428 -1.33888,-1.60567 c 0.21677,-0.38189 0.27338,-0.28836 0.41493,-0.70404 l 2.12584,0.28727 -1.86709,-1.46721 c 0.12298,-0.51883 0.18628,-1.17375 0.18867,-1.70695 -0.003,-0.7824 -0.075,-1.06381 -0.33462,-1.80189 l 2.07492,-1.66717 -2.63275,0.38656 c -0.15375,-0.31594 0.0711,-0.3105 -0.12831,-0.59982 l 1.09952,-1.61515 -1.77734,0.92558 c -0.21596,-0.25903 -0.23161,-0.28336 -0.48262,-0.50859 l 0.9707,-2.54571 -2.08531,1.60012 c -0.37204,-0.25688 -0.39997,-0.27118 -0.81449,-0.45168 l -0.21875,-3.25664 -1.30928,2.8856 c -0.34996,-0.0973 -0.27387,-0.13633 -0.63468,-0.17825 l -0.21264,-1.02764 -0.41071,1.0044 c -0.27314,-0.16729 -0.42021,0.0136 -0.77703,0.0295 l -1.036,-2.71236 z"
           id="path4195-6"
           sodipodi:nodetypes="ccccccccccccscccccccccccccccccccccccccccccccccccccccc" />
        <path
           style="fill:url(#linearGradient4416);fill-opacity:1;fill-rule:evenodd;stroke:none;stroke-width:0.70000029px;stroke-linecap:butt;stroke-linejoin:miter;stroke-opacity:1"
           d="m 399.87145,521.99796 0,2.24903 a 7.0000031,7.0000031 0 0 0 -1.7377,0.59609 l -1.20586,-1.08691 0.67949,1.38359 a 7.0000031,7.0000031 0 0 0 -1.27832,1.00762 l -0.51543,-0.2625 0.36778,0.42109 a 7.0000031,7.0000031 0 0 0 -1.07051,1.4711 l -0.83946,-0.1791 0.7,0.46894 a 7.0000031,7.0000031 0 0 0 -0.46074,1.24961 c -0.72417,-1.38721 -1.76571,-1.89926 -3.03926,0.38145 1.75959,-0.8798 2.1,0.7 2.1,1.4 0,0.7 -0.38926,2.49762 -2.1,1.4 1.41551,2.12326 2.38936,2.1479 3.08165,0.54961 a 7.0000031,7.0000031 0 0 0 0.13808,0.41699 l -0.41973,0.28164 0.47989,-0.10254 a 7.0000031,7.0000031 0 0 0 2.5375,3.20879 l -0.36094,0.73555 0.62891,-0.56738 a 7.0000031,7.0000031 0 0 0 2.31465,0.93515 l 0,1.39043 0.52363,-1.30976 a 7.0000031,7.0000031 0 0 0 0.87637,0.0615 7.0000031,7.0000031 0 0 0 2.16016,-0.35137 l 0.63984,1.59961 0,-1.8416 a 7.0000031,7.0000031 0 0 0 1.69121,-1.0459 l 1.25234,1.1293 -0.77109,-1.5709 a 7.0000031,7.0000031 0 0 0 0.87227,-1.07461 l 1.01308,0.5168 -0.78203,-0.89414 a 7.0000031,7.0000031 0 0 0 0.53867,-1.19903 l 1.78555,0.38008 -1.58867,-1.06504 a 7.0000031,7.0000031 0 0 0 0.18867,-1.5832 7.0000031,7.0000031 0 0 0 -0.39648,-2.29688 l 1.79648,-1.20312 -2.10684,0.44843 a 7.0000031,7.0000031 0 0 0 -0.53046,-0.90918 l 1.09511,-1.25234 -1.47109,0.75059 a 7.0000031,7.0000031 0 0 0 -0.70137,-0.72735 l 1.0582,-2.15195 -1.76093,1.5873 a 7.0000031,7.0000031 0 0 0 -1.18262,-0.65761 l 0,-2.6879 -0.94336,2.3584 a 7.0000031,7.0000031 0 0 0 -1.06777,-0.20918 l -0.0889,-0.74922 -0.19414,0.72598 a 7.0000031,7.0000031 0 0 0 -0.50586,-0.026 7.0000031,7.0000031 0 0 0 -0.54961,0.0246 l -0.85039,-2.12461 z"
           id="path4195"
           inkscape:connector-curvature="0" />
        <path
           style="fill:#f0f0f0;fill-opacity:1;fill-rule:evenodd;stroke:none;stroke-width:0.70000029px;stroke-linecap:butt;stroke-linejoin:miter;stroke-opacity:1"
           d="m 394.8477,528.17423 c 2.77655,2.22911 6.44506,3.94932 10.62375,5.02374 l 0.7,0 c 0.54347,0.15944 1.31346,-0.58719 2.1,-1.4 -0.58067,1.42522 -1.04953,3.09269 -2.1,3.5 l -0.7,0 c -3.91594,-1.48996 -8.16656,-3.21914 -10.87124,-6.48562 z"
           id="path4348"
           inkscape:connector-curvature="0"
           sodipodi:nodetypes="cccccccc" />
        <path
           style="fill:#4d4d4d;fill-opacity:1;fill-rule:evenodd;stroke:none;stroke-width:0.70000029px;stroke-linecap:butt;stroke-linejoin:miter;stroke-opacity:1"
           d="m 405.47145,533.19797 0.7,0 0.7,4.9 -1.05,2.1 -1.05,-2.1 z"
           id="path4344"
           inkscape:connector-curvature="0"
           sodipodi:nodetypes="cccccc" />
        <path
           style="fill:#4d4d4d;fill-opacity:1;fill-rule:evenodd;stroke:none;stroke-width:0.70000029px;stroke-linecap:butt;stroke-linejoin:miter;stroke-opacity:1"
           d="m 396.37145,536.69797 0.7,5.6 7,-0.7 -0.69999,-5.6 z"
           id="path4346"
           inkscape:connector-curvature="0" />
        <path
           style="display:inline;fill:#8c5a02;fill-opacity:1;fill-rule:evenodd;stroke:none;stroke-width:0.70000029px;stroke-linecap:butt;stroke-linejoin:miter;stroke-opacity:1"
           d="m 400.60019,533.89577 0.24965,5.48212 c -0.44105,0.35107 -2.20247,0.0844 -3.41872,-1.94577 l 1.66936,-2.78908"
           id="path4350-2"
           inkscape:connector-curvature="0"
           sodipodi:nodetypes="cccc" />
        <path
           style="fill:url(#linearGradient4424);fill-opacity:1;fill-rule:evenodd;stroke:none;stroke-width:0.70000029px;stroke-linecap:butt;stroke-linejoin:miter;stroke-opacity:1"
           d="m 400.57145,533.89797 0,4.9 c -0.35481,0.33877 -1.47315,0.52929 -2.8,-1.4 l 1.4,-2.8"
           id="path4350"
           inkscape:connector-curvature="0"
           sodipodi:nodetypes="cccc" />
        <path
           style="fill:url(#linearGradient4381);fill-opacity:1;fill-rule:evenodd;stroke:#313131;stroke-width:0.70000029px;stroke-linecap:butt;stroke-linejoin:miter;stroke-opacity:1"
           d="m 401.27145,528.29797 c 0.9435,-1.15801 2.524,-0.976 3.5,0 l 0.7,0 c 0.86064,-1.07899 1.91433,-0.88567 2.8,0 -0.48765,2.3674 -1.71,2.88 -2.8,0.7 l -0.7,0 c -1.15547,2.60243 -2.78286,1.45141 -3.5,-0.7 z"
           id="path4352"
           inkscape:connector-curvature="0"
           sodipodi:nodetypes="ccccccc" />
        <path
           style="fill:#8c5a02;fill-opacity:1;fill-rule:evenodd;stroke:none;stroke-width:0.70000029px;stroke-linecap:butt;stroke-linejoin:miter;stroke-opacity:1"
           d="m 401.27145,526.89796 c 1.05187,-1.34176 2.03114,1.4106 4.2,0 -3.11328,-0.56597 -3.02637,-2.25395 -4.2,0"
           id="path4354"
           inkscape:connector-curvature="0"
           sodipodi:nodetypes="ccc" />
        <path
           style="fill:#8c5a02;fill-opacity:1;fill-rule:evenodd;stroke:none;stroke-width:0.70000029px;stroke-linecap:butt;stroke-linejoin:miter;stroke-opacity:1"
           d="m 405.86209,530.47925 c -1.14349,-0.0323 -1.59503,0.71392 -2.1,1.4 0.71721,-0.37102 1.46007,-0.94724 2.1,-0.7 l 0.7,0.7 c -0.0958,-0.83356 -0.35745,-1.22457 -0.7,-1.4 z"
           id="path4356"
           inkscape:connector-curvature="0"
           sodipodi:nodetypes="ccccc" />
      </g>
    </g>
  </g>
</svg>
