<?xml version="1.0" encoding="UTF-8" standalone="no"?>
<!-- Created with Inkscape (http://www.inkscape.org/) -->

<svg
   xmlns:dc="http://purl.org/dc/elements/1.1/"
   xmlns:cc="http://creativecommons.org/ns#"
   xmlns:rdf="http://www.w3.org/1999/02/22-rdf-syntax-ns#"
   xmlns:svg="http://www.w3.org/2000/svg"
   xmlns="http://www.w3.org/2000/svg"
   xmlns:sodipodi="http://sodipodi.sourceforge.net/DTD/sodipodi-0.dtd"
   xmlns:inkscape="http://www.inkscape.org/namespaces/inkscape"
   version="1.1"
   id="svg64"
   xml:space="preserve"
   width="555.55603"
   height="165.33333"
   viewBox="0 0 555.55603 165.33333"
   sodipodi:docname="renater-partage.svg"
   inkscape:version="0.92.1 r15371"><metadata
     id="metadata70"><rdf:RDF><cc:Work
         rdf:about=""><dc:format>image/svg+xml</dc:format><dc:type
           rdf:resource="http://purl.org/dc/dcmitype/StillImage" /><dc:title></dc:title></cc:Work></rdf:RDF></metadata><defs
     id="defs68"><clipPath
       clipPathUnits="userSpaceOnUse"
       id="clipPath80"><path
         d="M 0,124 H 416.667 V 0 H 0 Z"
         id="path78"
         inkscape:connector-curvature="0" /></clipPath></defs><sodipodi:namedview
     pagecolor="#ffffff"
     bordercolor="#666666"
     borderopacity="1"
     objecttolerance="10"
     gridtolerance="10"
     guidetolerance="10"
     inkscape:pageopacity="0"
     inkscape:pageshadow="2"
     inkscape:window-width="1600"
     inkscape:window-height="840"
     id="namedview66"
     showgrid="false"
     inkscape:zoom="2.5199978"
     inkscape:cx="277.77802"
     inkscape:cy="82.666664"
     inkscape:window-x="0"
     inkscape:window-y="0"
     inkscape:window-maximized="1"
     inkscape:current-layer="g72" /><g
     id="g72"
     inkscape:groupmode="layer"
     inkscape:label="Partage-B"
     transform="matrix(1.3333333,0,0,-1.3333333,0,165.33333)"><g
       id="g74"
       transform="translate(22.916687,-6.8452441)"><g
         id="g76"
         clip-path="url(#clipPath80)"><g
           id="g82"
           transform="translate(41.2303,75.4707)" /><g
           id="g86"
           transform="translate(93.7327,36.7061)" /><g
           id="g90"
           transform="translate(95.4353,68.4023)"><path
             d="m 0,0 c 0,-5.466 -1.978,-10.449 -5.222,-14.267 l 3.394,-16.808 c 9.59,7.226 15.824,18.877 15.824,32.031 0,18.955 -12.934,34.792 -30.227,38.746 L -12.133,19.63 C -4.969,16.151 0,8.681 0,0"
             style="fill:#b247ab;fill-opacity:1;fill-rule:nonzero;stroke:none"
             id="path92"
             inkscape:connector-curvature="0" /></g><g
           id="g94"
           transform="translate(90.096,53.9951)"><path
             d="m 0,0 c -2.752,-3.185 -6.394,-5.536 -10.533,-6.629 l 14.128,-10.454 -0.084,0.415 c -0.032,-0.023 -0.062,-0.05 -0.093,-0.074 z"
             style="fill:#3dbeeb;fill-opacity:1;fill-rule:nonzero;stroke:none"
             id="path96"
             inkscape:connector-curvature="0" /></g><g
           id="g98"
           transform="translate(53.1365,66.9209)"><g
             id="g372"><path
               inkscape:connector-curvature="0"
               id="path84"
               style="fill:#a2b501;fill-opacity:1;fill-rule:nonzero;stroke:none"
               d="m 0,0 c -0.581,-2.737 -0.903,-5.574 -0.903,-8.491 0,-11.721 4.947,-22.253 12.809,-29.522 v 29.222 z"
               transform="translate(-11.9062,8.5497996)" /><path
               inkscape:connector-curvature="0"
               id="path88"
               style="fill:#a2b501;fill-opacity:1;fill-rule:nonzero;stroke:none"
               d="m 0,0 -14.361,10.604 v -10e-4 l -4.993,3.686 -11.926,8.807 V -5.625 c 5.013,-2.44 10.615,-3.811 16.532,-3.811 7.321,0 14.166,2.092 20.001,5.723 l -5.295,3.919 z"
               transform="translate(40.5962,-30.214797)" /><path
               inkscape:connector-curvature="0"
               id="path100"
               style="fill:#3dbeeb;fill-opacity:1;fill-rule:nonzero;stroke:none"
               d="m 0,0 v 1.481 c 0,11.998 9.469,21.726 21.149,21.726 3.162,0 6.151,-0.732 8.844,-2.01 l -4.089,20.031 c 0.055,-0.012 0.109,-0.032 0.164,-0.044 l -0.804,3.939 c -2.665,0.597 -5.428,0.92 -8.266,0.92 -18.433,0 -33.841,-13.256 -37.711,-30.99 l 8.807,-6.503 c 0.016,0.076 0.027,0.153 0.044,0.228 z" /></g></g><g
           id="g102"
           transform="translate(64.3069,58.6553)"><path
             d="M 0,0 -1.854,1.373 V 1.146 L 10.072,-7.66 -1.158,0.634 C -0.773,0.395 -0.386,0.203 0,0"
             style="fill:#3dbeeb;fill-opacity:1;fill-rule:nonzero;stroke:none"
             id="path104"
             inkscape:connector-curvature="0" /></g><g
           id="g106"
           transform="translate(79.3719,47.3096)"><path
             d="M 0,0 14.361,-10.604 14.319,-10.397 0.191,0.057 C 0.126,0.04 0.065,0.016 0,0"
             style="fill:#3dbeeb;fill-opacity:1;fill-rule:nonzero;stroke:none"
             id="path108"
             inkscape:connector-curvature="0" /></g><g
           id="g110"
           transform="translate(53.1365,66.9209)"><path
             d="M 0,0 -11.862,8.778 C -11.879,8.703 -11.89,8.626 -11.906,8.55 L 0,-0.241 Z"
             style="fill:#3dbeeb;fill-opacity:1;fill-rule:nonzero;stroke:none"
             id="path112"
             inkscape:connector-curvature="0" /></g><g
           id="g114"
           transform="translate(83.1297,88.1182)"><path
             d="m 0,0 c 0.058,-0.027 0.114,-0.058 0.172,-0.086 l -4.097,20.072 c -0.055,0.013 -0.109,0.033 -0.164,0.044 z"
             style="fill:#3dbeeb;fill-opacity:1;fill-rule:nonzero;stroke:none"
             id="path116"
             inkscape:connector-curvature="0" /></g><g
           id="g118"
           transform="translate(90.096,53.9951)"><path
             d="m 0,0 3.418,-16.742 c 0.031,0.024 0.061,0.051 0.093,0.074 L 0.118,0.141 C 0.079,0.094 0.04,0.046 0,0"
             style="fill:#3dbeeb;fill-opacity:1;fill-rule:nonzero;stroke:none"
             id="path120"
             inkscape:connector-curvature="0" /></g><g
           id="g122"
           transform="translate(79.3714,47.3086)"><path
             d="M 0,0 V 0.001 L -4.992,3.687 Z"
             style="fill:#ffffff;fill-opacity:1;fill-rule:nonzero;stroke:none"
             id="path124"
             inkscape:connector-curvature="0" /></g><g
           id="g126"
           transform="translate(82.0633,64.4473)"><path
             d="m 0,0 c -0.454,-0.421 -1.457,-0.688 -1.708,-0.687 -0.335,-0.663 -1.207,-0.892 -2.078,-0.943 -0.839,-0.049 -1.595,0.315 -2.016,0.896 -0.156,-0.067 -0.326,-0.107 -0.506,-0.118 -0.421,-0.024 -0.874,0.123 -1.184,0.42 h -0.416 c -0.232,-0.589 -0.888,-0.898 -1.484,-0.863 -0.179,0.011 -0.349,0.052 -0.506,0.117 -0.421,-0.581 -1.177,-0.944 -2.016,-0.895 -1.051,0.061 -1.895,0.751 -2.09,1.627 -0.124,0.004 -0.247,0.009 -0.37,0.014 -0.006,0.001 -0.013,0.001 -0.019,0.002 -3.176,0.191 -2.363,5.159 0.768,4.935 -0.111,1.621 1.352,2.503 2.646,2.427 0.303,-0.018 0.59,-0.086 0.854,-0.197 0.711,0.98 1.987,1.594 3.404,1.511 1.882,-0.109 3.373,-1.412 3.578,-3.018 0.194,0.025 0.394,0.033 0.597,0.021 C -0.987,5.158 0.666,3.914 0.808,2.405 0.831,2.298 0.847,2.188 0.853,2.075 0.87,1.783 0.818,1.502 0.711,1.249 0.585,0.764 0.351,0.326 0,0 m -7.777,16.111 c -6.536,0 -11.834,-5.443 -11.834,-12.156 v -8.374 l 1.855,-1.373 c 4.456,-2.344 8.843,-2.409 9.979,-2.409 6.535,0 11.834,5.442 11.834,12.156 0,6.713 -5.299,12.156 -11.834,12.156"
             style="fill:#3dbeeb;fill-opacity:1;fill-rule:nonzero;stroke:none"
             id="path128"
             inkscape:connector-curvature="0" /></g><g
           id="g130"
           transform="translate(129.5818,33.1133)" /><g
           id="g134"
           transform="translate(133.7957,31.9639)" /><g
           id="g138"
           transform="translate(145.2639,39.9209)" /><g
           id="g142"
           transform="translate(150.7454,38.7832)" /><g
           id="g146"
           transform="translate(152.8313,36.0059)" /><g
           id="g150"
           transform="translate(163.0999,38.0098)" /><g
           id="g154"
           transform="translate(165.825,31.9639)" /><g
           id="g158"
           transform="translate(172.762,31.9639)" /><g
           id="g162"
           transform="translate(180.576,33.1133)" /><g
           id="g166"
           transform="translate(186.2024,31.9639)" /><g
           id="g170"
           transform="translate(194.1873,33.1133)" /><g
           id="g174"
           transform="translate(198.4012,31.9639)" /><g
           id="g178"
           transform="translate(206.1575,31.9307)" /><g
           id="g182"
           transform="translate(217.116,33.1133)" /><g
           id="g188"
           transform="translate(229.1756,38.0098)" /><g
           id="g192"
           transform="translate(232.0506,34.3555)" /><g
           id="g196"
           transform="translate(239.7937,31.9307)" /><g
           id="g200"
           transform="translate(247.8582,38.7832)" /><g
           id="g204"
           transform="translate(249.5789,33.1133)" /><g
           id="g208"
           transform="translate(258.0506,37.873)" /><g
           id="g212"
           transform="translate(265.0125,38.7832)" /><g
           id="g216"
           transform="translate(278.0183,38.0098)" /><g
           id="g220"
           transform="translate(281.95,33.1133)" /><g
           id="g224"
           transform="translate(287.3953,33.1133)" /><g
           id="g228"
           transform="translate(293.8299,35.3906)" /><g
           id="g232"
           transform="translate(299.7078,33.0801)" /><g
           id="g236"
           transform="translate(310.8797,38.0098)" /><g
           id="g240"
           transform="translate(315.1765,36.0059)" /><g
           id="g244"
           transform="translate(321.9754,35.3906)" /><g
           id="g248"
           transform="translate(327.7742,31.9307)" /><g
           id="g252"
           transform="translate(335.8377,38.7832)" /><g
           id="g256"
           transform="translate(337.4568,31.9639)" /><g
           id="g260"
           transform="translate(345.7029,37.873)" /><g
           id="g264"
           transform="translate(143.4763,65.1826)" /><g
           id="g268"
           transform="translate(143.4763,65.1826)" /><g
           id="g272"
           transform="translate(166.5711,63.252)" /><g
           id="g276"
           transform="translate(166.5711,63.252)" /><g
           id="g280"
           transform="translate(205.5965,47.6943)" /><g
           id="g284"
           transform="translate(205.5965,47.6943)" /><g
           id="g288"
           transform="translate(249.9734,47.6943)" /><g
           id="g292"
           transform="translate(249.9734,47.6943)" /><g
           id="g296"
           transform="translate(274.1883,63.252)" /><g
           id="g300"
           transform="translate(274.1883,63.252)" /><g
           id="g304"
           transform="translate(349.5535,78.1875)" /><g
           id="g308"
           transform="translate(349.5535,78.1875)" /><g
           id="g312"
           transform="translate(363.0701,48.626)" /><g
           id="g316"
           transform="translate(363.0701,48.626)" /><g
           id="g320"
           transform="translate(129.323,16.0996)" /><g
           id="g324"
           transform="translate(138.6253,21.9697)" /><g
           id="g328"
           transform="translate(142.8479,22.8838)" /><g
           id="g332"
           transform="translate(151.4226,18.1924)" /><g
           id="g338"
           transform="translate(166.7024,18.1924)" /><g
           id="g342"
           transform="translate(179.0335,21.2305)" /><g
           id="g350"
           transform="translate(198.2078,18.1924)" /></g></g></g></svg>