<?xml version="1.0" encoding="UTF-8" standalone="no"?>
<!-- Created with Inkscape (http://www.inkscape.org/) -->

<svg
   xmlns:dc="http://purl.org/dc/elements/1.1/"
   xmlns:cc="http://creativecommons.org/ns#"
   xmlns:rdf="http://www.w3.org/1999/02/22-rdf-syntax-ns#"
   xmlns:svg="http://www.w3.org/2000/svg"
   xmlns="http://www.w3.org/2000/svg"
   xmlns:sodipodi="http://sodipodi.sourceforge.net/DTD/sodipodi-0.dtd"
   xmlns:inkscape="http://www.inkscape.org/namespaces/inkscape"
   width="16"
   height="16"
   id="svg2"
   version="1.1"
   inkscape:version="0.91 r13725"
   viewBox="0 0 16 16"
   sodipodi:docname="dhcp.svg"
   inkscape:export-filename="dhcp.png"
   inkscape:export-xdpi="90"
   inkscape:export-ydpi="90">
  <defs
     id="defs4" />
  <sodipodi:namedview
     id="base"
     pagecolor="#ffffff"
     bordercolor="#666666"
     borderopacity="1.0"
     inkscape:pageopacity="0.0"
     inkscape:pageshadow="2"
     inkscape:zoom="21.8125"
     inkscape:cx="3.2550143"
     inkscape:cy="4.5616046"
     inkscape:document-units="px"
     inkscape:current-layer="layer1"
     showgrid="true"
     inkscape:showpageshadow="false"
     borderlayer="true"
     inkscape:window-width="1880"
     inkscape:window-height="1051"
     inkscape:window-x="0"
     inkscape:window-y="0"
     inkscape:window-maximized="1"
     units="px"
     inkscape:snap-bbox="true">
    <inkscape:grid
       type="xygrid"
       id="grid4101" />
    <sodipodi:guide
       position="2,14.000017"
       orientation="12,0"
       id="guide4071" />
    <sodipodi:guide
       position="2,2.0000174"
       orientation="0,12"
       id="guide4073" />
    <sodipodi:guide
       position="14,2.0000174"
       orientation="-12,0"
       id="guide4075" />
    <sodipodi:guide
       position="14,14.000017"
       orientation="0,-12"
       id="guide4077" />
  </sodipodi:namedview>
  <metadata
     id="metadata7">
    <rdf:RDF>
      <cc:Work
         rdf:about="">
        <dc:format>image/svg+xml</dc:format>
        <dc:type
           rdf:resource="http://purl.org/dc/dcmitype/StillImage" />
        <dc:title />
      </cc:Work>
    </rdf:RDF>
  </metadata>
  <g
     inkscape:label="Capa 1"
     inkscape:groupmode="layer"
     id="layer1"
     transform="translate(0,-1036.3622)">
    <path
       id="path3011"
       d="m 8.0030333,1037.361 c -0.2392188,0 -0.4709377,0.019 -0.7034067,0.047 -0.2279689,0.027 -0.4604377,0.065 -0.6794142,0.1169 -0.0705,0.016 -0.1387269,0.05 -0.210719,0.071 -0.063,0.017 -0.1252344,0.028 -0.1874766,0.047 -0.078742,0.025 -0.1604767,0.044 -0.2347189,0.071 -0.080241,0.028 -0.1552268,0.062 -0.2347189,0.094 -0.1544768,0.062 -0.2977111,0.1365 -0.4454453,0.2107 -0.05325,0.027 -0.1117345,0.042 -0.1642267,0.071 -0.1724767,0.091 -0.3307035,0.1972 -0.4919377,0.3045 -0.0615,0.041 -0.127477,0.073 -0.1874691,0.1168 -0.02475,0.019 -0.04575,0.028 -0.0705,0.047 -0.0705,0.053 -0.1432342,0.1065 -0.2107265,0.1642 -0.080235,0.067 -0.1574767,0.1401 -0.2347188,0.2106 -0.024,0.023 -0.0465,0.048 -0.0705,0.071 -0.00825,0.01 -0.015,0.015 -0.02325,0.023 -0.012,0.012 -0.01125,0.035 -0.02325,0.047 -0.1574767,0.1529 -0.3292033,0.2991 -0.4686877,0.4685 -0.00375,0.01 0.00375,0.019 0,0.023 -0.1357343,0.1648 -0.2572188,0.3358 -0.3749532,0.5157 -0.01575,0.024 -0.0315,0.046 -0.04725,0.071 -0.01125,0.018 -0.03525,0.028 -0.04725,0.047 -0.045,0.073 -0.075742,0.1568 -0.1169845,0.2347 -0.0135,0.025 -0.033749,0.046 -0.04725,0.071 -0.05625,0.1094 -0.1124846,0.2173 -0.1642267,0.3282 -0.003,0.01 0.003,0.017 0,0.023 -0.087742,0.1896 -0.1664843,0.3853 -0.2347189,0.5855 -0.01425,0.04 -0.03375,0.077 -0.04725,0.117 -0.00225,0.01 0.00225,0.017 0,0.023 -0.015,0.046 -0.033,0.094 -0.04725,0.141 -0.05475,0.1927 -0.1049845,0.3854 -0.1409844,0.5856 -0.0255,0.1438 -0.055499,0.2975 -0.0705,0.4452 C 2.003,1042.9517 2,1043.1594 2,1043.3625 c 0,0.3028 0.027,0.5997 0.0705,0.8906 0.0045,0.031 -0.00525,0.064 0,0.094 0.033,0.1994 0.088485,0.3935 0.1409844,0.5855 0.0195,0.072 0.048,0.1394 0.0705,0.2106 0.03,0.097 0.05925,0.1866 0.093742,0.2811 0.05775,0.1589 0.1169844,0.3163 0.1874766,0.4685 0.0375,0.079 0.076485,0.1574 0.1169844,0.2346 0.1139844,0.2189 0.2362189,0.4311 0.3749457,0.6328 0.012,0.018 0.0345,0.029 0.04725,0.047 0.1484767,0.2106 0.2954611,0.4197 0.4686876,0.6094 0.030001,0.033 0.063,0.062 0.093735,0.094 0.03,0.031 0.063,0.063 0.093742,0.094 0.1604767,0.1604 0.3382033,0.3036 0.5159301,0.4454 0.2294688,0.1828 0.4716877,0.344 0.7266564,0.4917 0.009,0.01 0.01425,0.018 0.02325,0.023 0.03975,0.023 0.077242,0.049 0.1169844,0.071 0.2369689,0.1169 0.5189377,0.2436 0.7034068,0.3283 0.082492,0.031 0.173234,0.043 0.2579687,0.07 0.03975,0.014 0.077242,0.035 0.1169845,0.047 0.1019844,0.031 0.2009765,0.067 0.3044609,0.094 0.0315,0.01 0.06225,0.016 0.093742,0.023 0.2189689,0.052 0.4514378,0.091 0.6794066,0.1169 0.2317191,0.027 0.4634379,0.047 0.7034068,0.047 0.2549687,0 0.5031876,-0.016 0.7499064,-0.047 0.2737115,-0.036 0.5106802,-0.093 0.7498992,-0.141 1.2733355,-0.3268 2.3711885,-1.0658 3.1638375,-2.0615 0.021,-0.026 0.05025,-0.043 0.0705,-0.071 0.0068,-0.01 0.0165,-0.015 0.02325,-0.023 0.0105,-0.014 0.0135,-0.033 0.02325,-0.047 0.467187,-0.6185 0.807641,-1.3351 1.007867,-2.1089 0.042,-0.1625 0.08849,-0.3238 0.116984,-0.4916 0.0038,-0.023 -0.0038,-0.047 0,-0.071 0.0045,-0.03 0.01875,-0.059 0.02325,-0.094 0.0045,-0.032 0.0195,-0.062 0.02326,-0.094 l -0.02326,0 c 0.033,-0.2466 0.0705,-0.494 0.0705,-0.7497 0,-0.4137 -0.0375,-0.8274 -0.116985,-1.218 -0.0068,-0.032 -0.0165,-0.062 -0.02326,-0.094 -0.0345,-0.1558 -0.09299,-0.317 -0.140984,-0.4686 -0.0023,-0.01 0.0023,-0.017 0,-0.023 -0.009,-0.029 -0.0135,-0.042 -0.02325,-0.071 -0.02925,-0.089 -0.06075,-0.1934 -0.09374,-0.2811 -0.009,-0.024 -0.0135,-0.048 -0.02325,-0.071 -0.03225,-0.082 -0.08099,-0.1543 -0.116985,-0.2345 -0.0015,0 0.0015,-0.02 0,-0.023 -0.01875,-0.041 -0.051,-0.077 -0.0705,-0.1169 -0.0735,-0.1522 -0.148478,-0.2998 -0.234719,-0.4453 -0.0435,-0.074 -0.0705,-0.1626 -0.116984,-0.2346 -0.018,-0.027 -0.05175,-0.044 -0.0705,-0.071 -0.05025,-0.074 -0.110234,-0.1388 -0.164226,-0.2107 -0.06,-0.075 -0.104992,-0.1619 -0.164234,-0.2347 -0.0038,-0.01 0.0038,-0.019 0,-0.023 -0.128977,-0.1567 -0.277463,-0.3021 -0.422189,-0.4453 -0.06975,-0.069 -0.137984,-0.1454 -0.210727,-0.2107 -0.021,-0.019 -0.04875,-0.028 -0.0705,-0.047 -0.156727,-0.1365 -0.322453,-0.2549 -0.491937,-0.3747 -0.04125,-0.028 -0.07573,-0.066 -0.116985,-0.094 -0.0525,-0.034 -0.110985,-0.061 -0.164227,-0.094 -0.101233,-0.063 -0.199477,-0.1305 -0.304461,-0.1874 -0.09224,-0.05 -0.185976,-0.095 -0.281212,-0.1409 -0.160477,-0.077 -0.32396,-0.1485 -0.491937,-0.2107 -0.1994684,-0.074 -0.4004457,-0.1349 -0.6096724,-0.1874 -0.1837185,-0.046 -0.3726953,-0.088 -0.5624216,-0.1169 -0.297711,-0.046 -0.6036721,-0.07 -0.9141332,-0.07 m 0,0.7497 c 0.2242191,0 0.4386956,0.02 0.6561645,0.047 0.1349843,0.017 0.2662186,0.042 0.398196,0.071 0.0075,0 0.01575,0 0.02325,0 0.124485,0.026 0.2534698,0.059 0.3749538,0.094 0.071998,0.02 0.140235,0.047 0.2107269,0.07 0.1289769,0.043 0.2504604,0.088 0.374945,0.1408 0.145484,0.06 0.284218,0.1147 0.422195,0.1875 -0.02325,0.01 -0.04725,0.016 -0.0705,0.023 -0.03525,0.013 -0.08474,0.072 -0.09374,0.094 -0.015,0.036 0.0038,0.086 0,0.141 0.0285,0.013 0.045,0.067 0.09374,0.094 0.01875,0.011 0.03075,-0.01 0.04725,0 0.0285,0.016 0.0525,0.065 0.04725,0.094 -0.0083,0.041 -0.066,0.017 -0.09374,0.047 0.0045,0.058 -0.03225,0.079 -0.04725,0.1169 0.009,0.025 0.04275,0.018 0.04725,0.047 -0.0053,0.032 -0.05925,0.037 -0.04725,0.071 0.054,0.041 0.113235,-0.017 0.164227,-0.023 0.111734,-0.014 0.212227,0.031 0.281211,-0.023 -0.009,-0.053 0.07574,-0.069 0.0705,-0.1171 -0.0045,-0.036 -0.0675,-0.046 -0.09373,-0.071 -0.01425,-0.014 -0.03,-0.044 -0.04725,-0.07 -0.0195,-0.031 -0.048,-0.065 -0.0705,-0.094 -0.02925,-0.039 -0.09373,-0.088 -0.09373,-0.1169 7.5e-4,-0.034 0.03899,-0.047 0.04725,-0.094 -0.009,-0.043 -0.08774,0 -0.09374,-0.047 0.0015,-0.014 0.01575,-0.038 0.02326,-0.047 0.112484,0.062 0.223469,0.1342 0.328461,0.2108 0.024,0.016 0.0465,0.031 0.0705,0.047 0.08098,0.061 0.155226,0.1275 0.234718,0.1875 -0.05025,0.01 -0.07574,0.066 -0.116984,0.117 -0.0285,0.034 -0.07425,0.076 -0.116985,0.094 -0.021,0.01 -0.051,-0.012 -0.0705,0 -0.02775,0.019 -0.03825,0.072 -0.0705,0.094 -0.02326,0.016 -0.09299,0.071 -0.116984,0.071 -0.0285,7e-4 -0.0735,-0.03 -0.09374,-0.023 -0.03,0.01 -0.01275,0.058 -0.04725,0.071 -0.066,0.023 -0.187476,-0.052 -0.210717,0.047 0.0285,0.057 0.114734,0.038 0.164226,0.071 0.0315,0.019 0.08549,0.1072 0.09373,0.1409 0.0075,0.029 0.01125,0.1343 0,0.1642 -0.03075,0.079 -0.119234,0.073 -0.210718,0.071 -0.0255,-8e-4 -0.04725,0 -0.0705,0 -0.155227,-0.011 -0.3052116,-0.064 -0.3749529,0.047 0.00526,0.085 0.01875,0.1372 0,0.2106 -0.013497,0.054 -0.072746,0.094 -0.070503,0.1409 0.00148,0.024 0.041247,0.062 0.047248,0.094 0.00379,0.017 -0.00831,0.055 0,0.071 0.025498,0.05 0.095239,-0.01 0.1409849,0 0.04425,0.01 0.09449,0.091 0.09374,0.1409 -7.5e-4,0.034 -0.02475,0.084 -0.04725,0.1169 -0.0435,0.067 -0.1252345,0.058 -0.1874769,0.094 -0.052501,0.029 -0.062997,0.089 -0.09373,0.141 -0.033003,0.055 -0.060754,0.083 -0.047248,0.164 -0.045005,0.089 -0.09449,0.1456 -0.1874768,0.1875 -0.027751,0.013 -0.068998,0.03 -0.09373,0.047 -0.020255,0.014 -0.042005,0.038 -0.070503,0.071 -0.03525,0.039 -0.075,0.064 -0.09374,0.094 -0.01425,0.023 -0.0075,0.063 -0.02325,0.094 -0.02175,0.042 -0.066,0.075 -0.09373,0.1169 -0.01275,0.02 -0.03225,0.044 -0.04725,0.071 -0.0315,0.058 -0.07574,0.1131 -0.0705,0.1641 0.0053,0.05 0.06675,0.051 0.0705,0.094 0.003,0.024 -0.02475,0.044 -0.02325,0.071 7.5e-4,0.038 0.02025,0.064 0.02325,0.094 0.0075,0.074 -0.033,0.09 -0.04725,0.141 -0.0068,0.024 0.006,0.051 0,0.071 -0.012,0.038 -0.06975,0.073 -0.0705,0.117 -7.5e-4,0.032 0.04425,0.073 0.04725,0.117 0.0015,0.03 -0.0285,0.042 -0.02325,0.071 0.0105,0.055 0.1214838,0.1214 0.1642258,0.1641 0.05625,0.056 0.1162348,0.1042 0.1409848,0.1642 0.02025,0.05 0.03075,0.126 0.0705,0.1642 0.029246,0.028 0.079476,0.041 0.1169839,0.071 0.035247,0.027 0.080242,0.041 0.1169849,0.071 0.060754,0.048 0.1372264,0.1478 0.2347184,0.1409 0.050996,-0.01 0.1064849,-0.037 0.1642279,-0.047 0.05925,-0.01 0.127484,-0.029 0.187476,-0.023 0.04575,0.01 0.09298,0.05 0.140976,0.047 0.05025,0 0.107243,-0.046 0.164234,-0.071 0.09898,-0.043 0.254219,-0.1148 0.398197,-0.094 0.109484,0.016 0.111734,0.1626 0.187476,0.2106 0.08848,0.01 0.164227,-0.041 0.234719,-0.023 0.0525,0.013 0.111733,0.099 0.116983,0.1409 0.0053,0.043 -0.0405,0.091 -0.04725,0.1169 -0.0135,0.059 -0.01275,0.1268 -0.02324,0.1642 -0.0082,0.029 -0.024,0.064 -0.02325,0.094 0,0.026 0.0435,0.1065 0.0705,0.141 0.033,0.042 0.07724,0.072 0.116985,0.117 0.06525,0.082 0.116235,0.1768 0.164227,0.2811 0.01275,0.028 -0.012,0.058 0,0.094 -0.02175,0.168 -0.07723,0.2827 -0.187475,0.4686 -0.05175,0.06 -0.118485,0.1124 -0.116985,0.1875 -0.0038,0.1799 0.101991,0.2945 0.09374,0.4685 -0.018,0.2337 0.018,0.2495 0,0.3748 0.07874,0.04 0.02326,0.1745 0,0.2578 -0.03375,0.099 -0.075,0.1214 -0.09374,0.1874 0.05325,0.023 0.128234,0.014 0.187477,0 0,0 0.072,0.3006 0.0705,0.3045 -0.605172,0.5975 -1.364069,1.0404 -2.2032102,1.2886 -0.4124453,0.1 -0.5346798,0.1 -0.7266564,0.1408 -0.2504613,0.041 -0.5121801,0.071 -0.7731488,0.071 -0.1822192,0 -0.3621957,-0.01 -0.53918,-0.023 -0.1364768,-0.013 -0.2654612,-0.046 -0.3981956,-0.07 -0.03975,-0.01 -0.077984,-0.015 -0.1169844,-0.023 -0.1222344,-0.041 -0.2632113,-0.066 -0.3749532,-0.094 -0.127477,-0.036 -0.2512113,-0.072 -0.3749457,-0.1169 0.0105,-0.01 0.02025,-0.01 0.02325,-0.023 0.00675,-0.031 0.0015,-0.047 0,-0.094 0.01125,-0.049 0.06,-0.043 0.0705,-0.094 -0.021,-0.036 -0.06225,-0.029 -0.093735,-0.047 -0.03075,-0.017 -0.051,-0.056 -0.04725,-0.094 0.0525,-0.022 0.1499768,0.05 0.1874691,-0.023 0.01875,-0.034 -0.0255,-0.1057 0,-0.1409 0.01725,-0.023 0.1267345,-0.041 0.1642343,-0.047 0.05325,-0.01 0.1109844,-0.01 0.1409768,-0.023 0.033,-0.022 0.075742,-0.079 0.0705,-0.141 -0.003,-0.029 -0.02475,-0.044 -0.04725,-0.07 -0.01875,-0.022 -0.00975,-0.05 -0.02325,-0.071 -0.02325,-0.035 -0.06,-0.043 -0.0705,-0.094 0.072,-0.014 0.1769766,0.076 0.2812186,0.047 0.0495,-0.014 0.1177345,-0.141 0.1409769,-0.1875 0.0075,-0.014 -0.0075,-0.03 0,-0.047 0.009,-0.019 0.04425,-0.037 0.04725,-0.047 0.0075,-0.027 -0.006,-0.053 0,-0.071 0.018,-0.051 0.06375,-0.056 0.093735,-0.094 0.0225,-0.029 0.04875,-0.065 0.0705,-0.094 0.02325,-0.031 0.0315,-0.067 0.04725,-0.094 0.015,-0.091 -0.045,-0.1546 -0.02325,-0.2346 0.024,-0.09 0.1469842,-0.1239 0.2347188,-0.1643 0.03,-0.014 0.069,-0.038 0.093742,-0.047 0.06,-0.021 0.1319843,-0.027 0.1874765,-0.047 0.093735,-0.034 0.1177344,-0.1253 0.1642267,-0.2108 0.02175,-0.041 0.04275,-0.088 0.04725,-0.1169 0.00375,-0.026 -0.00525,-0.04 0,-0.071 0.0045,-0.03 0.015,-0.061 0.02325,-0.094 0.0105,-0.043 0.02325,-0.1154 0.02325,-0.1642 0,-0.04 -0.02175,-0.058 -0.02325,-0.094 -0.00675,-0.1297 0.04575,-0.1635 0.093735,-0.2346 0.024,-0.035 0.030001,-0.068 0.04725,-0.094 0.080992,-0.1206 0.2212265,-0.1694 0.2107266,-0.3515 -0.00375,-0.06 -0.02625,-0.1919 -0.0705,-0.2106 -0.0255,-0.011 -0.080242,-0.01 -0.1169844,-0.023 -0.1184845,-0.044 -0.2054766,-0.2016 -0.328461,-0.2106 -0.02625,0 -0.04125,0.023 -0.0705,0.023 -0.04875,0 -0.1102344,-0.04 -0.1642268,-0.047 -0.0345,-0.01 -0.096735,0.01 -0.1169844,0 -0.0315,-0.015 -0.02175,-0.076 -0.04725,-0.094 -0.02025,-0.014 -0.063,-0.011 -0.093735,-0.023 -0.0495,-0.019 -0.083991,-0.042 -0.1409843,-0.047 -0.017251,-7e-4 -0.05025,0 -0.0705,0 -0.0315,-0.01 -0.064499,-0.03 -0.093735,-0.047 -0.036,-0.022 -0.055499,-0.039 -0.0705,-0.071 0.033,-0.1079 -0.072,-0.1251 -0.093735,-0.1875 -0.0105,-0.029 0.00975,-0.068 0,-0.094 -0.01275,-0.037 -0.05325,-0.063 -0.093742,-0.094 -0.07275,-0.055 -0.1304844,-0.1042 -0.2347189,-0.1169 -0.04575,-0.01 -0.1087345,0 -0.1642268,0 -0.0585,-0.01 -0.1207343,-0.043 -0.1642266,-0.094 -0.042,-0.049 -0.057,-0.094 -0.093742,-0.1168 -0.03525,-0.023 -0.092985,-0.023 -0.1169845,-0.047 -0.0105,-0.011 -0.01275,-0.023 -0.02325,-0.047 -0.01725,-0.036 -0.04575,-0.073 -0.02325,-0.117 -0.03975,-0.02 -0.02625,0.054 -0.0705,0.047 -0.039,-0.055 -0.075742,-0.086 -0.1642267,-0.071 -0.0405,0.01 -0.06975,0.045 -0.1169845,0.047 -0.039,0 -0.066,-0.04 -0.1169843,-0.047 -0.039,-0.01 -0.089992,0.027 -0.1169845,0.023 -0.042751,-0.01 -0.05475,-0.044 -0.093742,-0.071 -0.0285,-0.019 -0.077985,-0.071 -0.093735,-0.071 -0.05025,0 -0.094485,0.1072 -0.1642267,0.071 -0.03375,-0.043 0.06375,-0.053 0.02325,-0.094 -0.030001,-0.031 -0.04575,0.01 -0.0705,0.023 -0.02775,0.019 -0.063,0.035 -0.093742,0.047 -0.069,0.025 -0.1102345,0.019 -0.1642267,0.047 -0.0495,0.025 -0.06525,0.067 -0.093742,0.117 -0.02325,0.042 -0.05925,0.1147 -0.093735,0.1168 -0.042,0 -0.079492,-0.053 -0.1169845,-0.071 -0.1147344,-0.05 -0.1859766,0.023 -0.2812111,0.023 -0.088492,0 -0.2152265,-0.1282 -0.2107265,-0.2106 0.003,-0.05 0.0405,-0.1245 0.04725,-0.1874 0.0045,-0.05 0.046499,-0.095 0.04725,-0.141 7.5e-4,-0.061 -0.101242,-0.1102 -0.1409843,-0.1169 -0.093735,-0.017 -0.2212189,0.046 -0.3284534,0 -0.02025,-0.034 0.03525,-0.061 0.04725,-0.094 0.00675,-0.018 -0.00675,-0.025 0,-0.047 0.012,-0.032 0.0555,-0.06 0.0705,-0.094 0.01125,-0.025 0.012,-0.062 0.02325,-0.094 0.01275,-0.037 0.04425,-0.068 0.04725,-0.094 0.00375,-0.034 -0.02025,-0.071 -0.04725,-0.094 -0.083235,0.01 -0.1402268,0 -0.1874767,0.023 -0.1079843,0.049 -0.079484,0.1995 -0.1874764,0.2347 -0.0375,0.012 -0.099735,0.016 -0.1409769,0.023 -0.03525,0.01 -0.080242,0.024 -0.1169844,0.023 -0.0435,-7e-4 -0.1147346,-0.043 -0.1409844,-0.071 -0.00675,-0.01 -0.018,-0.027 -0.02325,-0.047 0.0015,-0.01 -0.0015,-0.016 0,-0.023 0.0345,-0.1672 0.06975,-0.3328 0.1169845,-0.4918 0.00225,-0.01 -0.00225,-0.016 0,-0.023 0.0315,-0.1042 0.077235,-0.2024 0.1169845,-0.3044 0.00975,-0.01 0.01425,-0.017 0.02325,-0.023 0.05775,-0.04 0.1169844,-0.089 0.1874765,-0.094 0.04275,0 0.1229844,0.015 0.1642267,0.023 0.0375,0.01 0.0615,0.044 0.093742,0.047 0.092234,0.01 0.1117345,-0.077 0.1874766,-0.1169 0.077985,0.011 0.1169845,-0.01 0.1874691,0 0.048,0.01 0.103492,0.068 0.1409844,0.071 0.0315,0 0.03975,-0.052 0.0705,-0.047 0.03,0.01 0.089235,0.081 0.093735,0.117 0.00525,0.045 -0.036,0.091 -0.02325,0.1409 0.04725,0.048 0.1432268,0.042 0.2107189,0.071 0.04425,-0.036 0.00675,-0.089 0,-0.1409 -0.0015,-0.023 0.003,-0.05 0,-0.071 -0.0045,-0.036 -0.02325,-0.063 -0.02325,-0.094 -7.5e-4,-0.1424 0.1154845,-0.2249 0.2107189,-0.2812 0.04125,-0.025 0.080992,-0.052 0.1169845,-0.071 0.05025,-0.025 0.075,-0.047 0.1169845,-0.07 0.075742,-0.043 0.1514842,-0.069 0.2107265,-0.117 0.02775,-0.065 -0.003,-0.1469 0,-0.2107 0.02775,-0.016 0.04125,0 0.0705,0 0.04575,-0.01 0.0675,-0.068 0.093742,-0.094 0.015,-0.015 0.05175,-0.032 0.0705,-0.047 0.04575,-0.036 0.054,-0.078 0.093735,-0.094 0.01425,-0.01 0.048,-0.013 0.0705,-0.023 0.03,-0.01 0.069,-0.029 0.1169844,-0.047 0.0315,-0.011 0.1049845,-0.011 0.1169844,-0.023 0.015,-0.015 -0.0045,-0.071 0,-0.094 0.024,-0.1132 0.203969,-0.126 0.3044612,-0.1643 0.0705,-0.027 0.1334843,-0.086 0.210719,-0.071 -0.015,0.054 -0.082485,0.028 -0.0705,0.094 0.01725,0.091 0.1319843,-0.01 0.1642342,-0.023 0.06075,-0.025 0.1777267,-0.041 0.2579613,-0.071 0.0705,-0.025 0.1837266,-0.06 0.1169844,-0.141 -0.0555,0 -0.069,0.05 -0.1169844,0.071 -0.033,0.01 -0.042,-0.02 -0.0705,-0.023 -0.027,0 -0.04275,0.029 -0.0705,0.023 -0.02775,-0.01 -0.066,-0.062 -0.0705,-0.094 -0.01125,-0.083 0.082492,-0.102 0.1169845,-0.1642 -0.0225,-0.076 -0.1244844,-0.018 -0.1874766,-0.047 0.00675,-0.045 0.04125,-0.085 0.093742,-0.094 0.04275,-0.01 0.1387267,0.01 0.1642266,0.023 0.015,0.013 0,0.05 0.02325,0.071 0.0255,0.023 0.06075,0.01 0.093742,0 0.012,-0.057 -0.079492,-0.032 -0.0705,-0.071 0.0675,-0.044 0.1987265,-0.012 0.2812111,-0.023 0.04725,-0.01 0.098242,-0.046 0.1409843,-0.071 0.0405,-0.023 0.07425,-0.061 0.1169844,-0.023 0.012,0.041 -0.024,0.05 -0.04725,0.071 -0.076492,0.068 -0.1514842,0.1553 -0.2107264,0.2347 0.03675,0.036 0.101992,0.016 0.1642342,0.023 0.024,0 0.045,0.019 0.0705,0.023 0.029999,0.01 0.0705,-0.01 0.093742,0 0.042,0.011 0.0525,0.071 0.093735,0.071 0.06825,0 0.06225,-0.094 0.02325,-0.1409 0.012,-0.047 0.03975,-0.06 0.02325,-0.094 -0.03075,-0.062 -0.1582269,0.011 -0.1642268,-0.071 -0.00375,-0.05 0.0525,-0.056 0.0705,-0.094 -0.00825,-0.097 0.079485,-0.1011 0.0705,-0.1874 -0.0045,-0.036 -0.045,-0.037 -0.0705,-0.071 -0.01275,-0.017 -0.0075,-0.057 -0.02325,-0.071 -0.0525,-0.044 -0.1574766,-0.033 -0.1642267,-0.117 -0.003,-0.049 0.0075,-0.086 0,-0.1409 -0.00675,-0.05 -0.0495,-0.201 -0.093735,-0.2107 -0.05625,-0.012 -0.096742,0.085 -0.1642342,0.117 -0.03675,0.017 -0.1042345,0.031 -0.1409769,0.023 -0.024,-0.01 -0.06675,-0.024 -0.0705,-0.071 -0.0045,-0.053 0.0375,-0.062 0.04725,-0.1169 -0.00825,-0.033 -0.03825,-0.022 -0.0705,-0.047 -0.03675,-0.028 -0.06825,-0.087 -0.1169844,-0.094 -0.02475,0 -0.06975,0.022 -0.093735,0.023 -0.045,0 -0.079492,-0.011 -0.1169844,-0.023 0.01575,-0.01 0.03075,-0.018 0.04725,-0.023 0.091485,-0.032 0.1874765,-0.044 0.2812112,-0.071 0.0165,-0.01 0.03075,-0.019 0.04725,-0.023 0.02325,0.025 0.042,0.077 0.0705,0.094 0.01875,0.01 0.04725,-0.01 0.0705,0 0.073499,0.022 0.1304844,0.064 0.2107265,0.047 0.02775,-0.049 -0.055499,-0.055 -0.02325,-0.094 0.054,0.01 0.098985,0.03 0.1409844,0.047 0.05775,-0.042 0.095985,-0.05 0.093735,-0.117 -7.5e-4,-0.034 -0.0465,-0.047 -0.0705,-0.07 0.04725,-0.01 0.092992,-0.017 0.1409844,-0.023 0.00375,0.013 0.01575,0.023 0.02325,0.023 0.0285,0.01 0.1237343,-0.038 0.1409768,-0.047 0.003,0 -0.0045,-0.02 0,-0.023 0.1897266,-0.02 0.3907031,-0.023 0.5856722,-0.023 m -1.8747511,0.3517 c -0.017251,0.032 -0.03525,0.059 -0.0705,0.071 0.009,0.049 -0.063,0.078 -0.0705,0.1168 -0.0045,0.026 -0.0015,0.071 0,0.094 0.015,0.2392 -0.188219,0.3576 -0.4221955,0.3516 -0.04575,0.043 -0.02175,0.1274 -0.04725,0.1874 -0.021,0.05 -0.089985,0.098 -0.1409769,0.094 -0.0375,0 -0.093742,-0.059 -0.093742,-0.094 0,-0.043 0.06075,-0.068 0.02325,-0.117 0.00525,-0.033 0.079485,-0.064 0.0705,-0.1169 -0.009,-0.055 -0.072,-0.014 -0.1409843,-0.023 -0.039,-0.01 -0.099735,-0.028 -0.1409843,-0.047 0.075742,-0.05 0.1537342,-0.095 0.2347188,-0.1411 0.0705,-0.042 0.1387344,-0.079 0.2107265,-0.1169 0.1889766,-0.095 0.3914458,-0.1829 0.5856722,-0.2577 m 4.03072,0.562 c -0.02026,0 -0.03,0.014 -0.04725,0.023 -0.03825,0.023 -0.0405,0.059 -0.0705,0.07 -0.0405,0.016 -0.087739,0.01 -0.093739,0.047 -0.00452,0.031 0.02475,0.041 0.023246,0.071 -0.015002,0.037 -0.039752,0.05 -0.047248,0.094 0.050996,0.082 0.1717277,-0.01 0.2347197,-0.023 0.0285,-0.01 0.05475,0 0.0705,-0.023 0.01725,-0.026 0.0098,-0.079 0.02325,-0.117 0.01425,-0.042 0.05175,-0.032 0.04725,-0.071 -0.0045,-0.037 -0.07949,-0.076 -0.140977,-0.07 m -5.4840341,0.5855 c 0.04575,0.012 0.1469768,0.1448 0.04725,0.1874 -0.00975,0.01 -0.1402344,0.027 -0.1642267,0.023 -0.0345,-0.01 -0.0585,-0.065 -0.093742,-0.071 -0.069,-0.012 -0.1634767,0.076 -0.2107189,0 0.012,-0.044 0.064499,-0.032 0.1169844,-0.047 0.093735,-0.026 0.2234689,-0.1145 0.3044611,-0.094 m 0.1874691,0.2346 c 0.02325,0 0.042,0.044 0.0705,0.047 0.027,0 0.054,-0.027 0.0705,-0.023 0.042,0.011 0.063,0.086 0.02325,0.1171 -0.033,0 -0.04575,-0.028 -0.0705,-0.023 -0.068249,0.012 -0.089992,0.1448 -0.1409843,0.141 -0.048,-0.01 -0.071999,-0.1056 -0.02325,-0.141 0.0015,-0.03 -0.02475,-0.041 -0.02325,-0.071 0.015,-0.019 0.054,-0.049 0.093735,-0.047 m -0.2347189,0.023 c 0.01425,8e-4 0.018,0 0.02325,0 -0.00675,0.053 -0.02925,0.068 -0.0705,0.094 -0.07125,0.043 -0.1177344,0.096 -0.1409767,0.1874 -0.00675,0.027 -0.083242,0.1003 -0.1169845,0.094 -0.079492,-0.017 0.0285,-0.1651 0.04725,-0.1875 0.02025,-0.025 0.0465,-0.043 0.0705,-0.071 0.0225,-0.028 0.02475,-0.079 0.04725,-0.094 0.024,-0.016 0.098985,-0.025 0.1409769,-0.023 m 7.1240736,0.023 c 0.036,0.01 0.0435,0.052 0.0705,0.071 0.02026,0.014 0.048,0.01 0.0705,0.023 0.02625,0.016 0.0405,0.045 0.0705,0.071 0.042,0.035 0.104985,0.066 0.164227,0.094 0.012,0.01 0.033,0.017 0.04725,0.023 0.04125,0.053 0.07799,0.1088 0.116984,0.1643 0.0045,0.03 0.009,0.074 0.02326,0.094 0.03899,0.053 0.09824,0.099 0.140984,0.1643 -7.49e-4,0.062 0.027,0.1 0.0705,0.1168 0.05475,0.093 0.111734,0.186 0.164226,0.2811 0.02175,0.043 0.02625,0.097 0.04725,0.1409 -0.01575,0 -0.03225,0.01 -0.04725,0 -0.0495,-0.087 -0.306711,-0.1042 -0.328461,0.023 -0.0098,0.056 0.03675,0.1311 -0.04725,0.1409 -0.05325,0.01 -0.114734,-0.055 -0.187476,-0.071 -0.03,-0.01 -0.0705,0.011 -0.09374,0 -0.05475,-0.018 -0.0465,-0.084 -0.09373,-0.1169 -0.027,-0.019 -0.09749,-0.041 -0.140984,-0.047 -0.027,0 -0.042,0 -0.0705,0 -0.03375,-0.01 -0.08849,-0.01 -0.116985,-0.023 -0.027,-0.016 -0.08699,-0.046 -0.09373,-0.07 -0.0105,-0.037 0.0675,-0.086 0.0705,-0.117 0.0015,-0.023 -0.01726,-0.034 -0.02325,-0.07 -0.0038,-0.022 0.0045,-0.056 0,-0.071 -0.0075,-0.025 -0.05325,-0.047 -0.09374,-0.047 -0.036,0 -0.063,0.023 -0.09373,0.023 -0.04425,8e-4 -0.132735,-0.028 -0.187477,-0.023 -0.033,0 -0.063,0.021 -0.09374,0.023 -0.08698,0.01 -0.143226,-0.01 -0.210718,0 -0.0495,0 -0.141735,0.025 -0.187477,0.047 -0.02325,0.01 -0.0405,0.032 -0.0705,0.047 -0.0135,0.01 -0.02925,0.016 -0.04725,0.023 -0.0285,0.013 -0.06675,0.04 -0.09373,0.047 -0.039,0.01 -0.09299,0 -0.164235,0 -0.051,0 -0.140227,-0.01 -0.140978,-0.07 -7.49e-4,-0.092 0.170228,-0.053 0.257969,-0.071 0.033,-0.01 0.05475,-0.047 0.09373,-0.071 0.01875,-0.011 0.02925,-0.011 0.04725,-0.023 0.03,-0.021 0.08923,-0.07 0.09373,-0.094 0.0045,-0.023 -0.02625,-0.054 -0.02326,-0.071 0.0038,-0.021 0.04275,-0.043 0.0705,-0.071 0.042,-0.041 0.06525,-0.091 0.116985,-0.117 0.03525,-0.019 0.101242,-0.019 0.116992,-0.047 0.0038,-0.032 -7.5e-4,-0.041 0,-0.071 0.02175,-0.02 0.0285,-0.043 0.04725,-0.047 0.054,-0.012 0.101235,0.026 0.164228,0.023 0.027,0 0.0645,-0.01 0.09373,-0.023 0.02475,-0.016 0.0465,-0.034 0.0705,-0.047 0.02625,-0.014 0.03825,-0.044 0.0705,-0.047 0.07874,-0.01 0.128234,0.093 0.164226,0.1408 0.03,0.04 0.114743,0.089 0.164234,0.1169 0.02775,0.016 0.063,0.034 0.09373,0.047 0.06525,0.029 0.185226,0.1236 0.187476,0.1874 0.0015,0.032 -0.0285,0.041 -0.02325,0.071 0.0495,0.01 0.09223,-0.044 0.09373,-0.094 7.51e-4,-0.031 -0.02925,-0.038 -0.02325,-0.071 0.02325,-0.05 0.110985,-0.01 0.140985,-0.023 -0.0053,-0.056 -0.09299,-0.064 -0.140985,-0.094 -0.0255,-0.016 -0.0435,-0.036 -0.0705,-0.047 -0.039,-0.016 -0.08699,-0.024 -0.116985,-0.047 -0.0285,-0.022 -0.04275,-0.06 -0.0705,-0.094 -0.0405,-0.048 -0.118484,-0.055 -0.09373,-0.1641 0.012,-0.016 0.02775,-0.052 0.04725,-0.047 m -6.6088859,0.1642 0.0705,0 c 0.0255,7e-4 0.06,-0.014 0.0705,0 -0.0165,0.066 -0.1589768,0.047 -0.210719,0.023 0.003,-0.025 0.0375,-0.02 0.0705,-0.023 m -0.2347188,0.117 c 0.01725,0 0.02925,-0.01 0.04725,0 -0.0465,0.039 -0.1079846,0.069 -0.1874767,0.094 -0.03825,0.012 -0.086985,0.019 -0.093735,-0.023 -0.00825,-0.052 0.03525,-0.041 0.0705,-0.047 0.0435,-0.01 0.112492,-0.022 0.1642343,-0.023 m 6.5151441,0 c -0.03225,0.011 -0.0495,0.085 0,0.094 0.02325,-0.014 0.02925,-0.051 0.02325,-0.094 -0.01275,-0.014 -0.01275,0 -0.02325,0 m -0.02326,0.1409 c -0.01575,0.01 -0.03,0.01 -0.04725,0.023 7.51e-4,0.056 0.01125,0.092 0,0.1409 0.03225,0.062 0.100485,0.019 0.116984,-0.023 0.0195,-0.1041 -0.0225,-0.1536 -0.0705,-0.1409 m 0.328461,0.2811 c 0.03675,0.06 0.105735,0.1028 0.187476,0.1169 0.03,-0.023 0.033,-0.079 0.04725,-0.1169 -0.03525,8e-4 -0.07275,0 -0.116985,0 -0.04425,0 -0.09149,-0.021 -0.116984,0 m -8.7648492,2.015 c 0.1229844,-0.01 0.1589767,0.1619 0.2579612,0.2107 0.02475,0.013 0.0615,0.016 0.093742,0.023 0.02625,0.01 0.04575,0.015 0.0705,0.023 0.05325,0.017 0.1214844,0.01 0.1642267,0.023 0.06375,0.029 0.1094845,0.1551 0.1642267,0.1874 0.003,0.032 -0.00975,0.07 0,0.094 0.02625,0.035 0.07425,0.048 0.1169844,0.071 0.051,0.028 0.069,0.095 0.1169845,0.1171 0.0165,0.01 0.04425,-0.01 0.0705,0 0.066,0.02 0.083992,0.11 0.1409844,0.094 0.0375,-0.011 0.04125,-0.059 0.04725,-0.094 0.02475,-0.027 0.0555,-0.07 0.093735,-0.07 0.06225,0 0.07125,0.056 0.093742,0.1169 0.01275,0.034 0.03825,0.081 0.04725,0.1169 0.01575,0.062 0.01275,0.2437 0,0.2811 -0.01575,0.046 -0.079492,0.067 -0.1169844,0.1169 -0.018,0.023 -0.033,0.053 -0.04725,0.071 -0.024,0.03 -0.05175,0.043 -0.0705,0.071 -0.0105,0.016 -0.0135,0.05 -0.02325,0.071 -0.029999,0.064 -0.072,0.111 -0.04725,0.1874 0.0105,0.031 0.0465,0.057 0.04725,0.094 0,0.043 -0.086235,0.07 -0.093735,0.1168 -0.00525,0.035 0.036,0.095 0.04725,0.1409 0.00825,0.035 0.07275,0.071 0.093735,0.094 0.03525,0.04 0.0615,0.091 0.093742,0.1409 0.06375,0.097 0.1019846,0.2098 0.1642267,0.3043 0.03225,0.05 0.095235,0.089 0.1169844,0.1409 0.01125,0.026 -0.0105,0.071 0,0.094 0.036,0.081 0.1994767,0.171 0.2812113,0.2107 0.03825,0.019 0.082492,0 0.1169844,0.023 0.05325,0.029 0.1604841,0.1176 0.1874765,0.1642 0.024,0.042 0.03525,0.1446 0.04725,0.2106 0.01575,0.088 -0.00375,0.1626 0,0.258 0.003,0.052 0.0225,0.089 0.02325,0.1409 0,0.017 7.5e-4,0.053 0,0.071 -0.0015,0.062 0.00525,0.1244 0,0.1874 -0.003,0.034 -0.00225,0.065 0,0.094 0.003,0.031 0.021,0.043 0.02325,0.071 0.0015,0.029 -0.02625,0.071 -0.02325,0.094 0.00675,0.063 0.05775,0.1065 0.0705,0.1642 0.00975,0.046 0.02925,0.156 0.02325,0.2107 -0.00375,0.029 -0.01875,0.062 -0.02325,0.094 -0.003,0.025 0.00375,0.046 0,0.071 -0.0045,0.035 -0.0255,0.061 -0.02325,0.094 0.0045,0.068 0.06,0.12 0.0705,0.1875 0.00375,0.023 -7.5e-4,0.049 0,0.071 7.5e-4,0.02 0.017249,0.029 0.02325,0.047 -0.1972265,-0.1124 -0.3817031,-0.2383 -0.5624299,-0.3748 -0.1717266,-0.1297 -0.3382033,-0.2729 -0.4919376,-0.4221 -0.0075,-0.01 -0.01575,-0.016 -0.02325,-0.023 -0.1552341,-0.1528 -0.310461,-0.3209 -0.4454454,-0.4918 -0.077985,-0.099 -0.1634766,-0.2002 -0.2347189,-0.3043 -0.042,-0.062 -0.077992,-0.123 -0.1169843,-0.1875 -0.024,-0.038 -0.04725,-0.078 -0.0705,-0.1169 -0.06675,-0.1146 -0.1297268,-0.2308 -0.1874765,-0.3515 -0.03675,-0.076 -0.06075,-0.1559 -0.093735,-0.2347 -0.078742,-0.1859 -0.1537267,-0.3666 -0.2107189,-0.5623 -0.0405,-0.1386 -0.0645,-0.2781 -0.093742,-0.422 -0.0225,-0.1095 -0.05475,-0.2167 -0.0705,-0.3283 -0.00825,-0.061 -0.017249,-0.126 -0.02325,-0.1875 -0.018,-0.1761 -0.02325,-0.3576 -0.02325,-0.5389 0,-0.2264 0.0195,-0.4378 0.04725,-0.656 7.5e-4,-0.01 -7.5e-4,-0.016 0,-0.023 0.04725,0 0.111742,-0.069 0.1642342,-0.071 m 2.0157354,0.5623 c 0.048,-0.022 0.063,0.088 0.02325,0.094 -0.0375,0.01 -0.06,-0.076 -0.02325,-0.094"
       inkscape:connector-curvature="0"
       style="color:#000000;fill:#4d4d4d;fill-opacity:1" />
    <rect
       style="color:#000000;clip-rule:nonzero;display:inline;overflow:visible;visibility:visible;opacity:1;isolation:auto;mix-blend-mode:normal;color-interpolation:sRGB;color-interpolation-filters:linearRGB;solid-color:#000000;solid-opacity:1;fill:#4d4d4d;fill-opacity:1;fill-rule:evenodd;stroke:none;stroke-width:1;stroke-linecap:butt;stroke-linejoin:round;stroke-miterlimit:4;stroke-dasharray:none;stroke-dashoffset:0;stroke-opacity:1;marker:none;color-rendering:auto;image-rendering:auto;shape-rendering:auto;text-rendering:auto;enable-background:accumulate"
       id="rect4145"
       width="10"
       height="1.0000174"
       x="3"
       y="1050.3622"
       ry="2.6367199e-05" />
    <rect
       style="color:#000000;clip-rule:nonzero;display:inline;overflow:visible;visibility:visible;opacity:1;isolation:auto;mix-blend-mode:normal;color-interpolation:sRGB;color-interpolation-filters:linearRGB;solid-color:#000000;solid-opacity:1;fill:#4d4d4d;fill-opacity:1;fill-rule:evenodd;stroke:none;stroke-width:1;stroke-linecap:butt;stroke-linejoin:round;stroke-miterlimit:4;stroke-dasharray:none;stroke-dashoffset:0;stroke-opacity:1;marker:none;color-rendering:auto;image-rendering:auto;shape-rendering:auto;text-rendering:auto;enable-background:accumulate"
       id="rect4147"
       width="2"
       height="2.5"
       x="7"
       y="1048.8622"
       ry="2.6367199e-05" />
  </g>
</svg>
