<?xml version="1.0" encoding="UTF-8" standalone="no"?>
<!-- Created with Inkscape (http://www.inkscape.org/) -->

<svg
   xmlns:dc="http://purl.org/dc/elements/1.1/"
   xmlns:cc="http://creativecommons.org/ns#"
   xmlns:rdf="http://www.w3.org/1999/02/22-rdf-syntax-ns#"
   xmlns:svg="http://www.w3.org/2000/svg"
   xmlns="http://www.w3.org/2000/svg"
   xmlns:xlink="http://www.w3.org/1999/xlink"
   xmlns:sodipodi="http://sodipodi.sourceforge.net/DTD/sodipodi-0.dtd"
   xmlns:inkscape="http://www.inkscape.org/namespaces/inkscape"
   width="48"
   height="48"
   id="svg5453"
   version="1.1"
   inkscape:version="0.91 r13725"
   sodipodi:docname="freeradius.svg"
   inkscape:export-filename="freeradius.png"
   inkscape:export-xdpi="90"
   inkscape:export-ydpi="90">
  <defs
     id="defs5455">
    <linearGradient
       inkscape:collect="always"
       id="linearGradient4227">
      <stop
         style="stop-color:#292c2f;stop-opacity:1"
         offset="0"
         id="stop4229" />
      <stop
         style="stop-color:#000000;stop-opacity:0;"
         offset="1"
         id="stop4231" />
    </linearGradient>
    <linearGradient
       gradientTransform="translate(-5.8399973e-6,0)"
       gradientUnits="userSpaceOnUse"
       y2="517.79797"
       x2="400.57144"
       y1="545.79797"
       x1="400.57144"
       id="linearGradient4238"
       xlink:href="#linearGradient4303"
       inkscape:collect="always" />
    <linearGradient
       inkscape:collect="always"
       id="linearGradient4303">
      <stop
         style="stop-color:#c6cdd1;stop-opacity:1"
         offset="0"
         id="stop4305" />
      <stop
         style="stop-color:#e0e5e7;stop-opacity:1"
         offset="1"
         id="stop4307" />
    </linearGradient>
    <style
       id="current-color-scheme"
       type="text/css">
      .ColorScheme-Text {
        color:#4d4d4d;
      }
      .ColorScheme-Background {
        color:#eff0f1;
      }
      .ColorScheme-Highlight {
        color:#3daee9;
      }
      .ColorScheme-ViewText {
        color:#31363b;
      }
      .ColorScheme-ViewBackground {
        color:#fcfcfc;
      }
      .ColorScheme-ViewHover {
        color:#93cee9;
      }
      .ColorScheme-ViewFocus{
        color:#3daee9;
      }
      .ColorScheme-ButtonText {
        color:#31363b;
      }
      .ColorScheme-ButtonBackground {
        color:#eff0f1;
      }
      .ColorScheme-ButtonHover {
        color:#93cee9;
      }
      .ColorScheme-ButtonFocus{
        color:#3daee9;
      }
      </style>
    <linearGradient
       inkscape:collect="always"
       xlink:href="#linearGradient4227"
       id="linearGradient4277"
       x1="425.51425"
       y1="542.19073"
       x2="433.31424"
       y2="549.99072"
       gradientUnits="userSpaceOnUse"
       gradientTransform="matrix(1.6666661,0,0,1.6666661,-692.19027,-875.65089)" />
  </defs>
  <sodipodi:namedview
     id="base"
     pagecolor="#ffffff"
     bordercolor="#666666"
     borderopacity="1.0"
     inkscape:pageopacity="0"
     inkscape:pageshadow="2"
     inkscape:zoom="11.313708"
     inkscape:cx="0.080509679"
     inkscape:cy="11.748455"
     inkscape:document-units="px"
     inkscape:current-layer="layer1-9"
     showgrid="true"
     fit-margin-top="0"
     fit-margin-left="0"
     fit-margin-right="0"
     fit-margin-bottom="0"
     inkscape:window-width="1880"
     inkscape:window-height="1051"
     inkscape:window-x="0"
     inkscape:window-y="0"
     inkscape:window-maximized="1"
     inkscape:showpageshadow="false"
     borderlayer="true"
     showguides="true"
     inkscape:object-nodes="true"
     inkscape:snap-global="true">
    <inkscape:grid
       type="xygrid"
       id="grid4063" />
    <sodipodi:guide
       position="1.1650391e-05,47.999996"
       orientation="4,0"
       id="guide4146" />
    <sodipodi:guide
       position="1.1650391e-05,43.999996"
       orientation="0,48"
       id="guide4148" />
    <sodipodi:guide
       position="48.000012,43.999996"
       orientation="-4,0"
       id="guide4150" />
    <sodipodi:guide
       position="48.000012,47.999996"
       orientation="0,-48"
       id="guide4152" />
    <sodipodi:guide
       position="1.1650391e-05,4.0000264"
       orientation="4,0"
       id="guide4154" />
    <sodipodi:guide
       position="1.1650391e-05,2.6367188e-05"
       orientation="0,48"
       id="guide4156" />
    <sodipodi:guide
       position="48.000012,2.6367188e-05"
       orientation="-4,0"
       id="guide4158" />
    <sodipodi:guide
       position="48.000012,4.0000264"
       orientation="0,-48"
       id="guide4160" />
    <sodipodi:guide
       position="48.000012,48.000026"
       orientation="0,-4"
       id="guide4162" />
    <sodipodi:guide
       position="44.000012,48.000026"
       orientation="48,0"
       id="guide4164" />
    <sodipodi:guide
       position="44.000012,2.6367188e-05"
       orientation="0,4"
       id="guide4166" />
    <sodipodi:guide
       position="48.000012,2.6367188e-05"
       orientation="-48,0"
       id="guide4168" />
    <sodipodi:guide
       position="4.0000422,48.000026"
       orientation="0,-4"
       id="guide4170" />
    <sodipodi:guide
       position="4.2167969e-05,48.000026"
       orientation="48,0"
       id="guide4172" />
    <sodipodi:guide
       position="4.2167969e-05,2.6367188e-05"
       orientation="0,4"
       id="guide4174" />
    <sodipodi:guide
       position="4.0000422,2.6367188e-05"
       orientation="-48,0"
       id="guide4176" />
    <sodipodi:guide
       position="20.000012,43.999996"
       orientation="39.999969,0"
       id="guide4153" />
    <sodipodi:guide
       position="20.000012,4.0000264"
       orientation="0,8"
       id="guide4155" />
    <sodipodi:guide
       position="28.000012,4.0000264"
       orientation="-39.999969,0"
       id="guide4157" />
    <sodipodi:guide
       position="28.000012,43.999996"
       orientation="0,-8"
       id="guide4159" />
  </sodipodi:namedview>
  <metadata
     id="metadata5458">
    <rdf:RDF>
      <cc:Work
         rdf:about="">
        <dc:format>image/svg+xml</dc:format>
        <dc:type
           rdf:resource="http://purl.org/dc/dcmitype/StillImage" />
        <dc:title />
      </cc:Work>
    </rdf:RDF>
  </metadata>
  <g
     inkscape:label="Capa 1"
     inkscape:groupmode="layer"
     id="layer1"
     transform="translate(-384.57143,-499.798)"
     style="display:inline">
    <g
       transform="matrix(1.4285708,0,0,1.4285708,-163.67324,-235.91308)"
       id="layer1-7"
       inkscape:label="Capa 1">
      <g
         transform="translate(-2.5589574e-6,2.2518306e-5)"
         id="layer1-9"
         inkscape:label="Capa 1">
        <rect
           rx="13.999994"
           ry="13.999994"
           y="517.79797"
           x="386.57144"
           height="28"
           width="27.999989"
           id="rect4175"
           style="opacity:1;fill:url(#linearGradient4238);fill-opacity:1;stroke:none" />
        <path
           style="opacity:0.2;fill:url(#linearGradient4277);fill-opacity:1;fill-rule:evenodd;stroke:none;stroke-width:0.6000002px;stroke-linecap:butt;stroke-linejoin:miter;stroke-opacity:1"
           d="M 34.000001,15 36,24 l -3.999999,9 -10,3 -8,-3 14.000013,14 C 36.121688,45.499645 44.169867,34.786695 45.66211,26.662109 Z"
           transform="matrix(0.70000031,0,0,0.70000031,383.77144,514.99796)"
           id="path4269"
           inkscape:connector-curvature="0"
           sodipodi:nodetypes="cccccccc" />
        <g
           transform="matrix(0.14426719,0,0,0.14426719,389.23175,521.69924)"
           id="Logo_Symbol">
          <path
             style="fill:#004d95"
             inkscape:connector-curvature="0"
             d="m 114.946,15.547 -7.753,12.855 c 8.389,5.748 15.13,14.063 18.865,24.329 9.521,26.168 -4.022,55.202 -30.19,64.724 -26.167,9.521 -55.202,-4.022 -64.722,-30.192 -7.922,-21.772 0.133,-45.52 18.135,-58.369 l -5.28,-14.511 c -25.74,16.005 -37.718,48.419 -26.952,78.01 12.349,33.939 50.008,51.506 83.948,39.158 33.94,-12.35 51.506,-50.01 39.157,-83.949 -4.953,-13.614 -13.985,-24.583 -25.208,-32.055 z"
             id="path95" />
          <path
             style="fill:#555555"
             inkscape:connector-curvature="0"
             d="M 59.488,56.95 53.711,41.072 c -11.663,10.06 -16.546,26.664 -10.976,41.976 7.195,19.777 29.139,30.012 48.917,22.817 19.777,-7.196 30.013,-29.141 22.816,-48.918 -2.732,-7.511 -7.596,-13.641 -13.655,-17.967 l -7.782,12.903 c 3.237,2.569 5.828,6.031 7.342,10.192 C 104.741,74.08 98.528,87.4 86.523,91.767 74.52,96.135 61.2,89.921 56.832,77.916 54.185,70.648 55.434,62.903 59.488,56.95 Z"
             id="path97" />
          <path
             style="fill:#004d95"
             inkscape:connector-curvature="0"
             d="m 81.166,77.046 c 3.893,-1.416 5.9,-5.72 4.484,-9.612 L 78.157,46.841 c 3.38,-0.062 6.69,0.637 9.724,1.963 L 95.67,35.892 c -9.056,-4.528 -19.875,-5.487 -30.118,-1.76 -2.412,0.877 -4.68,1.978 -6.793,3.263 l 12.795,35.168 c 1.416,3.892 5.72,5.899 9.612,4.483 z"
             id="path99" />
          <path
             style="fill:#555555"
             inkscape:connector-curvature="0"
             d="m 71.987,29.88 -3.412,-9.377 c 11.633,-2.364 23.417,-0.46 33.474,4.81 l 7.755,-12.856 C 93.889,3.839 74.51,1.786 56.206,8.445 53.821,9.313 51.527,10.317 49.31,11.424 l 8.581,23.584 c 2.13,-1.26 4.398,-2.35 6.807,-3.227 2.409,-0.877 4.846,-1.498 7.289,-1.901 z"
             id="path101" />
        </g>
      </g>
    </g>
  </g>
</svg>
